<svg xmlns="http://www.w3.org/2000/svg" width="517.1162109375" height="468.5455322265625" viewBox="-183.18179321289062 -117.70265197753906 517.1162109375 468.5455322265625"><title>Neo4j Graph Visualization</title><desc>Created using Neo4j (http://www.neo4j.com/)</desc><g class="layer relationships"><g class="relationship" transform="translate(53.79403983223783 84.06606939518024) rotate(427.89148907389347)"><path class="outline" fill="#A5ABB6" stroke="none" d="M 25 0.5 L 41.36832587382122 0.5 L 41.36832587382122 -0.5 L 25 -0.5 Z M 86.93082587382122 0.5 L 103.29915174764244 0.5 L 103.29915174764244 3.5 L 110.29915174764244 0 L 103.29915174764244 -3.5 L 103.29915174764244 -0.5 L 86.93082587382122 -0.5 Z"/><text text-anchor="middle" pointer-events="none" font-size="8px" fill="#000000" x="64.14957587382122" y="3" font-family="sans-serif">ACTED_IN</text></g><g class="relationship" transform="translate(53.79403983223783 84.06606939518024) rotate(338.48478837984453)"><path class="outline" fill="#A5ABB6" stroke="none" d="M 25 0.5 L 41.848740038390716 0.5 L 41.848740038390716 -0.5 L 25 -0.5 Z M 87.41124003839072 0.5 L 104.25998007678143 0.5 L 104.25998007678143 3.5 L 111.25998007678143 0 L 104.25998007678143 -3.5 L 104.25998007678143 -0.5 L 87.41124003839072 -0.5 Z"/><text text-anchor="middle" pointer-events="none" font-size="8px" fill="#000000" x="64.62999003839072" y="3" font-family="sans-serif">ACTED_IN</text></g><g class="relationship" transform="translate(53.79403983223783 84.06606939518024) rotate(231.05461950585288)"><path class="outline" fill="#A5ABB6" stroke="none" d="M 25 0.5 L 49.907698403971224 0.5 L 49.907698403971224 -0.5 L 25 -0.5 Z M 95.47019840397122 0.5 L 120.37789680794245 0.5 L 120.37789680794245 3.5 L 127.37789680794245 0 L 120.37789680794245 -3.5 L 120.37789680794245 -0.5 L 95.47019840397122 -0.5 Z"/><text text-anchor="middle" pointer-events="none" font-size="8px" fill="#000000" x="72.68894840397122" y="3" transform="rotate(180 72.68894840397122 0)" font-family="sans-serif">ACTED_IN</text></g><g class="relationship" transform="translate(53.79403983223783 84.06606939518024) rotate(201.2139709305681)"><path class="outline" fill="#A5ABB6" stroke="none" d="M 25 0.5 L 31.604250937003336 0.5 L 31.604250937003336 -0.5 L 25 -0.5 Z M 77.16675093700334 0.5 L 83.77100187400667 0.5 L 83.77100187400667 3.5 L 90.77100187400667 0 L 83.77100187400667 -3.5 L 83.77100187400667 -0.5 L 77.16675093700334 -0.5 Z"/><text text-anchor="middle" pointer-events="none" font-size="8px" fill="#000000" x="54.385500937003336" y="3" transform="rotate(180 54.385500937003336 0)" font-family="sans-serif">ACTED_IN</text></g><g class="relationship" transform="translate(53.79403983223783 84.06606939518024) rotate(529.9093090157902)"><path class="outline" fill="#A5ABB6" stroke="none" d="M 25 0.5 L 34.49856930274632 0.5 L 34.49856930274632 -0.5 L 25 -0.5 Z M 80.06106930274632 0.5 L 89.55963860549264 0.5 L 89.55963860549264 3.5 L 96.55963860549264 0 L 89.55963860549264 -3.5 L 89.55963860549264 -0.5 L 80.06106930274632 -0.5 Z"/><text text-anchor="middle" pointer-events="none" font-size="8px" fill="#000000" x="57.27981930274632" y="3" transform="rotate(180 57.27981930274632 0)" font-family="sans-serif">ACTED_IN</text></g><g class="relationship" transform="translate(60.466578475453275 321.8428517937021) rotate(291.48376398505985)"><path class="outline" fill="#A5ABB6" stroke="none" d="M 25 0.5 L 34.128864611436754 0.5 L 34.128864611436754 -0.5 L 25 -0.5 Z M 79.69136461143675 0.5 L 88.82022922287351 0.5 L 88.82022922287351 3.5 L 95.82022922287351 0 L 88.82022922287351 -3.5 L 88.82022922287351 -0.5 L 79.69136461143675 -0.5 Z"/><text text-anchor="middle" pointer-events="none" font-size="8px" fill="#000000" x="56.910114611436754" y="3" font-family="sans-serif">ACTED_IN</text></g><g class="relationship" transform="translate(158.69819142177607 320.81099052986565) rotate(244.14467137228593)"><path class="outline" fill="#A5ABB6" stroke="none" d="M 25 0.5 L 35.61128566713748 0.5 L 35.61128566713748 -0.5 L 25 -0.5 Z M 81.17378566713748 0.5 L 91.78507133427496 0.5 L 91.78507133427496 3.5 L 98.78507133427496 0 L 91.78507133427496 -3.5 L 91.78507133427496 -0.5 L 81.17378566713748 -0.5 Z"/><text text-anchor="middle" pointer-events="none" font-size="8px" fill="#000000" x="58.39253566713748" y="3" transform="rotate(180 58.39253566713748 0)" font-family="sans-serif">ACTED_IN</text></g><g class="relationship" transform="translate(219.40570159642334 252.93785701686699) rotate(200.77995240487382)"><path class="outline" fill="#A5ABB6" stroke="none" d="M 25 0.5 L 35.053705559471545 0.5 L 35.053705559471545 -0.5 L 25 -0.5 Z M 80.61620555947155 0.5 L 90.66991111894309 0.5 L 90.66991111894309 3.5 L 97.66991111894309 0 L 90.66991111894309 -3.5 L 90.66991111894309 -0.5 L 80.61620555947155 -0.5 Z"/><text text-anchor="middle" pointer-events="none" font-size="8px" fill="#000000" x="57.834955559471545" y="3" transform="rotate(180 57.834955559471545 0)" font-family="sans-serif">ACTED_IN</text></g><g class="relationship" transform="translate(277.8272502778585 107.72820915450667) rotate(217.12704198160247)"><path class="outline" fill="#A5ABB6" stroke="none" d="M 25 0.5 L 34.7170560085043 0.5 L 34.7170560085043 -0.5 L 25 -0.5 Z M 80.2795560085043 0.5 L 89.9966120170086 0.5 L 89.9966120170086 3.5 L 96.9966120170086 0 L 89.9966120170086 -3.5 L 89.9966120170086 -0.5 L 80.2795560085043 -0.5 Z"/><text text-anchor="middle" pointer-events="none" font-size="8px" fill="#000000" x="57.4983060085043" y="3" transform="rotate(180 57.4983060085043 0)" font-family="sans-serif">ACTED_IN</text></g><g class="relationship" transform="translate(304.934386001138 25.76526997155817) rotate(536.1694007606371)"><path class="outline" fill="#A5ABB6" stroke="none" d="M 25 0.5 L 36.04545707023277 0.5 L 36.04545707023277 -0.5 L 25 -0.5 Z M 81.60795707023277 0.5 L 92.65341414046554 0.5 L 92.65341414046554 3.5 L 99.65341414046554 0 L 92.65341414046554 -3.5 L 92.65341414046554 -0.5 L 81.60795707023277 -0.5 Z"/><text text-anchor="middle" pointer-events="none" font-size="8px" fill="#000000" x="58.82670707023277" y="3" transform="rotate(180 58.82670707023277 0)" font-family="sans-serif">ACTED_IN</text></g><g class="relationship" transform="translate(180.73496628069535 -88.70265053483192) rotate(450.08189207287984)"><path class="outline" fill="#A5ABB6" stroke="none" d="M 25 0.5 L 35.11661921618963 0.5 L 35.11661921618963 -0.5 L 25 -0.5 Z M 80.67911921618963 0.5 L 90.79573843237927 0.5 L 90.79573843237927 3.5 L 97.79573843237927 0 L 90.79573843237927 -3.5 L 90.79573843237927 -0.5 L 80.67911921618963 -0.5 Z"/><text text-anchor="middle" pointer-events="none" font-size="8px" fill="#000000" x="57.89786921618963" y="3" transform="rotate(180 57.89786921618963 0)" font-family="sans-serif">ACTED_IN</text></g><g class="relationship" transform="translate(266.44008197182006 -54.666003476632085) rotate(494.0557593232735)"><path class="outline" fill="#A5ABB6" stroke="none" d="M 25 0.5 L 35.47155548419754 0.5 L 35.47155548419754 -0.5 L 25 -0.5 Z M 81.03405548419754 0.5 L 91.50561096839508 0.5 L 91.50561096839508 3.5 L 98.50561096839508 0 L 91.50561096839508 -3.5 L 91.50561096839508 -0.5 L 81.03405548419754 -0.5 Z"/><text text-anchor="middle" pointer-events="none" font-size="8px" fill="#000000" x="58.25280548419754" y="3" transform="rotate(180 58.25280548419754 0)" font-family="sans-serif">ACTED_IN</text></g><g class="relationship" transform="translate(32.62505781437875 13.273588666368818) rotate(212.60108847650986)"><path class="outline" fill="#A5ABB6" stroke="none" d="M 25 0.5 L 25.78351698044478 0.5 L 25.78351698044478 -0.5 L 25 -0.5 Z M 55.78351698044478 0.5 L 56.56703396088956 0.5 L 56.56703396088956 3.5 L 63.56703396088956 0 L 56.56703396088956 -3.5 L 56.56703396088956 -0.5 L 55.78351698044478 -0.5 Z"/><text text-anchor="middle" pointer-events="none" font-size="8px" fill="#000000" x="40.78351698044478" y="3" transform="rotate(180 40.78351698044478 0)" font-family="sans-serif">ACT…</text></g><g class="relationship" transform="translate(32.62505781437875 13.273588666368818) rotate(521.5760070665585)"><path class="outline" fill="#A5ABB6" stroke="none" d="M 25 0.5 L 27.22197022245254 0.5 L 27.22197022245254 -0.5 L 25 -0.5 Z M 57.22197022245254 0.5 L 59.44394044490508 0.5 L 59.44394044490508 3.5 L 66.44394044490508 0 L 59.44394044490508 -3.5 L 59.44394044490508 -0.5 L 57.22197022245254 -0.5 Z"/><text text-anchor="middle" pointer-events="none" font-size="8px" fill="#000000" x="42.22197022245254" y="3" transform="rotate(180 42.22197022245254 0)" font-family="sans-serif">ACT…</text></g><g class="relationship" transform="translate(32.62505781437875 13.273588666368818) rotate(496.9290950098266)"><path class="outline" fill="#A5ABB6" stroke="none" d="M 25 0.5 L 41.1445519177867 0.5 L 41.1445519177867 -0.5 L 25 -0.5 Z M 86.7070519177867 0.5 L 102.8516038355734 0.5 L 102.8516038355734 3.5 L 109.8516038355734 0 L 102.8516038355734 -3.5 L 102.8516038355734 -0.5 L 86.7070519177867 -0.5 Z"/><text text-anchor="middle" pointer-events="none" font-size="8px" fill="#000000" x="63.9258019177867" y="3" transform="rotate(180 63.9258019177867 0)" font-family="sans-serif">ACTED_IN</text></g><g class="relationship" transform="translate(-139.04951075217855 -13.40985035965629) rotate(347.77193616871114)"><path class="outline" fill="#A5ABB6" stroke="none" d="M 25 0.5 L 25.6009601893848 0.5 L 25.6009601893848 -0.5 L 25 -0.5 Z M 66.71424143938481 0.5 L 67.3152016287696 0.5 L 67.3152016287696 3.5 L 74.3152016287696 0 L 67.3152016287696 -3.5 L 67.3152016287696 -0.5 L 66.71424143938481 -0.5 Z"/><text text-anchor="middle" pointer-events="none" font-size="8px" fill="#000000" x="46.1576008143848" y="3" font-family="sans-serif">ACTED…</text></g><g class="relationship" transform="translate(-139.04951075217855 -13.40985035965629) rotate(393.2072635117638)"><path class="outline" fill="#A5ABB6" stroke="none" d="M 25 0.5 L 26.689278012201697 0.5 L 26.689278012201697 -0.5 L 25 -0.5 Z M 67.8025592622017 0.5 L 69.4918372744034 0.5 L 69.4918372744034 3.5 L 76.4918372744034 0 L 69.4918372744034 -3.5 L 69.4918372744034 -0.5 L 67.8025592622017 -0.5 Z"/><text text-anchor="middle" pointer-events="none" font-size="8px" fill="#000000" x="47.2459186372017" y="3" font-family="sans-serif">ACTED…</text></g><g class="relationship" transform="translate(-139.04951075217855 -13.40985035965629) rotate(418.3671197844886)"><path class="outline" fill="#A5ABB6" stroke="none" d="M 25 0.5 L 43.468779923072844 0.5 L 43.468779923072844 -0.5 L 25 -0.5 Z M 89.03127992307284 0.5 L 107.50005984614569 0.5 L 107.50005984614569 3.5 L 114.50005984614569 0 L 107.50005984614569 -3.5 L 107.50005984614569 -0.5 L 89.03127992307284 -0.5 Z"/><text text-anchor="middle" pointer-events="none" font-size="8px" fill="#000000" x="66.25002992307284" y="3" font-family="sans-serif">ACTED_IN</text></g><g class="relationship" transform="translate(-154.18179256870533 44.64961607892065) rotate(324.81690321390033)"><path class="outline" fill="#A5ABB6" stroke="none" d="M 25 0.5 L 42.354623462767435 0.5 L 42.354623462767435 -0.5 L 25 -0.5 Z M 87.91712346276744 0.5 L 105.27174692553487 0.5 L 105.27174692553487 3.5 L 112.27174692553487 0 L 105.27174692553487 -3.5 L 105.27174692553487 -0.5 L 87.91712346276744 -0.5 Z"/><text text-anchor="middle" pointer-events="none" font-size="8px" fill="#000000" x="65.13587346276744" y="3" font-family="sans-serif">ACTED_IN</text></g><g class="relationship" transform="translate(-154.18179256870533 44.64961607892065) rotate(358.5826389180676)"><path class="outline" fill="#A5ABB6" stroke="none" d="M 25 0.5 L 25.98366143693825 0.5 L 25.98366143693825 -0.5 L 25 -0.5 Z M 67.09694268693825 0.5 L 68.0806041238765 0.5 L 68.0806041238765 3.5 L 75.0806041238765 0 L 68.0806041238765 -3.5 L 68.0806041238765 -0.5 L 67.09694268693825 -0.5 Z"/><text text-anchor="middle" pointer-events="none" font-size="8px" fill="#000000" x="46.54030206193825" y="3" font-family="sans-serif">ACTED…</text></g><g class="relationship" transform="translate(-154.18179256870533 44.64961607892065) rotate(394.51322318165353)"><path class="outline" fill="#A5ABB6" stroke="none" d="M 25 0.5 L 27.297031306616553 0.5 L 27.297031306616553 -0.5 L 25 -0.5 Z M 72.85953130661656 0.5 L 75.1565626132331 0.5 L 75.1565626132331 3.5 L 82.1565626132331 0 L 75.1565626132331 -3.5 L 75.1565626132331 -0.5 L 72.85953130661656 -0.5 Z"/><text text-anchor="middle" pointer-events="none" font-size="8px" fill="#000000" x="50.07828130661655" y="3" font-family="sans-serif">ACTED_IN</text></g><g class="relationship" transform="translate(-120.24865728001778 215.51027537237283) rotate(296.2689606415199)"><path class="outline" fill="#A5ABB6" stroke="none" d="M 25 0.5 L 35.13444121612113 0.5 L 35.13444121612113 -0.5 L 25 -0.5 Z M 80.69694121612113 0.5 L 90.83138243224226 0.5 L 90.83138243224226 3.5 L 97.83138243224226 0 L 90.83138243224226 -3.5 L 90.83138243224226 -0.5 L 80.69694121612113 -0.5 Z"/><text text-anchor="middle" pointer-events="none" font-size="8px" fill="#000000" x="57.91569121612113" y="3" font-family="sans-serif">ACTED_IN</text></g></g><g class="layer nodes"><g class="node" transform="translate(104.71548415911462,209.41704454613932)"><circle class="outline" cx="0" cy="0" r="25" fill="#57C7E3" stroke="#23b3d7" stroke-width="2px"/><text text-anchor="middle" pointer-events="none" font-family="sans-serif" dy="1.5625" font-size="25" fill="#2A2C34"/><text text-anchor="middle" pointer-events="none" font-family="sans-serif" dy="1.5625" font-size="25" fill="#2A2C34"/><text text-anchor="middle" pointer-events="none" x="0" y="0" font-size="10px" fill="#2A2C34" font-family="sans-serif"> Cloud</text><text text-anchor="middle" pointer-events="none" x="0" y="10" font-size="10px" fill="#2A2C34" font-family="sans-serif"> Atlas</text></g><g class="node" transform="translate(53.79403983223783,84.06606939518024)"><circle class="outline" cx="0" cy="0" r="25" fill="#F79767" stroke="#f36924" stroke-width="2px"/><text text-anchor="middle" pointer-events="none" font-family="sans-serif" dy="1.5625" font-size="25" fill="#FFFFFF"/><text text-anchor="middle" pointer-events="none" font-family="sans-serif" dy="1.5625" font-size="25" fill="#FFFFFF"/><text text-anchor="middle" pointer-events="none" x="0" y="0" font-size="10px" fill="#FFFFFF" font-family="sans-serif"> Hugo</text><text text-anchor="middle" pointer-events="none" x="0" y="10" font-size="10px" fill="#FFFFFF" font-family="sans-serif"> Weaving</text></g><g class="node" transform="translate(60.466578475453275,321.8428517937021)"><circle class="outline" cx="0" cy="0" r="25" fill="#F79767" stroke="#f36924" stroke-width="2px"/><text text-anchor="middle" pointer-events="none" font-family="sans-serif" dy="1.5625" font-size="25" fill="#FFFFFF"/><text text-anchor="middle" pointer-events="none" font-family="sans-serif" dy="1.5625" font-size="25" fill="#FFFFFF"/><text text-anchor="middle" pointer-events="none" x="0" y="0" font-size="10px" fill="#FFFFFF" font-family="sans-serif"> Tom</text><text text-anchor="middle" pointer-events="none" x="0" y="10" font-size="10px" fill="#FFFFFF" font-family="sans-serif"> Hanks</text></g><g class="node" transform="translate(158.69819142177607,320.81099052986565)"><circle class="outline" cx="0" cy="0" r="25" fill="#F79767" stroke="#f36924" stroke-width="2px"/><text text-anchor="middle" pointer-events="none" font-family="sans-serif" dy="1.5625" font-size="25" fill="#FFFFFF"/><text text-anchor="middle" pointer-events="none" font-family="sans-serif" dy="1.5625" font-size="25" fill="#FFFFFF"/><text text-anchor="middle" pointer-events="none" x="0" y="0" font-size="10px" fill="#FFFFFF" font-family="sans-serif"> Jim</text><text text-anchor="middle" pointer-events="none" x="0" y="10" font-size="10px" fill="#FFFFFF" font-family="sans-serif"> Broadb…</text></g><g class="node" transform="translate(219.40570159642334,252.93785701686699)"><circle class="outline" cx="0" cy="0" r="25" fill="#F79767" stroke="#f36924" stroke-width="2px"/><text text-anchor="middle" pointer-events="none" font-family="sans-serif" dy="1.5625" font-size="25" fill="#FFFFFF"/><text text-anchor="middle" pointer-events="none" font-family="sans-serif" dy="1.5625" font-size="25" fill="#FFFFFF"/><text text-anchor="middle" pointer-events="none" x="0" y="0" font-size="10px" fill="#FFFFFF" font-family="sans-serif"> Halle</text><text text-anchor="middle" pointer-events="none" x="0" y="10" font-size="10px" fill="#FFFFFF" font-family="sans-serif"> Berry</text></g><g class="node" transform="translate(180.5594560734398,34.09296247035836)"><circle class="outline" cx="0" cy="0" r="25" fill="#57C7E3" stroke="#23b3d7" stroke-width="2px"/><text text-anchor="middle" pointer-events="none" font-family="sans-serif" dy="1.5625" font-size="25" fill="#2A2C34"/><text text-anchor="middle" pointer-events="none" font-family="sans-serif" dy="1.5625" font-size="25" fill="#2A2C34"/><text text-anchor="middle" pointer-events="none" x="0" y="0" font-size="10px" fill="#2A2C34" font-family="sans-serif"> V for</text><text text-anchor="middle" pointer-events="none" x="0" y="10" font-size="10px" fill="#2A2C34" font-family="sans-serif"> Vendetta</text></g><g class="node" transform="translate(277.8272502778585,107.72820915450667)"><circle class="outline" cx="0" cy="0" r="25" fill="#F79767" stroke="#f36924" stroke-width="2px"/><text text-anchor="middle" pointer-events="none" font-family="sans-serif" dy="1.5625" font-size="25" fill="#FFFFFF"/><text text-anchor="middle" pointer-events="none" x="0" y="5" font-size="10px" fill="#FFFFFF" font-family="sans-serif"> John Hurt</text></g><g class="node" transform="translate(304.934386001138,25.76526997155817)"><circle class="outline" cx="0" cy="0" r="25" fill="#F79767" stroke="#f36924" stroke-width="2px"/><text text-anchor="middle" pointer-events="none" font-family="sans-serif" dy="1.5625" font-size="25" fill="#FFFFFF"/><text text-anchor="middle" pointer-events="none" font-family="sans-serif" dy="1.5625" font-size="25" fill="#FFFFFF"/><text text-anchor="middle" pointer-events="none" x="0" y="0" font-size="10px" fill="#FFFFFF" font-family="sans-serif"> Stephen</text><text text-anchor="middle" pointer-events="none" x="0" y="10" font-size="10px" fill="#FFFFFF" font-family="sans-serif"> Rea</text></g><g class="node" transform="translate(180.73496628069535,-88.70265053483192)"><circle class="outline" cx="0" cy="0" r="25" fill="#F79767" stroke="#f36924" stroke-width="2px"/><text text-anchor="middle" pointer-events="none" font-family="sans-serif" dy="1.5625" font-size="25" fill="#FFFFFF"/><text text-anchor="middle" pointer-events="none" font-family="sans-serif" dy="1.5625" font-size="25" fill="#FFFFFF"/><text text-anchor="middle" pointer-events="none" x="0" y="0" font-size="10px" fill="#FFFFFF" font-family="sans-serif"> Natalie</text><text text-anchor="middle" pointer-events="none" x="0" y="10" font-size="10px" fill="#FFFFFF" font-family="sans-serif"> Portman</text></g><g class="node" transform="translate(266.44008197182006,-54.666003476632085)"><circle class="outline" cx="0" cy="0" r="25" fill="#F79767" stroke="#f36924" stroke-width="2px"/><text text-anchor="middle" pointer-events="none" font-family="sans-serif" dy="1.5625" font-size="25" fill="#FFFFFF"/><text text-anchor="middle" pointer-events="none" x="0" y="5" font-size="10px" fill="#FFFFFF" font-family="sans-serif"> Ben Miles</text></g><g class="node" transform="translate(-41.98754571838861,-34.44515920793564)"><circle class="outline" cx="0" cy="0" r="25" fill="#57C7E3" stroke="#23b3d7" stroke-width="2px"/><text text-anchor="middle" pointer-events="none" font-family="sans-serif" dy="1.5625" font-size="25" fill="#2A2C34"/><text text-anchor="middle" pointer-events="none" font-family="sans-serif" dy="1.5625" font-size="25" fill="#2A2C34"/><text text-anchor="middle" pointer-events="none" font-family="sans-serif" dy="1.5625" font-size="25" fill="#2A2C34"/><text text-anchor="middle" pointer-events="none" x="0" y="-5" font-size="10px" fill="#2A2C34" font-family="sans-serif"> The</text><text text-anchor="middle" pointer-events="none" x="0" y="5" font-size="10px" fill="#2A2C34" font-family="sans-serif"> Matrix</text><text text-anchor="middle" pointer-events="none" x="0" y="15" font-size="10px" fill="#2A2C34" font-family="sans-serif"> Revol…</text></g><g class="node" transform="translate(32.62505781437875,13.273588666368818)"><circle class="outline" cx="0" cy="0" r="25" fill="#F79767" stroke="#f36924" stroke-width="2px"/><text text-anchor="middle" pointer-events="none" font-family="sans-serif" dy="1.5625" font-size="25" fill="#FFFFFF"/><text text-anchor="middle" pointer-events="none" font-family="sans-serif" dy="1.5625" font-size="25" fill="#FFFFFF"/><text text-anchor="middle" pointer-events="none" x="0" y="0" font-size="10px" fill="#FFFFFF" font-family="sans-serif"> Laurence</text><text text-anchor="middle" pointer-events="none" x="0" y="10" font-size="10px" fill="#FFFFFF" font-family="sans-serif"> Fishbur…</text></g><g class="node" transform="translate(-139.04951075217855,-13.40985035965629)"><circle class="outline" cx="0" cy="0" r="25" fill="#F79767" stroke="#f36924" stroke-width="2px"/><text text-anchor="middle" pointer-events="none" font-family="sans-serif" dy="1.5625" font-size="25" fill="#FFFFFF"/><text text-anchor="middle" pointer-events="none" x="0" y="5" font-size="10px" fill="#FFFFFF" font-family="sans-serif"> Carrie-A…</text></g><g class="node" transform="translate(-154.18179256870533,44.64961607892065)"><circle class="outline" cx="0" cy="0" r="25" fill="#F79767" stroke="#f36924" stroke-width="2px"/><text text-anchor="middle" pointer-events="none" font-family="sans-serif" dy="1.5625" font-size="25" fill="#FFFFFF"/><text text-anchor="middle" pointer-events="none" font-family="sans-serif" dy="1.5625" font-size="25" fill="#FFFFFF"/><text text-anchor="middle" pointer-events="none" x="0" y="0" font-size="10px" fill="#FFFFFF" font-family="sans-serif"> Keanu</text><text text-anchor="middle" pointer-events="none" x="0" y="10" font-size="10px" fill="#FFFFFF" font-family="sans-serif"> Reeves</text></g><g class="node" transform="translate(-54.1318090322454,42.17411286660567)"><circle class="outline" cx="0" cy="0" r="25" fill="#57C7E3" stroke="#23b3d7" stroke-width="2px"/><text text-anchor="middle" pointer-events="none" font-family="sans-serif" dy="1.5625" font-size="25" fill="#2A2C34"/><text text-anchor="middle" pointer-events="none" font-family="sans-serif" dy="1.5625" font-size="25" fill="#2A2C34"/><text text-anchor="middle" pointer-events="none" font-family="sans-serif" dy="1.5625" font-size="25" fill="#2A2C34"/><text text-anchor="middle" pointer-events="none" x="0" y="-5" font-size="10px" fill="#2A2C34" font-family="sans-serif"> The</text><text text-anchor="middle" pointer-events="none" x="0" y="5" font-size="10px" fill="#2A2C34" font-family="sans-serif"> Matrix</text><text text-anchor="middle" pointer-events="none" x="0" y="15" font-size="10px" fill="#2A2C34" font-family="sans-serif"> Reloa…</text></g><g class="node" transform="translate(-65.88527287206136,105.36414086948383)"><circle class="outline" cx="0" cy="0" r="25" fill="#57C7E3" stroke="#23b3d7" stroke-width="2px"/><text text-anchor="middle" pointer-events="none" font-family="sans-serif" dy="1.5625" font-size="25" fill="#2A2C34"/><text text-anchor="middle" pointer-events="none" font-family="sans-serif" dy="1.5625" font-size="25" fill="#2A2C34"/><text text-anchor="middle" pointer-events="none" x="0" y="0" font-size="10px" fill="#2A2C34" font-family="sans-serif"> The</text><text text-anchor="middle" pointer-events="none" x="0" y="10" font-size="10px" fill="#2A2C34" font-family="sans-serif"> Matrix</text></g><g class="node" transform="translate(-120.24865728001778,215.51027537237283)"><circle class="outline" cx="0" cy="0" r="25" fill="#F79767" stroke="#f36924" stroke-width="2px"/><text text-anchor="middle" pointer-events="none" font-family="sans-serif" dy="1.5625" font-size="25" fill="#FFFFFF"/><text text-anchor="middle" pointer-events="none" font-family="sans-serif" dy="1.5625" font-size="25" fill="#FFFFFF"/><text text-anchor="middle" pointer-events="none" x="0" y="0" font-size="10px" fill="#FFFFFF" font-family="sans-serif"> Emil</text><text text-anchor="middle" pointer-events="none" x="0" y="10" font-size="10px" fill="#FFFFFF" font-family="sans-serif"> Eifrem</text></g></g></svg>