<svg xmlns="http://www.w3.org/2000/svg" width="370.8326721191406" height="371.9525451660156" viewBox="-89.84738159179688 -80.59378051757812 370.8326721191406 371.9525451660156"><title>Neo4j Graph Visualization</title><desc>Created using Neo4j (http://www.neo4j.com/)</desc><g class="layer relationships"><g class="relationship" transform="translate(119.429967246423 262.35877515220926) rotate(335.5724401766505)"><path class="outline" fill="#A5ABB6" stroke="none" d="M 21.40063509461097,12.933012701892217 L 21.90063509461097,12.06698729810778 A 57.58951410138541 57.58951410138541 0 0 0 24.247262253194563,13.350101959596401 L 23.78800972598019,14.238407715655207 A 58.58951410138541 58.58951410138541 0 0 1 21.40063509461097,12.933012701892217 Z M 74.27792211514077,15.826907086432826 L 73.8754178388802,14.911488981088638 A 57.58951410138541 57.58951410138541 0 0 0 76.29806216583471,13.778423792759162 L 74.96434697028064,11.091194033853503 L 82.79055080254027,11.114293296283938 L 78.07634909324014,17.361396804633372 L 76.74263389768608,14.674167045727716 A 58.58951410138541 58.58951410138541 0 0 1 74.27792211514077,15.826907086432826"/><text text-anchor="middle" pointer-events="none" font-size="8px" fill="#000000" x="48.868700093279294" y="23.25379086860083" font-family="sans-serif">PRODUCED</text></g><g class="relationship" transform="translate(119.429967246423 262.35877515220926) rotate(335.5724401766505)"><path class="outline" fill="#A5ABB6" stroke="none" d="M 25 0.5 L 25.646753563377054 0.5 L 25.646753563377054 -0.5 L 25 -0.5 Z M 72.53737856337705 0.5 L 73.18413212675411 0.5 L 73.18413212675411 3.5 L 80.18413212675411 0 L 73.18413212675411 -3.5 L 73.18413212675411 -0.5 L 72.53737856337705 -0.5 Z"/><text text-anchor="middle" pointer-events="none" font-size="8px" fill="#000000" x="49.092066063377054" y="3" font-family="sans-serif">DIRECTED</text></g><g class="relationship" transform="translate(119.429967246423 262.35877515220926) rotate(335.5724401766505)"><path class="outline" fill="#A5ABB6" stroke="none" d="M 21.40063509461097,-12.933012701892217 L 21.90063509461097,-12.06698729810778 A 57.58951410138541 57.58951410138541 0 0 1 31.524358983742818,-16.497918518373176 L 31.19146794514488,-17.440883818064094 A 58.58951410138541 58.58951410138541 0 0 0 21.40063509461097,-12.933012701892217 Z M 66.68779434414093,-18.55765921896235 L 66.41483761384336,-17.595632907791362 A 57.58951410138541 57.58951410138541 0 0 1 76.29806216583471,-13.778423792759162 L 74.96434697028064,-11.091194033853503 L 82.79055080254027,-11.114293296283938 L 78.07634909324014,-17.361396804633372 L 76.74263389768608,-14.674167045727716 A 58.58951410138541 58.58951410138541 0 0 0 66.68779434414093,-18.55765921896235"/><text text-anchor="middle" pointer-events="none" font-size="8px" fill="#000000" x="48.86870009327928" y="-17.25379086860083" font-family="sans-serif">WROTE</text></g><g class="relationship" transform="translate(251.98528787780808 31.687513142294698) rotate(208.83969023184284)"><path class="outline" fill="#A5ABB6" stroke="none" d="M 24.018736134675446,6.953439040707552 L 24.277555179777966,5.987513214418485 A 99.58059096656916 99.58059096656916 0 0 0 25.353618831765946,6.269411475862412 L 25.105605744345976,7.238168157629531 A 100.58059096656916 100.58059096656916 0 0 1 24.018736134675446,6.953439040707552 Z M 71.79439021595644,8.0022700049267 L 71.5782105200279,7.025916411668476 A 99.58059096656916 99.58059096656916 0 0 0 72.66292243910424,6.779381088543267 L 71.98170493752689,3.857747518852381 L 79.59360368531253,5.6768125131445935 L 73.57121244120738,10.674892514797781 L 72.88999493963003,7.753258945106896 A 100.58059096656916 100.58059096656916 0 0 1 71.79439021595644,8.0022700049267"/><text text-anchor="middle" pointer-events="none" font-size="8px" fill="#000000" x="48.413223572708674" y="12.867239408776271" transform="rotate(180 48.413223572708674 9.867239408776271)" font-family="sans-serif">DIRECTED</text></g><g class="relationship" transform="translate(251.98528787780808 31.687513142294698) rotate(208.83969023184284)"><path class="outline" fill="#A5ABB6" stroke="none" d="M 24.018736134675446,-6.953439040707552 L 24.277555179777966,-5.987513214418485 A 99.58059096656916 99.58059096656916 0 0 1 30.74696997597662,-7.491665689990555 L 30.55311755472523,-8.472696392249645 A 100.58059096656916 100.58059096656916 0 0 0 24.018736134675446,-6.953439040707552 Z M 66.30939836175688,-9.057878476691002 L 66.14775196893869,-8.071029732612729 A 99.58059096656916 99.58059096656916 0 0 1 72.66292243910424,-6.779381088543267 L 71.98170493752689,-3.857747518852381 L 79.59360368531253,-5.6768125131445935 L 73.57121244120738,-10.674892514797781 L 72.88999493963003,-7.753258945106896 A 100.58059096656916 100.58059096656916 0 0 0 66.30939836175688,-9.057878476691002"/><text text-anchor="middle" pointer-events="none" font-size="8px" fill="#000000" x="48.41322357270866" y="-6.867239408776271" transform="rotate(180 48.41322357270866 -9.867239408776271)" font-family="sans-serif">WROTE</text></g><g class="relationship" transform="translate(62.53117057535148 -51.593775801694896) rotate(378.6143879456976)"><path class="outline" fill="#A5ABB6" stroke="none" d="M 24.018736134675446,6.953439040707552 L 24.277555179777966,5.987513214418485 A 99.37298256600737 99.37298256600737 0 0 0 25.30302278034412,6.256431981235821 L 25.054523115560944,7.22506396326132 A 100.37298256600737 100.37298256600737 0 0 1 24.018736134675446,6.953439040707552 Z M 71.74199453416986,7.989860292665753 L 71.52535437521703,7.013608766915908 A 99.37298256600737 99.37298256600737 0 0 0 72.55907982366985,6.778422032217111 L 71.87795190727118,3.8567675760052857 L 79.48979487423055,5.676065969988867 L 73.46725037886807,10.673961307166211 L 72.78612246246941,7.752306850954386 A 100.37298256600737 100.37298256600737 0 0 1 71.74199453416986,7.989860292665753"/><text text-anchor="middle" pointer-events="none" font-size="8px" fill="#000000" x="48.361356821583946" y="12.860168054041651" font-family="sans-serif">DIRECTED</text></g><g class="relationship" transform="translate(62.53117057535148 -51.593775801694896) rotate(378.6143879456976)"><path class="outline" fill="#A5ABB6" stroke="none" d="M 24.018736134675446,-6.953439040707552 L 24.277555179777966,-5.987513214418485 A 99.37298256600737 99.37298256600737 0 0 1 30.695770836320673,-7.4810703855366825 L 30.501538920343307,-8.462026023073761 A 100.37298256600737 100.37298256600737 0 0 0 24.018736134675446,-6.953439040707552 Z M 66.25738633781206,-9.04774934517097 L 66.09538845466042,-8.06095823969099 A 99.37298256600737 99.37298256600737 0 0 1 72.55907982366985,-6.778422032217111 L 71.87795190727118,-3.8567675760052857 L 79.48979487423055,-5.676065969988867 L 73.46725037886807,-10.673961307166211 L 72.78612246246941,-7.752306850954386 A 100.37298256600737 100.37298256600737 0 0 0 66.25738633781206,-9.04774934517097"/><text text-anchor="middle" pointer-events="none" font-size="8px" fill="#000000" x="48.361356821583904" y="-6.860168054041651" font-family="sans-serif">WROTE</text></g><g class="relationship" transform="translate(-60.847377121945655 78.37067741914404) rotate(436.67961668327484)"><path class="outline" fill="#A5ABB6" stroke="none" d="M 21.40063509461097,12.933012701892217 L 21.90063509461097,12.06698729810778 A 57.17114249861632 57.17114249861632 0 0 0 31.32790288294,16.420889141586542 L 30.99279844696615,17.363070131094744 A 58.17114249861632 58.17114249861632 0 0 1 21.40063509461097,12.933012701892217 Z M 66.4829744999275,18.4837192872036 L 66.20797958889598,17.522273605479057 A 57.17114249861632 57.17114249861632 0 0 0 75.89115343989363,13.771809182654957 L 74.55805359341481,11.084274103940974 L 82.38425193130605,11.109165387323403 L 77.66861990186537,17.355189287606937 L 76.33552005538655,14.667654208892953 A 58.17114249861632 58.17114249861632 0 0 1 66.4829744999275,18.4837192872036"/><text text-anchor="middle" pointer-events="none" font-size="8px" fill="#000000" x="48.66607106288355" y="23.19773860198356" font-family="sans-serif">WROTE</text></g><g class="relationship" transform="translate(-60.847377121945655 78.37067741914404) rotate(436.67961668327484)"><path class="outline" fill="#A5ABB6" stroke="none" d="M 25 0.5 L 25.444876293627956 0.5 L 25.444876293627956 -0.5 L 25 -0.5 Z M 72.33550129362796 0.5 L 72.78037758725591 0.5 L 72.78037758725591 3.5 L 79.78037758725591 0 L 72.78037758725591 -3.5 L 72.78037758725591 -0.5 L 72.33550129362796 -0.5 Z"/><text text-anchor="middle" pointer-events="none" font-size="8px" fill="#000000" x="48.890188793627956" y="3" font-family="sans-serif">DIRECTED</text></g><g class="relationship" transform="translate(-60.847377121945655 78.37067741914404) rotate(436.67961668327484)"><path class="outline" fill="#A5ABB6" stroke="none" d="M 21.40063509461097,-12.933012701892217 L 21.90063509461097,-12.06698729810778 A 57.17114249861632 57.17114249861632 0 0 1 24.06034223664069,-13.252596076594791 L 23.5981184126561,-14.139359368878061 A 58.17114249861632 58.17114249861632 0 0 0 21.40063509461097,-12.933012701892217 Z M 74.06630634329332,-15.732959021086387 L 73.66094899622153,-14.818800708114878 A 57.17114249861632 57.17114249861632 0 0 1 75.89115343989363,-13.771809182654957 L 74.55805359341481,-11.084274103940974 L 82.38425193130605,-11.109165387323403 L 77.66861990186537,-17.355189287606937 L 76.33552005538655,-14.667654208892953 A 58.17114249861632 58.17114249861632 0 0 0 74.06630634329332,-15.732959021086387"/><text text-anchor="middle" pointer-events="none" font-size="8px" fill="#000000" x="48.66607106288355" y="-17.19773860198356" font-family="sans-serif">PRODUCED</text></g></g><g class="layer nodes"><g class="node" transform="translate(119.429967246423,262.35877515220926)"><circle class="outline" cx="0" cy="0" r="25" fill="#F79767" stroke="#f36924" stroke-width="2px"/><text text-anchor="middle" pointer-events="none" font-family="sans-serif" dy="1.5625" font-size="25" fill="#FFFFFF"/><text text-anchor="middle" pointer-events="none" font-family="sans-serif" dy="1.5625" font-size="25" fill="#FFFFFF"/><text text-anchor="middle" pointer-events="none" x="0" y="0" font-size="10px" fill="#FFFFFF" font-family="sans-serif"> Cameron</text><text text-anchor="middle" pointer-events="none" x="0" y="10" font-size="10px" fill="#FFFFFF" font-family="sans-serif"> Crowe</text></g><g class="node" transform="translate(215.19852582315576,218.8606735914127)"><circle class="outline" cx="0" cy="0" r="25" fill="#57C7E3" stroke="#23b3d7" stroke-width="2px"/><text text-anchor="middle" pointer-events="none" font-family="sans-serif" dy="1.5625" font-size="25" fill="#2A2C34"/><text text-anchor="middle" pointer-events="none" font-family="sans-serif" dy="1.5625" font-size="25" fill="#2A2C34"/><text text-anchor="middle" pointer-events="none" x="0" y="0" font-size="10px" fill="#2A2C34" font-family="sans-serif"> Jerry</text><text text-anchor="middle" pointer-events="none" x="0" y="10" font-size="10px" fill="#2A2C34" font-family="sans-serif"> Maguire</text></g><g class="node" transform="translate(251.98528787780808,31.687513142294698)"><circle class="outline" cx="0" cy="0" r="25" fill="#F79767" stroke="#f36924" stroke-width="2px"/><text text-anchor="middle" pointer-events="none" font-family="sans-serif" dy="1.5625" font-size="25" fill="#FFFFFF"/><text text-anchor="middle" pointer-events="none" font-family="sans-serif" dy="1.5625" font-size="25" fill="#FFFFFF"/><text text-anchor="middle" pointer-events="none" x="0" y="0" font-size="10px" fill="#FFFFFF" font-family="sans-serif"> Lana</text><text text-anchor="middle" pointer-events="none" x="0" y="10" font-size="10px" fill="#FFFFFF" font-family="sans-serif"> Wacho…</text></g><g class="node" transform="translate(160.9361986938033,-18.449312781667587)"><circle class="outline" cx="0" cy="0" r="25" fill="#57C7E3" stroke="#23b3d7" stroke-width="2px"/><text text-anchor="middle" pointer-events="none" font-family="sans-serif" dy="1.5625" font-size="25" fill="#2A2C34"/><text text-anchor="middle" pointer-events="none" font-family="sans-serif" dy="1.5625" font-size="25" fill="#2A2C34"/><text text-anchor="middle" pointer-events="none" x="0" y="0" font-size="10px" fill="#2A2C34" font-family="sans-serif"> Speed</text><text text-anchor="middle" pointer-events="none" x="0" y="10" font-size="10px" fill="#2A2C34" font-family="sans-serif"> Racer</text></g><g class="node" transform="translate(62.53117057535148,-51.593775801694896)"><circle class="outline" cx="0" cy="0" r="25" fill="#F79767" stroke="#f36924" stroke-width="2px"/><text text-anchor="middle" pointer-events="none" font-family="sans-serif" dy="1.5625" font-size="25" fill="#FFFFFF"/><text text-anchor="middle" pointer-events="none" font-family="sans-serif" dy="1.5625" font-size="25" fill="#FFFFFF"/><text text-anchor="middle" pointer-events="none" x="0" y="0" font-size="10px" fill="#FFFFFF" font-family="sans-serif"> Lilly</text><text text-anchor="middle" pointer-events="none" x="0" y="10" font-size="10px" fill="#FFFFFF" font-family="sans-serif"> Wacho…</text></g><g class="node" transform="translate(-60.847377121945655,78.37067741914404)"><circle class="outline" cx="0" cy="0" r="25" fill="#F79767" stroke="#f36924" stroke-width="2px"/><text text-anchor="middle" pointer-events="none" font-family="sans-serif" dy="1.5625" font-size="25" fill="#FFFFFF"/><text text-anchor="middle" pointer-events="none" font-family="sans-serif" dy="1.5625" font-size="25" fill="#FFFFFF"/><text text-anchor="middle" pointer-events="none" x="0" y="0" font-size="10px" fill="#FFFFFF" font-family="sans-serif"> Nancy</text><text text-anchor="middle" pointer-events="none" x="0" y="10" font-size="10px" fill="#FFFFFF" font-family="sans-serif"> Meyers</text></g><g class="node" transform="translate(-36.706403865734835,180.33214532526452)"><circle class="outline" cx="0" cy="0" r="25" fill="#57C7E3" stroke="#23b3d7" stroke-width="2px"/><text text-anchor="middle" pointer-events="none" font-family="sans-serif" dy="1.5625" font-size="25" fill="#2A2C34"/><text text-anchor="middle" pointer-events="none" x="0" y="5" font-size="10px" fill="#2A2C34" font-family="sans-serif"> Somethi…</text></g></g></svg>