<svg xmlns="http://www.w3.org/2000/svg" width="295.74432373046875" height="296.90087890625" viewBox="-55.84374237060547 -38.66421127319336 295.74432373046875 296.90087890625"><title>Neo4j Graph Visualization</title><desc>Created using Neo4j (http://www.neo4j.com/)</desc><g class="layer relationships"><g class="relationship" transform="translate(121.52884394491683 229.23666276305042) rotate(254.2872670239396)"><path class="outline" fill="#A5ABB6" stroke="none" d="M 25 0.5 L 35.364452420005435 0.5 L 35.364452420005435 -0.5 L 25 -0.5 Z M 80.92695242000543 0.5 L 91.29140484001087 0.5 L 91.29140484001087 3.5 L 98.29140484001087 0 L 91.29140484001087 -3.5 L 91.29140484001087 -0.5 L 80.92695242000543 -0.5 Z"/><text text-anchor="middle" pointer-events="none" font-size="8px" fill="#000000" x="58.145702420005435" y="3" transform="rotate(180 58.145702420005435 0)" font-family="sans-serif">ACTED_IN</text></g><g class="relationship" transform="translate(191.82521606992262 177.7749707212514) rotate(212.95659667045607)"><path class="outline" fill="#A5ABB6" stroke="none" d="M 25 0.5 L 35.503739622031944 0.5 L 35.503739622031944 -0.5 L 25 -0.5 Z M 81.06623962203194 0.5 L 91.56997924406389 0.5 L 91.56997924406389 3.5 L 98.56997924406389 0 L 91.56997924406389 -3.5 L 91.56997924406389 -0.5 L 81.06623962203194 -0.5 Z"/><text text-anchor="middle" pointer-events="none" font-size="8px" fill="#000000" x="58.284989622031944" y="3" transform="rotate(180 58.284989622031944 0)" font-family="sans-serif">ACTED_IN</text></g><g class="relationship" transform="translate(181.54869881453575 28.83880571560435) rotate(498.8207339932562)"><path class="outline" fill="#A5ABB6" stroke="none" d="M 24.018736134675446,6.953439040707552 L 24.277555179777966,5.987513214418485 A 139.74263971541066 139.74263971541066 0 0 0 35.93850157849357,8.58340117062346 L 35.76312840519127,9.567903202153047 A 140.74263971541066 140.74263971541066 0 0 1 24.018736134675446,6.953439040707552 Z M 81.28288040904152,10.198078990328469 L 81.13482812936175,9.209099454401837 A 139.74263971541066 139.74263971541066 0 0 0 92.86316680321485,6.93701293617966 L 92.16722556899583,4.0188515632405775 L 99.78820021244255,5.79951028515847 L 93.79108844884021,10.827894766765104 L 93.09514721462119,7.909733393826021 A 140.74263971541066 140.74263971541066 0 0 1 81.28288040904152,10.198078990328469"/><text text-anchor="middle" pointer-events="none" font-size="8px" fill="#000000" x="58.50427762065731" y="14.235690916579074" transform="rotate(180 58.50427762065731 11.235690916579074)" font-family="sans-serif">ACTED_IN</text></g><g class="relationship" transform="translate(181.54869881453575 28.83880571560435) rotate(498.8207339932562)"><path class="outline" fill="#A5ABB6" stroke="none" d="M 24.018736134675446,-6.953439040707552 L 24.277555179777966,-5.987513214418485 A 139.74263971541066 139.74263971541066 0 0 1 35.93850157849348,-8.583401170623432 L 35.76312840519117,-9.567903202153019 A 140.74263971541066 140.74263971541066 0 0 0 24.018736134675446,-6.953439040707552 Z M 81.2828804090415,-10.198078990328469 L 81.13482812936172,-9.209099454401837 A 139.74263971541066 139.74263971541066 0 0 1 92.86316680321485,-6.93701293617966 L 92.16722556899583,-4.0188515632405775 L 99.78820021244255,-5.79951028515847 L 93.79108844884021,-10.827894766765104 L 93.09514721462119,-7.909733393826021 A 140.74263971541066 140.74263971541066 0 0 0 81.2828804090415,-10.198078990328469"/><text text-anchor="middle" pointer-events="none" font-size="8px" fill="#000000" x="58.50427762065725" y="-8.235690916579074" transform="rotate(180 58.50427762065725 -11.235690916579074)" font-family="sans-serif">ACTED_IN</text></g><g class="relationship" transform="translate(210.9005942920937 100.19458042924643) rotate(535.1771215219268)"><path class="outline" fill="#A5ABB6" stroke="none" d="M 25 0.5 L 35.317265634534344 0.5 L 35.317265634534344 -0.5 L 25 -0.5 Z M 80.87976563453435 0.5 L 91.19703126906869 0.5 L 91.19703126906869 3.5 L 98.19703126906869 0 L 91.19703126906869 -3.5 L 91.19703126906869 -0.5 L 80.87976563453435 -0.5 Z"/><text text-anchor="middle" pointer-events="none" font-size="8px" fill="#000000" x="58.098515634534344" y="3" transform="rotate(180 58.098515634534344 0)" font-family="sans-serif">ACTED_IN</text></g><g class="relationship" transform="translate(114.711658813167 -9.66421145272281) rotate(462.46388237478396)"><path class="outline" fill="#A5ABB6" stroke="none" d="M 25 0.5 L 35.27789735213046 0.5 L 35.27789735213046 -0.5 L 25 -0.5 Z M 80.84039735213045 0.5 L 91.11829470426092 0.5 L 91.11829470426092 3.5 L 98.11829470426092 0 L 91.11829470426092 -3.5 L 91.11829470426092 -0.5 L 80.84039735213045 -0.5 Z"/><text text-anchor="middle" pointer-events="none" font-size="8px" fill="#000000" x="58.05914735213046" y="3" transform="rotate(180 58.05914735213046 0)" font-family="sans-serif">ACTED_IN</text></g><g class="relationship" transform="translate(35.30788688358435 -1.0862951995510668) rotate(424.67463744378273)"><path class="outline" fill="#A5ABB6" stroke="none" d="M 25 0.5 L 35.47314012057012 0.5 L 35.47314012057012 -0.5 L 25 -0.5 Z M 81.03564012057012 0.5 L 91.50878024114024 0.5 L 91.50878024114024 3.5 L 98.50878024114024 0 L 91.50878024114024 -3.5 L 91.50878024114024 -0.5 L 81.03564012057012 -0.5 Z"/><text text-anchor="middle" pointer-events="none" font-size="8px" fill="#000000" x="58.25439012057012" y="3" font-family="sans-serif">ACTED_IN</text></g><g class="relationship" transform="translate(-25.016777556092705 61.77605760281286) rotate(383.31857756351576)"><path class="outline" fill="#A5ABB6" stroke="none" d="M 25 0.5 L 40.224033748663174 0.5 L 40.224033748663174 -0.5 L 25 -0.5 Z M 75.99747124866317 0.5 L 91.22150499732635 0.5 L 91.22150499732635 3.5 L 98.22150499732635 0 L 91.22150499732635 -3.5 L 91.22150499732635 -0.5 L 75.99747124866317 -0.5 Z"/><text text-anchor="middle" pointer-events="none" font-size="8px" fill="#000000" x="58.110752498663174" y="3" font-family="sans-serif">WROTE</text></g><g class="relationship" transform="translate(-26.843739958296222 151.9820059540818) rotate(340.1854721104519)"><path class="outline" fill="#A5ABB6" stroke="none" d="M 25 0.5 L 39.723043202522256 0.5 L 39.723043202522256 -0.5 L 25 -0.5 Z M 75.49648070252226 0.5 L 90.21952390504451 0.5 L 90.21952390504451 3.5 L 97.21952390504451 0 L 90.21952390504451 -3.5 L 90.21952390504451 -0.5 L 75.49648070252226 -0.5 Z"/><text text-anchor="middle" pointer-events="none" font-size="8px" fill="#000000" x="57.609761952522256" y="3" font-family="sans-serif">WROTE</text></g><g class="relationship" transform="translate(31.889881870735422 219.0845941981299) rotate(297.3967387842189)"><path class="outline" fill="#A5ABB6" stroke="none" d="M 25 0.5 L 34.17602648141752 0.5 L 34.17602648141752 -0.5 L 25 -0.5 Z M 81.06665148141752 0.5 L 90.24267796283505 0.5 L 90.24267796283505 3.5 L 97.24267796283505 0 L 90.24267796283505 -3.5 L 90.24267796283505 -0.5 L 81.06665148141752 -0.5 Z"/><text text-anchor="middle" pointer-events="none" font-size="8px" fill="#000000" x="57.62133898141752" y="3" font-family="sans-serif">DIRECTED</text></g></g><g class="layer nodes"><g class="node" transform="translate(88.13975851643089,110.55246212255774)"><circle class="outline" cx="0" cy="0" r="25" fill="#57C7E3" stroke="#23b3d7" stroke-width="2px"/><text text-anchor="middle" pointer-events="none" font-family="sans-serif" dy="1.5625" font-size="25" fill="#2A2C34"/><text text-anchor="middle" pointer-events="none" font-family="sans-serif" dy="1.5625" font-size="25" fill="#2A2C34"/><text text-anchor="middle" pointer-events="none" font-family="sans-serif" dy="1.5625" font-size="25" fill="#2A2C34"/><text text-anchor="middle" pointer-events="none" x="0" y="-5" font-size="10px" fill="#2A2C34" font-family="sans-serif"> Capitian</text><text text-anchor="middle" pointer-events="none" x="0" y="5" font-size="10px" fill="#2A2C34" font-family="sans-serif"> America:</text><text text-anchor="middle" pointer-events="none" x="0" y="15" font-size="10px" fill="#2A2C34" font-family="sans-serif"> The Fi…</text></g><g class="node" transform="translate(121.52884394491683,229.23666276305042)"><circle class="outline" cx="0" cy="0" r="25" fill="#F79767" stroke="#f36924" stroke-width="2px"/><text text-anchor="middle" pointer-events="none" font-family="sans-serif" dy="1.5625" font-size="25" fill="#FFFFFF"/><text text-anchor="middle" pointer-events="none" font-family="sans-serif" dy="1.5625" font-size="25" fill="#FFFFFF"/><text text-anchor="middle" pointer-events="none" x="0" y="0" font-size="10px" fill="#FFFFFF" font-family="sans-serif"> Tommy</text><text text-anchor="middle" pointer-events="none" x="0" y="10" font-size="10px" fill="#FFFFFF" font-family="sans-serif"> Lee Jon…</text></g><g class="node" transform="translate(191.82521606992262,177.7749707212514)"><circle class="outline" cx="0" cy="0" r="25" fill="#F79767" stroke="#f36924" stroke-width="2px"/><text text-anchor="middle" pointer-events="none" font-family="sans-serif" dy="1.5625" font-size="25" fill="#FFFFFF"/><text text-anchor="middle" pointer-events="none" font-family="sans-serif" dy="1.5625" font-size="25" fill="#FFFFFF"/><text text-anchor="middle" pointer-events="none" x="0" y="0" font-size="10px" fill="#FFFFFF" font-family="sans-serif"> Chris</text><text text-anchor="middle" pointer-events="none" x="0" y="10" font-size="10px" fill="#FFFFFF" font-family="sans-serif"> Evan</text></g><g class="node" transform="translate(181.54869881453575,28.83880571560435)"><circle class="outline" cx="0" cy="0" r="25" fill="#F79767" stroke="#f36924" stroke-width="2px"/><text text-anchor="middle" pointer-events="none" font-family="sans-serif" dy="1.5625" font-size="25" fill="#FFFFFF"/><text text-anchor="middle" pointer-events="none" font-family="sans-serif" dy="1.5625" font-size="25" fill="#FFFFFF"/><text text-anchor="middle" pointer-events="none" x="0" y="0" font-size="10px" fill="#FFFFFF" font-family="sans-serif"> Hayley</text><text text-anchor="middle" pointer-events="none" x="0" y="10" font-size="10px" fill="#FFFFFF" font-family="sans-serif"> Atwell</text></g><g class="node" transform="translate(210.9005942920937,100.19458042924643)"><circle class="outline" cx="0" cy="0" r="25" fill="#F79767" stroke="#f36924" stroke-width="2px"/><text text-anchor="middle" pointer-events="none" font-family="sans-serif" dy="1.5625" font-size="25" fill="#FFFFFF"/><text text-anchor="middle" pointer-events="none" font-family="sans-serif" dy="1.5625" font-size="25" fill="#FFFFFF"/><text text-anchor="middle" pointer-events="none" x="0" y="0" font-size="10px" fill="#FFFFFF" font-family="sans-serif"> Dominic</text><text text-anchor="middle" pointer-events="none" x="0" y="10" font-size="10px" fill="#FFFFFF" font-family="sans-serif"> Cooper</text></g><g class="node" transform="translate(114.711658813167,-9.66421145272281)"><circle class="outline" cx="0" cy="0" r="25" fill="#F79767" stroke="#f36924" stroke-width="2px"/><text text-anchor="middle" pointer-events="none" font-family="sans-serif" dy="1.5625" font-size="25" fill="#FFFFFF"/><text text-anchor="middle" pointer-events="none" x="0" y="5" font-size="10px" fill="#FFFFFF" font-family="sans-serif"> Sebastian</text></g><g class="node" transform="translate(35.30788688358435,-1.0862951995510668)"><circle class="outline" cx="0" cy="0" r="25" fill="#F79767" stroke="#f36924" stroke-width="2px"/><text text-anchor="middle" pointer-events="none" font-family="sans-serif" dy="1.5625" font-size="25" fill="#FFFFFF"/><text text-anchor="middle" pointer-events="none" font-family="sans-serif" dy="1.5625" font-size="25" fill="#FFFFFF"/><text text-anchor="middle" pointer-events="none" x="0" y="0" font-size="10px" fill="#FFFFFF" font-family="sans-serif"> Hugo</text><text text-anchor="middle" pointer-events="none" x="0" y="10" font-size="10px" fill="#FFFFFF" font-family="sans-serif"> Weaving</text></g><g class="node" transform="translate(-25.016777556092705,61.77605760281286)"><circle class="outline" cx="0" cy="0" r="25" fill="#F79767" stroke="#f36924" stroke-width="2px"/><text text-anchor="middle" pointer-events="none" font-family="sans-serif" dy="1.5625" font-size="25" fill="#FFFFFF"/><text text-anchor="middle" pointer-events="none" font-family="sans-serif" dy="1.5625" font-size="25" fill="#FFFFFF"/><text text-anchor="middle" pointer-events="none" x="0" y="0" font-size="10px" fill="#FFFFFF" font-family="sans-serif"> Stephen</text><text text-anchor="middle" pointer-events="none" x="0" y="10" font-size="10px" fill="#FFFFFF" font-family="sans-serif"> McFeely</text></g><g class="node" transform="translate(-26.843739958296222,151.9820059540818)"><circle class="outline" cx="0" cy="0" r="25" fill="#F79767" stroke="#f36924" stroke-width="2px"/><text text-anchor="middle" pointer-events="none" font-family="sans-serif" dy="1.5625" font-size="25" fill="#FFFFFF"/><text text-anchor="middle" pointer-events="none" x="0" y="5" font-size="10px" fill="#FFFFFF" font-family="sans-serif"> Christop…</text></g><g class="node" transform="translate(31.889881870735422,219.0845941981299)"><circle class="outline" cx="0" cy="0" r="25" fill="#F79767" stroke="#f36924" stroke-width="2px"/><text text-anchor="middle" pointer-events="none" font-family="sans-serif" dy="1.5625" font-size="25" fill="#FFFFFF"/><text text-anchor="middle" pointer-events="none" font-family="sans-serif" dy="1.5625" font-size="25" fill="#FFFFFF"/><text text-anchor="middle" pointer-events="none" x="0" y="0" font-size="10px" fill="#FFFFFF" font-family="sans-serif"> Joe</text><text text-anchor="middle" pointer-events="none" x="0" y="10" font-size="10px" fill="#FFFFFF" font-family="sans-serif"> Johnston</text></g></g></svg>