<svg xmlns="http://www.w3.org/2000/svg" width="354.3062744140625" height="480.43621826171875" viewBox="-84.64726257324219 -97.59131622314453 354.3062744140625 480.43621826171875"><title>Neo4j Graph Visualization</title><desc>Created using Neo4j (http://www.neo4j.com/)</desc><g class="layer relationships"><g class="relationship" transform="translate(127.41517608697684 239.20608473573708) rotate(455.1337123494842)"><path class="outline" fill="#A5ABB6" stroke="none" d="M 25 0.5 L 31.269025161811946 0.5 L 31.269025161811946 -0.5 L 25 -0.5 Z M 76.83152516181195 0.5 L 83.10055032362389 0.5 L 83.10055032362389 3.5 L 90.10055032362389 0 L 83.10055032362389 -3.5 L 83.10055032362389 -0.5 L 76.83152516181195 -0.5 Z"/><text text-anchor="middle" pointer-events="none" font-size="8px" fill="#000000" x="54.050275161811946" y="3" transform="rotate(180 54.050275161811946 0)" font-family="sans-serif">ACTED_IN</text></g><g class="relationship" transform="translate(127.41517608697684 239.20608473573708) rotate(380.4755207863299)"><path class="outline" fill="#A5ABB6" stroke="none" d="M 25 0.5 L 34.159194774603506 0.5 L 34.159194774603506 -0.5 L 25 -0.5 Z M 79.7216947746035 0.5 L 88.88088954920701 0.5 L 88.88088954920701 3.5 L 95.88088954920701 0 L 88.88088954920701 -3.5 L 88.88088954920701 -0.5 L 79.7216947746035 -0.5 Z"/><text text-anchor="middle" pointer-events="none" font-size="8px" fill="#000000" x="56.940444774603506" y="3" font-family="sans-serif">ACTED_IN</text></g><g class="relationship" transform="translate(127.41517608697684 239.20608473573708) rotate(218.26190663160435)"><path class="outline" fill="#A5ABB6" stroke="none" d="M 25 0.5 L 47.99939433788991 0.5 L 47.99939433788991 -0.5 L 25 -0.5 Z M 93.56189433788991 0.5 L 116.56128867577982 0.5 L 116.56128867577982 3.5 L 123.56128867577982 0 L 116.56128867577982 -3.5 L 116.56128867577982 -0.5 L 93.56189433788991 -0.5 Z"/><text text-anchor="middle" pointer-events="none" font-size="8px" fill="#000000" x="70.78064433788991" y="3" transform="rotate(180 70.78064433788991 0)" font-family="sans-serif">ACTED_IN</text></g><g class="relationship" transform="translate(127.41517608697684 239.20608473573708) rotate(200.75136665777222)"><path class="outline" fill="#A5ABB6" stroke="none" d="M 25 0.5 L 26.87839742561038 0.5 L 26.87839742561038 -0.5 L 25 -0.5 Z M 67.99167867561039 0.5 L 69.87007610122076 0.5 L 69.87007610122076 3.5 L 76.87007610122076 0 L 69.87007610122076 -3.5 L 69.87007610122076 -0.5 L 67.99167867561039 -0.5 Z"/><text text-anchor="middle" pointer-events="none" font-size="8px" fill="#000000" x="47.43503805061038" y="3" transform="rotate(180 47.43503805061038 0)" font-family="sans-serif">ACTED…</text></g><g class="relationship" transform="translate(127.41517608697684 239.20608473573708) rotate(297.9560392436287)"><path class="outline" fill="#A5ABB6" stroke="none" d="M 25 0.5 L 43.84077036858167 0.5 L 43.84077036858167 -0.5 L 25 -0.5 Z M 89.40327036858167 0.5 L 108.24404073716335 0.5 L 108.24404073716335 3.5 L 115.24404073716335 0 L 108.24404073716335 -3.5 L 108.24404073716335 -0.5 L 89.40327036858167 -0.5 Z"/><text text-anchor="middle" pointer-events="none" font-size="8px" fill="#000000" x="66.62202036858167" y="3" font-family="sans-serif">ACTED_IN</text></g><g class="relationship" transform="translate(100.17839791575057 113.41536026635042) rotate(519.2959726164515)"><path class="outline" fill="#A5ABB6" stroke="none" d="M 25 0.5 L 26.624402456443768 0.5 L 26.624402456443768 -0.5 L 25 -0.5 Z M 61.96033995644377 0.5 L 63.584742412887536 0.5 L 63.584742412887536 3.5 L 70.58474241288754 0 L 63.584742412887536 -3.5 L 63.584742412887536 -0.5 L 61.96033995644377 -0.5 Z"/><text text-anchor="middle" pointer-events="none" font-size="8px" fill="#000000" x="44.29237120644377" y="3" transform="rotate(180 44.29237120644377 0)" font-family="sans-serif">ACTE…</text></g><g class="relationship" transform="translate(100.17839791575057 113.41536026635042) rotate(487.17611410857324)"><path class="outline" fill="#A5ABB6" stroke="none" d="M 25 0.5 L 30.005669529323768 0.5 L 30.005669529323768 -0.5 L 25 -0.5 Z M 75.56816952932377 0.5 L 80.57383905864754 0.5 L 80.57383905864754 3.5 L 87.57383905864754 0 L 80.57383905864754 -3.5 L 80.57383905864754 -0.5 L 75.56816952932377 -0.5 Z"/><text text-anchor="middle" pointer-events="none" font-size="8px" fill="#000000" x="52.78691952932377" y="3" transform="rotate(180 52.78691952932377 0)" font-family="sans-serif">ACTED_IN</text></g><g class="relationship" transform="translate(100.17839791575057 113.41536026635042) rotate(361.17807488153466)"><path class="outline" fill="#A5ABB6" stroke="none" d="M 25 0.5 L 25.333030138669606 0.5 L 25.333030138669606 -0.5 L 25 -0.5 Z M 60.668967638669606 0.5 L 61.00199777733921 0.5 L 61.00199777733921 3.5 L 68.00199777733921 0 L 61.00199777733921 -3.5 L 61.00199777733921 -0.5 L 60.668967638669606 -0.5 Z"/><text text-anchor="middle" pointer-events="none" font-size="8px" fill="#000000" x="43.000998888669606" y="3" font-family="sans-serif">ACTE…</text></g><g class="relationship" transform="translate(125.16593390336877 179.2778069852307) rotate(195.65968212408046)"><path class="outline" fill="#A5ABB6" stroke="none" d="M 25 0.5 L 33.123405295879884 0.5 L 33.123405295879884 -0.5 L 25 -0.5 Z M 78.68590529587988 0.5 L 86.80931059175977 0.5 L 86.80931059175977 3.5 L 93.80931059175977 0 L 86.80931059175977 -3.5 L 86.80931059175977 -0.5 L 78.68590529587988 -0.5 Z"/><text text-anchor="middle" pointer-events="none" font-size="8px" fill="#000000" x="55.904655295879884" y="3" transform="rotate(180 55.904655295879884 0)" font-family="sans-serif">ACTED_IN</text></g><g class="relationship" transform="translate(125.16593390336877 179.2778069852307) rotate(525.6272349994572)"><path class="outline" fill="#A5ABB6" stroke="none" d="M 25 0.5 L 26.840739060075833 0.5 L 26.840739060075833 -0.5 L 25 -0.5 Z M 62.17667656007583 0.5 L 64.01741562015167 0.5 L 64.01741562015167 3.5 L 71.01741562015167 0 L 64.01741562015167 -3.5 L 64.01741562015167 -0.5 L 62.17667656007583 -0.5 Z"/><text text-anchor="middle" pointer-events="none" font-size="8px" fill="#000000" x="44.50870781007583" y="3" transform="rotate(180 44.50870781007583 0)" font-family="sans-serif">ACTE…</text></g><g class="relationship" transform="translate(125.16593390336877 179.2778069852307) rotate(316.75571524544165)"><path class="outline" fill="#A5ABB6" stroke="none" d="M 25 0.5 L 25.503594818286466 0.5 L 25.503594818286466 -0.5 L 25 -0.5 Z M 60.839532318286466 0.5 L 61.34312713657293 0.5 L 61.34312713657293 3.5 L 68.34312713657293 0 L 61.34312713657293 -3.5 L 61.34312713657293 -0.5 L 60.839532318286466 -0.5 Z"/><text text-anchor="middle" pointer-events="none" font-size="8px" fill="#000000" x="43.171563568286466" y="3" font-family="sans-serif">ACTE…</text></g><g class="relationship" transform="translate(68.06909717300302 56.088940456273335) rotate(318.5693078274253)"><path class="outline" fill="#A5ABB6" stroke="none" d="M 25 0.5 L 38.27231387509862 0.5 L 38.27231387509862 -0.5 L 25 -0.5 Z M 83.83481387509862 0.5 L 97.10712775019724 0.5 L 97.10712775019724 3.5 L 104.10712775019724 0 L 97.10712775019724 -3.5 L 97.10712775019724 -0.5 L 83.83481387509862 -0.5 Z"/><text text-anchor="middle" pointer-events="none" font-size="8px" fill="#000000" x="61.05356387509862" y="3" font-family="sans-serif">ACTED_IN</text></g><g class="relationship" transform="translate(68.06909717300302 56.088940456273335) rotate(276.5081786022297)"><path class="outline" fill="#A5ABB6" stroke="none" d="M 25 0.5 L 36.463221828251534 0.5 L 36.463221828251534 -0.5 L 25 -0.5 Z M 82.02572182825153 0.5 L 93.48894365650307 0.5 L 93.48894365650307 3.5 L 100.48894365650307 0 L 93.48894365650307 -3.5 L 93.48894365650307 -0.5 L 82.02572182825153 -0.5 Z"/><text text-anchor="middle" pointer-events="none" font-size="8px" fill="#000000" x="59.244471828251534" y="3" font-family="sans-serif">ACTED_IN</text></g><g class="relationship" transform="translate(68.06909717300302 56.088940456273335) rotate(233.5346348770189)"><path class="outline" fill="#A5ABB6" stroke="none" d="M 25 0.5 L 35.708914290222765 0.5 L 35.708914290222765 -0.5 L 25 -0.5 Z M 81.27141429022276 0.5 L 91.98032858044553 0.5 L 91.98032858044553 3.5 L 98.98032858044553 0 L 91.98032858044553 -3.5 L 91.98032858044553 -0.5 L 81.27141429022276 -0.5 Z"/><text text-anchor="middle" pointer-events="none" font-size="8px" fill="#000000" x="58.490164290222765" y="3" transform="rotate(180 58.490164290222765 0)" font-family="sans-serif">ACTED_IN</text></g><g class="relationship" transform="translate(68.06909717300302 56.088940456273335) rotate(189.96406269600487)"><path class="outline" fill="#A5ABB6" stroke="none" d="M 25 0.5 L 36.52425900370595 0.5 L 36.52425900370595 -0.5 L 25 -0.5 Z M 82.08675900370595 0.5 L 93.6110180074119 0.5 L 93.6110180074119 3.5 L 100.6110180074119 0 L 93.6110180074119 -3.5 L 93.6110180074119 -0.5 L 82.08675900370595 -0.5 Z"/><text text-anchor="middle" pointer-events="none" font-size="8px" fill="#000000" x="59.30550900370595" y="3" transform="rotate(180 59.30550900370595 0)" font-family="sans-serif">ACTED_IN</text></g><g class="relationship" transform="translate(68.06909717300302 56.088940456273335) rotate(482.16463521941574)"><path class="outline" fill="#A5ABB6" stroke="none" d="M 25 0.5 L 27.538683793918075 0.5 L 27.538683793918075 -0.5 L 25 -0.5 Z M 73.10118379391807 0.5 L 75.63986758783615 0.5 L 75.63986758783615 3.5 L 82.63986758783615 0 L 75.63986758783615 -3.5 L 75.63986758783615 -0.5 L 73.10118379391807 -0.5 Z"/><text text-anchor="middle" pointer-events="none" font-size="8px" fill="#000000" x="50.319933793918075" y="3" transform="rotate(180 50.319933793918075 0)" font-family="sans-serif">ACTED_IN</text></g><g class="relationship" transform="translate(68.06909717300302 56.088940456273335) rotate(463.7275698388303)"><path class="outline" fill="#A5ABB6" stroke="none" d="M 25 0.5 L 49.39196038582756 0.5 L 49.39196038582756 -0.5 L 25 -0.5 Z M 94.95446038582756 0.5 L 119.34642077165512 0.5 L 119.34642077165512 3.5 L 126.34642077165512 0 L 119.34642077165512 -3.5 L 119.34642077165512 -0.5 L 94.95446038582756 -0.5 Z"/><text text-anchor="middle" pointer-events="none" font-size="8px" fill="#000000" x="72.17321038582756" y="3" transform="rotate(180 72.17321038582756 0)" font-family="sans-serif">ACTED_IN</text></g><g class="relationship" transform="translate(68.06909717300302 56.088940456273335) rotate(385.34041123354325)"><path class="outline" fill="#A5ABB6" stroke="none" d="M 25 0.5 L 42.923376584901504 0.5 L 42.923376584901504 -0.5 L 25 -0.5 Z M 88.4858765849015 0.5 L 106.40925316980301 0.5 L 106.40925316980301 3.5 L 113.40925316980301 0 L 106.40925316980301 -3.5 L 106.40925316980301 -0.5 L 88.4858765849015 -0.5 Z"/><text text-anchor="middle" pointer-events="none" font-size="8px" fill="#000000" x="65.7046265849015" y="3" font-family="sans-serif">ACTED_IN</text></g></g><g class="layer nodes"><g class="node" transform="translate(117.11593930255393,353.8449193706873)"><circle class="outline" cx="0" cy="0" r="25" fill="#57C7E3" stroke="#23b3d7" stroke-width="2px"/><text text-anchor="middle" pointer-events="none" font-family="sans-serif" dy="1.5625" font-size="25" fill="#2A2C34"/><text text-anchor="middle" pointer-events="none" font-family="sans-serif" dy="1.5625" font-size="25" fill="#2A2C34"/><text text-anchor="middle" pointer-events="none" x="0" y="0" font-size="10px" fill="#2A2C34" font-family="sans-serif"> Cloud</text><text text-anchor="middle" pointer-events="none" x="0" y="10" font-size="10px" fill="#2A2C34" font-family="sans-serif"> Atlas</text></g><g class="node" transform="translate(127.41517608697684,239.20608473573708)"><circle class="outline" cx="0" cy="0" r="25" fill="#F79767" stroke="#f36924" stroke-width="2px"/><text text-anchor="middle" pointer-events="none" font-family="sans-serif" dy="1.5625" font-size="25" fill="#FFFFFF"/><text text-anchor="middle" pointer-events="none" font-family="sans-serif" dy="1.5625" font-size="25" fill="#FFFFFF"/><text text-anchor="middle" pointer-events="none" x="0" y="0" font-size="10px" fill="#FFFFFF" font-family="sans-serif"> Hugo</text><text text-anchor="middle" pointer-events="none" x="0" y="10" font-size="10px" fill="#FFFFFF" font-family="sans-serif"> Weaving</text></g><g class="node" transform="translate(240.65901983982076,281.49108574423957)"><circle class="outline" cx="0" cy="0" r="25" fill="#57C7E3" stroke="#23b3d7" stroke-width="2px"/><text text-anchor="middle" pointer-events="none" font-family="sans-serif" dy="1.5625" font-size="25" fill="#2A2C34"/><text text-anchor="middle" pointer-events="none" font-family="sans-serif" dy="1.5625" font-size="25" fill="#2A2C34"/><text text-anchor="middle" pointer-events="none" x="0" y="0" font-size="10px" fill="#2A2C34" font-family="sans-serif"> V for</text><text text-anchor="middle" pointer-events="none" x="0" y="10" font-size="10px" fill="#2A2C34" font-family="sans-serif"> Vendetta</text></g><g class="node" transform="translate(10.766596319670347,147.20844709607417)"><circle class="outline" cx="0" cy="0" r="25" fill="#57C7E3" stroke="#23b3d7" stroke-width="2px"/><text text-anchor="middle" pointer-events="none" font-family="sans-serif" dy="1.5625" font-size="25" fill="#2A2C34"/><text text-anchor="middle" pointer-events="none" font-family="sans-serif" dy="1.5625" font-size="25" fill="#2A2C34"/><text text-anchor="middle" pointer-events="none" font-family="sans-serif" dy="1.5625" font-size="25" fill="#2A2C34"/><text text-anchor="middle" pointer-events="none" x="0" y="-5" font-size="10px" fill="#2A2C34" font-family="sans-serif"> The</text><text text-anchor="middle" pointer-events="none" x="0" y="5" font-size="10px" fill="#2A2C34" font-family="sans-serif"> Matrix</text><text text-anchor="middle" pointer-events="none" x="0" y="15" font-size="10px" fill="#2A2C34" font-family="sans-serif"> Revol…</text></g><g class="node" transform="translate(32.15374202105216,203.11215748236114)"><circle class="outline" cx="0" cy="0" r="25" fill="#57C7E3" stroke="#23b3d7" stroke-width="2px"/><text text-anchor="middle" pointer-events="none" font-family="sans-serif" dy="1.5625" font-size="25" fill="#2A2C34"/><text text-anchor="middle" pointer-events="none" font-family="sans-serif" dy="1.5625" font-size="25" fill="#2A2C34"/><text text-anchor="middle" pointer-events="none" font-family="sans-serif" dy="1.5625" font-size="25" fill="#2A2C34"/><text text-anchor="middle" pointer-events="none" x="0" y="-5" font-size="10px" fill="#2A2C34" font-family="sans-serif"> The</text><text text-anchor="middle" pointer-events="none" x="0" y="5" font-size="10px" fill="#2A2C34" font-family="sans-serif"> Matrix</text><text text-anchor="middle" pointer-events="none" x="0" y="15" font-size="10px" fill="#2A2C34" font-family="sans-serif"> Reloa…</text></g><g class="node" transform="translate(100.17839791575057,113.41536026635042)"><circle class="outline" cx="0" cy="0" r="25" fill="#F79767" stroke="#f36924" stroke-width="2px"/><text text-anchor="middle" pointer-events="none" font-family="sans-serif" dy="1.5625" font-size="25" fill="#FFFFFF"/><text text-anchor="middle" pointer-events="none" font-family="sans-serif" dy="1.5625" font-size="25" fill="#FFFFFF"/><text text-anchor="middle" pointer-events="none" x="0" y="0" font-size="10px" fill="#FFFFFF" font-family="sans-serif"> Laurence</text><text text-anchor="middle" pointer-events="none" x="0" y="10" font-size="10px" fill="#FFFFFF" font-family="sans-serif"> Fishbur…</text></g><g class="node" transform="translate(125.16593390336877,179.2778069852307)"><circle class="outline" cx="0" cy="0" r="25" fill="#F79767" stroke="#f36924" stroke-width="2px"/><text text-anchor="middle" pointer-events="none" font-family="sans-serif" dy="1.5625" font-size="25" fill="#FFFFFF"/><text text-anchor="middle" pointer-events="none" x="0" y="5" font-size="10px" fill="#FFFFFF" font-family="sans-serif"> Carrie-A…</text></g><g class="node" transform="translate(164.86803262065447,-29.343000479814258)"><circle class="outline" cx="0" cy="0" r="25" fill="#57C7E3" stroke="#23b3d7" stroke-width="2px"/><text text-anchor="middle" pointer-events="none" font-family="sans-serif" dy="1.5625" font-size="25" fill="#2A2C34"/><text text-anchor="middle" pointer-events="none" x="0" y="5" font-size="10px" fill="#2A2C34" font-family="sans-serif"> Somethi…</text></g><g class="node" transform="translate(68.06909717300302,56.088940456273335)"><circle class="outline" cx="0" cy="0" r="25" fill="#F79767" stroke="#f36924" stroke-width="2px"/><text text-anchor="middle" pointer-events="none" font-family="sans-serif" dy="1.5625" font-size="25" fill="#FFFFFF"/><text text-anchor="middle" pointer-events="none" font-family="sans-serif" dy="1.5625" font-size="25" fill="#FFFFFF"/><text text-anchor="middle" pointer-events="none" x="0" y="0" font-size="10px" fill="#FFFFFF" font-family="sans-serif"> Keanu</text><text text-anchor="middle" pointer-events="none" x="0" y="10" font-size="10px" fill="#FFFFFF" font-family="sans-serif"> Reeves</text></g><g class="node" transform="translate(82.2926463325089,-68.59131310992744)"><circle class="outline" cx="0" cy="0" r="25" fill="#57C7E3" stroke="#23b3d7" stroke-width="2px"/><text text-anchor="middle" pointer-events="none" font-family="sans-serif" dy="1.5625" font-size="25" fill="#2A2C34"/><text text-anchor="middle" pointer-events="none" font-family="sans-serif" dy="1.5625" font-size="25" fill="#2A2C34"/><text text-anchor="middle" pointer-events="none" x="0" y="0" font-size="10px" fill="#2A2C34" font-family="sans-serif"> The</text><text text-anchor="middle" pointer-events="none" x="0" y="10" font-size="10px" fill="#2A2C34" font-family="sans-serif"> Replac…</text></g><g class="node" transform="translate(-5.6169686952809235,-43.61805815350411)"><circle class="outline" cx="0" cy="0" r="25" fill="#57C7E3" stroke="#23b3d7" stroke-width="2px"/><text text-anchor="middle" pointer-events="none" font-family="sans-serif" dy="1.5625" font-size="25" fill="#2A2C34"/><text text-anchor="middle" pointer-events="none" font-family="sans-serif" dy="1.5625" font-size="25" fill="#2A2C34"/><text text-anchor="middle" pointer-events="none" x="0" y="0" font-size="10px" fill="#2A2C34" font-family="sans-serif"> Johnny</text><text text-anchor="middle" pointer-events="none" x="0" y="10" font-size="10px" fill="#2A2C34" font-family="sans-serif"> Mnemo…</text></g><g class="node" transform="translate(-55.64726398458,34.35440970944461)"><circle class="outline" cx="0" cy="0" r="25" fill="#57C7E3" stroke="#23b3d7" stroke-width="2px"/><text text-anchor="middle" pointer-events="none" font-family="sans-serif" dy="1.5625" font-size="25" fill="#2A2C34"/><text text-anchor="middle" pointer-events="none" font-family="sans-serif" dy="1.5625" font-size="25" fill="#2A2C34"/><text text-anchor="middle" pointer-events="none" font-family="sans-serif" dy="1.5625" font-size="25" fill="#2A2C34"/><text text-anchor="middle" pointer-events="none" x="0" y="-5" font-size="10px" fill="#2A2C34" font-family="sans-serif"> The</text><text text-anchor="middle" pointer-events="none" x="0" y="5" font-size="10px" fill="#2A2C34" font-family="sans-serif"> Devil's</text><text text-anchor="middle" pointer-events="none" x="0" y="15" font-size="10px" fill="#2A2C34" font-family="sans-serif"> Advoc…</text></g><g class="node" transform="translate(193.160737322893,115.32746616069191)"><circle class="outline" cx="0" cy="0" r="25" fill="#57C7E3" stroke="#23b3d7" stroke-width="2px"/><text text-anchor="middle" pointer-events="none" font-family="sans-serif" dy="1.5625" font-size="25" fill="#2A2C34"/><text text-anchor="middle" pointer-events="none" font-family="sans-serif" dy="1.5625" font-size="25" fill="#2A2C34"/><text text-anchor="middle" pointer-events="none" x="0" y="0" font-size="10px" fill="#2A2C34" font-family="sans-serif"> The</text><text text-anchor="middle" pointer-events="none" x="0" y="10" font-size="10px" fill="#2A2C34" font-family="sans-serif"> Matrix</text></g></g></svg>