<svg xmlns="http://www.w3.org/2000/svg" width="327.0880126953125" height="430.81195068359375" viewBox="-64.71599578857422 -140.75677490234375 327.0880126953125 430.81195068359375"><title>Neo4j Graph Visualization</title><desc>Created using Neo4j (http://www.neo4j.com/)</desc><g class="layer relationships"><g class="relationship" transform="translate(106.01408875437691 96.12421717798506) rotate(427.647963559429)"><path class="outline" fill="#A5ABB6" stroke="none" d="M 25 0.5 L 26.924965416465128 0.5 L 26.924965416465128 -0.5 L 25 -0.5 Z M 68.03824666646513 0.5 L 69.96321208293026 0.5 L 69.96321208293026 3.5 L 76.96321208293026 0 L 69.96321208293026 -3.5 L 69.96321208293026 -0.5 L 68.03824666646513 -0.5 Z"/><text text-anchor="middle" pointer-events="none" font-size="8px" fill="#000000" x="47.48160604146513" y="3" font-family="sans-serif">ACTED…</text></g><g class="relationship" transform="translate(106.01408875437691 96.12421717798506) rotate(257.50010197601705)"><path class="outline" fill="#A5ABB6" stroke="none" d="M 25 0.5 L 25.558076977259873 0.5 L 25.558076977259873 -0.5 L 25 -0.5 Z M 66.67135822725987 0.5 L 67.22943520451975 0.5 L 67.22943520451975 3.5 L 74.22943520451975 0 L 67.22943520451975 -3.5 L 67.22943520451975 -0.5 L 66.67135822725987 -0.5 Z"/><text text-anchor="middle" pointer-events="none" font-size="8px" fill="#000000" x="46.11471760225987" y="3" transform="rotate(180 46.11471760225987 0)" font-family="sans-serif">ACTED…</text></g><g class="relationship" transform="translate(106.01408875437691 96.12421717798506) rotate(498.8067671410771)"><path class="outline" fill="#A5ABB6" stroke="none" d="M 25 0.5 L 44.28650147446193 0.5 L 44.28650147446193 -0.5 L 25 -0.5 Z M 89.84900147446193 0.5 L 109.13550294892386 0.5 L 109.13550294892386 3.5 L 116.13550294892386 0 L 109.13550294892386 -3.5 L 109.13550294892386 -0.5 L 89.84900147446193 -0.5 Z"/><text text-anchor="middle" pointer-events="none" font-size="8px" fill="#000000" x="67.06775147446193" y="3" transform="rotate(180 67.06775147446193 0)" font-family="sans-serif">ACTED_IN</text></g><g class="relationship" transform="translate(106.01408875437691 96.12421717798506) rotate(342.5619089001377)"><path class="outline" fill="#A5ABB6" stroke="none" d="M 25 0.5 L 25.23317148253617 0.5 L 25.23317148253617 -0.5 L 25 -0.5 Z M 44.56910898253617 0.5 L 44.80228046507234 0.5 L 44.80228046507234 3.5 L 51.80228046507234 0 L 44.80228046507234 -3.5 L 44.80228046507234 -0.5 L 44.56910898253617 -0.5 Z"/><text text-anchor="middle" pointer-events="none" font-size="8px" fill="#000000" x="34.90114023253617" y="3" font-family="sans-serif">A…</text></g><g class="relationship" transform="translate(106.01408875437691 96.12421717798506) rotate(181.04797352401692)"><path class="outline" fill="#A5ABB6" stroke="none" d="M 25 0.5 L 44.59564714417954 0.5 L 44.59564714417954 -0.5 L 25 -0.5 Z M 90.15814714417954 0.5 L 109.75379428835907 0.5 L 109.75379428835907 3.5 L 116.75379428835907 0 L 109.75379428835907 -3.5 L 109.75379428835907 -0.5 L 90.15814714417954 -0.5 Z"/><text text-anchor="middle" pointer-events="none" font-size="8px" fill="#000000" x="67.37689714417954" y="3" transform="rotate(180 67.37689714417954 0)" font-family="sans-serif">ACTED_IN</text></g><g class="relationship" transform="translate(233.3720137222541 261.0551615096627) rotate(218.5663768297772)"><path class="outline" fill="#A5ABB6" stroke="none" d="M 25 0.5 L 29.70082451076707 0.5 L 29.70082451076707 -0.5 L 25 -0.5 Z M 76.59144951076706 0.5 L 81.29227402153414 0.5 L 81.29227402153414 3.5 L 88.29227402153414 0 L 81.29227402153414 -3.5 L 81.29227402153414 -0.5 L 76.59144951076706 -0.5 Z"/><text text-anchor="middle" pointer-events="none" font-size="8px" fill="#000000" x="53.14613701076707" y="3" transform="rotate(180 53.14613701076707 0)" font-family="sans-serif">DIRECTED</text></g><g class="relationship" transform="translate(47.358471361669054 85.10866244657775) rotate(293.4128680146413)"><path class="outline" fill="#A5ABB6" stroke="none" d="M 24.018736134675446,6.953439040707552 L 24.277555179777966,5.987513214418485 A 78.7151390412646 78.7151390412646 0 0 0 24.999772147301172,6.177363571687337 L 24.75012817291973,7.145701263845936 A 79.7151390412646 79.7151390412646 0 0 1 24.018736134675446,6.953439040707552 Z M 61.75098864211262,7.813873659984381 L 61.53646908477094,6.83715396656261 A 78.7151390412646 78.7151390412646 0 0 0 62.265069684763645,6.673502898665793 L 61.593742506875564,3.7495809058231626 L 69.19944219771114,5.594393149067369 L 63.16017258861442,10.572065555789301 L 62.48884541072634,7.64814356294667 A 79.7151390412646 79.7151390412646 0 0 1 61.75098864211262,7.813873659984381"/><text text-anchor="middle" pointer-events="none" font-size="8px" fill="#000000" x="43.22027526111509" y="12.15675358776899" font-family="sans-serif">PROD…</text></g><g class="relationship" transform="translate(47.358471361669054 85.10866244657775) rotate(293.4128680146413)"><path class="outline" fill="#A5ABB6" stroke="none" d="M 24.018736134675446,-6.953439040707552 L 24.277555179777966,-5.987513214418485 A 78.7151390412646 78.7151390412646 0 0 1 25.645083167428332,-6.340822191257672 L 25.403637247804678,-7.311236467686598 A 79.7151390412646 79.7151390412646 0 0 0 24.018736134675446,-6.953439040707552 Z M 61.09192903187793,-7.955706113340028 L 60.885677158920444,-6.977207178797158 A 78.7151390412646 78.7151390412646 0 0 1 62.265069684763645,-6.673502898665793 L 61.593742506875564,-3.7495809058231626 L 69.19944219771114,-5.594393149067369 L 63.16017258861442,-10.572065555789301 L 62.48884541072634,-7.64814356294667 A 79.7151390412646 79.7151390412646 0 0 0 61.09192903187793,-7.955706113340028"/><text text-anchor="middle" pointer-events="none" font-size="8px" fill="#000000" x="43.22027526111508" y="-6.156753587768989" font-family="sans-serif">WROTE</text></g><g class="relationship" transform="translate(47.358471361669054 85.10866244657775) rotate(407.2273792121593)"><path class="outline" fill="#A5ABB6" stroke="none" d="M 25 0.5 L 44.79168912229366 0.5 L 44.79168912229366 -0.5 L 25 -0.5 Z M 91.68231412229366 0.5 L 111.47400324458732 0.5 L 111.47400324458732 3.5 L 118.47400324458732 0 L 111.47400324458732 -3.5 L 111.47400324458732 -0.5 L 91.68231412229366 -0.5 Z"/><text text-anchor="middle" pointer-events="none" font-size="8px" fill="#000000" x="68.23700162229366" y="3" font-family="sans-serif">DIRECTED</text></g><g class="relationship" transform="translate(47.358471361669054 85.10866244657775) rotate(474.57620871015035)"><path class="outline" fill="#A5ABB6" stroke="none" d="M 25 0.5 L 30.216807697158572 0.5 L 30.216807697158572 -0.5 L 25 -0.5 Z M 77.10743269715857 0.5 L 82.32424039431714 0.5 L 82.32424039431714 3.5 L 89.32424039431714 0 L 82.32424039431714 -3.5 L 82.32424039431714 -0.5 L 77.10743269715857 -0.5 Z"/><text text-anchor="middle" pointer-events="none" font-size="8px" fill="#000000" x="53.66212019715857" y="3" transform="rotate(180 53.66212019715857 0)" font-family="sans-serif">DIRECTED</text></g><g class="relationship" transform="translate(47.358471361669054 85.10866244657775) rotate(354.8026816308068)"><path class="outline" fill="#A5ABB6" stroke="none" d="M 25 0.5 L 39.291092102998746 0.5 L 39.291092102998746 -0.5 L 25 -0.5 Z M 86.18171710299875 0.5 L 100.47280920599749 0.5 L 100.47280920599749 3.5 L 107.47280920599749 0 L 100.47280920599749 -3.5 L 100.47280920599749 -0.5 L 86.18171710299875 -0.5 Z"/><text text-anchor="middle" pointer-events="none" font-size="8px" fill="#000000" x="62.736404602998746" y="3" font-family="sans-serif">DIRECTED</text></g><g class="relationship" transform="translate(47.358471361669054 85.10866244657775) rotate(534.2105522717552)"><path class="outline" fill="#A5ABB6" stroke="none" d="M 25 0.5 L 27.250188030618965 0.5 L 27.250188030618965 -0.5 L 25 -0.5 Z M 49.250188030618965 0.5 L 51.50037606123793 0.5 L 51.50037606123793 3.5 L 58.50037606123793 0 L 51.50037606123793 -3.5 L 51.50037606123793 -0.5 L 49.250188030618965 -0.5 Z"/><text text-anchor="middle" pointer-events="none" font-size="8px" fill="#000000" x="38.250188030618965" y="3" transform="rotate(180 38.250188030618965 0)" font-family="sans-serif">DI…</text></g><g class="relationship" transform="translate(67.2191556797801 141.5209342721769) rotate(276.94003297448063)"><path class="outline" fill="#A5ABB6" stroke="none" d="M 24.018736134675446,6.953439040707552 L 24.277555179777966,5.987513214418485 A 177.7016849460641 177.7016849460641 0 0 0 42.4224232013495,9.846973785981731 L 42.26571274360832,10.834618374097602 A 178.7016849460641 178.7016849460641 0 0 1 24.018736134675446,6.953439040707552 Z M 94.00599059783175,11.459192306449722 L 93.87316669628675,10.468052653737573 A 177.7016849460641 177.7016849460641 0 0 0 112.10591152057106,7.047718226195738 L 111.39963049781133,4.132042126748221 L 119.02686925640855,5.885675189664315 L 113.04761955091735,10.935286358792428 L 112.34133852815762,8.01961025934491 A 178.7016849460641 178.7016849460641 0 0 1 94.00599059783175,11.459192306449722"/><text text-anchor="middle" pointer-events="none" font-size="8px" fill="#000000" x="68.11916107985249" y="15.529569208082421" font-family="sans-serif">PRODUCED</text></g><g class="relationship" transform="translate(67.2191556797801 141.5209342721769) rotate(276.94003297448063)"><path class="outline" fill="#A5ABB6" stroke="none" d="M 24.018736134675446,-6.953439040707552 L 24.277555179777966,-5.987513214418485 A 177.7016849460641 177.7016849460641 0 0 1 50.33069230598914,-10.920331277677406 L 50.2184849102591,-11.914016087032707 A 178.7016849460641 178.7016849460641 0 0 0 24.018736134675446,-6.953439040707552 Z M 86.02948006783794,-12.346302402348414 L 85.94129206624206,-11.350198554160613 A 177.7016849460641 177.7016849460641 0 0 1 112.10591152057106,-7.047718226195738 L 111.39963049781133,-4.132042126748221 L 119.02686925640855,-5.885675189664315 L 113.04761955091735,-10.935286358792428 L 112.34133852815762,-8.01961025934491 A 178.7016849460641 178.7016849460641 0 0 0 86.02948006783794,-12.346302402348414"/><text text-anchor="middle" pointer-events="none" font-size="8px" fill="#000000" x="68.11916107985239" y="-9.529569208082421" font-family="sans-serif">WROTE</text></g><g class="relationship" transform="translate(67.2191556797801 141.5209342721769) rotate(392.2297616032512)"><path class="outline" fill="#A5ABB6" stroke="none" d="M 25 0.5 L 25.793739545549805 0.5 L 25.793739545549805 -0.5 L 25 -0.5 Z M 58.907020795549805 0.5 L 59.70076034109961 0.5 L 59.70076034109961 3.5 L 66.70076034109961 0 L 59.70076034109961 -3.5 L 59.70076034109961 -0.5 L 58.907020795549805 -0.5 Z"/><text text-anchor="middle" pointer-events="none" font-size="8px" fill="#000000" x="42.350380170549805" y="3" font-family="sans-serif">DIRE…</text></g><g class="relationship" transform="translate(67.2191556797801 141.5209342721769) rotate(504.7978771847546)"><path class="outline" fill="#A5ABB6" stroke="none" d="M 25 0.5 L 26.74743648611595 0.5 L 26.74743648611595 -0.5 L 25 -0.5 Z M 48.74743648611595 0.5 L 50.4948729722319 0.5 L 50.4948729722319 3.5 L 57.4948729722319 0 L 50.4948729722319 -3.5 L 50.4948729722319 -0.5 L 48.74743648611595 -0.5 Z"/><text text-anchor="middle" pointer-events="none" font-size="8px" fill="#000000" x="37.74743648611595" y="3" transform="rotate(180 37.74743648611595 0)" font-family="sans-serif">DI…</text></g><g class="relationship" transform="translate(67.2191556797801 141.5209342721769) rotate(328.59770302830105)"><path class="outline" fill="#A5ABB6" stroke="none" d="M 25 0.5 L 38.70410421122928 0.5 L 38.70410421122928 -0.5 L 25 -0.5 Z M 85.59472921122928 0.5 L 99.29883342245856 0.5 L 99.29883342245856 3.5 L 106.29883342245856 0 L 99.29883342245856 -3.5 L 99.29883342245856 -0.5 L 85.59472921122928 -0.5 Z"/><text text-anchor="middle" pointer-events="none" font-size="8px" fill="#000000" x="62.14941671122928" y="3" font-family="sans-serif">DIRECTED</text></g><g class="relationship" transform="translate(67.2191556797801 141.5209342721769) rotate(204.99537472777672)"><path class="outline" fill="#A5ABB6" stroke="none" d="M 25 0.5 L 29.84073604655717 0.5 L 29.84073604655717 -0.5 L 25 -0.5 Z M 76.73136104655717 0.5 L 81.57209709311434 0.5 L 81.57209709311434 3.5 L 88.57209709311434 0 L 81.57209709311434 -3.5 L 81.57209709311434 -0.5 L 76.73136104655717 -0.5 Z"/><text text-anchor="middle" pointer-events="none" font-size="8px" fill="#000000" x="53.28604854655717" y="3" transform="rotate(180 53.28604854655717 0)" font-family="sans-serif">DIRECTED</text></g><g class="relationship" transform="translate(105.79704017095294 -111.75677157490857) rotate(460.842268038357)"><path class="outline" fill="#A5ABB6" stroke="none" d="M 25 0.5 L 29.565297141453264 0.5 L 29.565297141453264 -0.5 L 25 -0.5 Z M 76.45592214145327 0.5 L 81.02121928290653 0.5 L 81.02121928290653 3.5 L 88.02121928290653 0 L 81.02121928290653 -3.5 L 81.02121928290653 -0.5 L 76.45592214145327 -0.5 Z"/><text text-anchor="middle" pointer-events="none" font-size="8px" fill="#000000" x="53.010609641453264" y="3" transform="rotate(180 53.010609641453264 0)" font-family="sans-serif">DIRECTED</text></g></g><g class="layer nodes"><g class="node" transform="translate(106.01408875437691,96.12421717798506)"><circle class="outline" cx="0" cy="0" r="25" fill="#F79767" stroke="#f36924" stroke-width="2px"/><text text-anchor="middle" pointer-events="none" font-family="sans-serif" dy="1.5625" font-size="25" fill="#FFFFFF"/><text text-anchor="middle" pointer-events="none" font-family="sans-serif" dy="1.5625" font-size="25" fill="#FFFFFF"/><text text-anchor="middle" pointer-events="none" x="0" y="0" font-size="10px" fill="#FFFFFF" font-family="sans-serif"> Hugo</text><text text-anchor="middle" pointer-events="none" x="0" y="10" font-size="10px" fill="#FFFFFF" font-family="sans-serif"> Weaving</text></g><g class="node" transform="translate(144.79031952265032,190.42639395919315)"><circle class="outline" cx="0" cy="0" r="25" fill="#57C7E3" stroke="#23b3d7" stroke-width="2px"/><text text-anchor="middle" pointer-events="none" font-family="sans-serif" dy="1.5625" font-size="25" fill="#2A2C34"/><text text-anchor="middle" pointer-events="none" font-family="sans-serif" dy="1.5625" font-size="25" fill="#2A2C34"/><text text-anchor="middle" pointer-events="none" x="0" y="0" font-size="10px" fill="#2A2C34" font-family="sans-serif"> Cloud</text><text text-anchor="middle" pointer-events="none" x="0" y="10" font-size="10px" fill="#2A2C34" font-family="sans-serif"> Atlas</text></g><g class="node" transform="translate(233.3720137222541,261.0551615096627)"><circle class="outline" cx="0" cy="0" r="25" fill="#F79767" stroke="#f36924" stroke-width="2px"/><text text-anchor="middle" pointer-events="none" font-family="sans-serif" dy="1.5625" font-size="25" fill="#FFFFFF"/><text text-anchor="middle" pointer-events="none" font-family="sans-serif" dy="1.5625" font-size="25" fill="#FFFFFF"/><text text-anchor="middle" pointer-events="none" x="0" y="0" font-size="10px" fill="#FFFFFF" font-family="sans-serif"> Tom</text><text text-anchor="middle" pointer-events="none" x="0" y="10" font-size="10px" fill="#FFFFFF" font-family="sans-serif"> Tykwer</text></g><g class="node" transform="translate(47.358471361669054,85.10866244657775)"><circle class="outline" cx="0" cy="0" r="25" fill="#F79767" stroke="#f36924" stroke-width="2px"/><text text-anchor="middle" pointer-events="none" font-family="sans-serif" dy="1.5625" font-size="25" fill="#FFFFFF"/><text text-anchor="middle" pointer-events="none" font-family="sans-serif" dy="1.5625" font-size="25" fill="#FFFFFF"/><text text-anchor="middle" pointer-events="none" x="0" y="0" font-size="10px" fill="#FFFFFF" font-family="sans-serif"> Lana</text><text text-anchor="middle" pointer-events="none" x="0" y="10" font-size="10px" fill="#FFFFFF" font-family="sans-serif"> Wacho…</text></g><g class="node" transform="translate(67.2191556797801,141.5209342721769)"><circle class="outline" cx="0" cy="0" r="25" fill="#F79767" stroke="#f36924" stroke-width="2px"/><text text-anchor="middle" pointer-events="none" font-family="sans-serif" dy="1.5625" font-size="25" fill="#FFFFFF"/><text text-anchor="middle" pointer-events="none" font-family="sans-serif" dy="1.5625" font-size="25" fill="#FFFFFF"/><text text-anchor="middle" pointer-events="none" x="0" y="0" font-size="10px" fill="#FFFFFF" font-family="sans-serif"> Lilly</text><text text-anchor="middle" pointer-events="none" x="0" y="10" font-size="10px" fill="#FFFFFF" font-family="sans-serif"> Wacho…</text></g><g class="node" transform="translate(84.5370805313414,-0.7531224262570129)"><circle class="outline" cx="0" cy="0" r="25" fill="#57C7E3" stroke="#23b3d7" stroke-width="2px"/><text text-anchor="middle" pointer-events="none" font-family="sans-serif" dy="1.5625" font-size="25" fill="#2A2C34"/><text text-anchor="middle" pointer-events="none" font-family="sans-serif" dy="1.5625" font-size="25" fill="#2A2C34"/><text text-anchor="middle" pointer-events="none" x="0" y="0" font-size="10px" fill="#2A2C34" font-family="sans-serif"> V for</text><text text-anchor="middle" pointer-events="none" x="0" y="10" font-size="10px" fill="#2A2C34" font-family="sans-serif"> Vendetta</text></g><g class="node" transform="translate(105.79704017095294,-111.75677157490857)"><circle class="outline" cx="0" cy="0" r="25" fill="#F79767" stroke="#f36924" stroke-width="2px"/><text text-anchor="middle" pointer-events="none" font-family="sans-serif" dy="1.5625" font-size="25" fill="#FFFFFF"/><text text-anchor="middle" pointer-events="none" font-family="sans-serif" dy="1.5625" font-size="25" fill="#FFFFFF"/><text text-anchor="middle" pointer-events="none" x="0" y="0" font-size="10px" fill="#FFFFFF" font-family="sans-serif"> James</text><text text-anchor="middle" pointer-events="none" x="0" y="10" font-size="10px" fill="#FFFFFF" font-family="sans-serif"> Marshall</text></g><g class="node" transform="translate(-0.18934702859561034,189.07614249713984)"><circle class="outline" cx="0" cy="0" r="25" fill="#57C7E3" stroke="#23b3d7" stroke-width="2px"/><text text-anchor="middle" pointer-events="none" font-family="sans-serif" dy="1.5625" font-size="25" fill="#2A2C34"/><text text-anchor="middle" pointer-events="none" font-family="sans-serif" dy="1.5625" font-size="25" fill="#2A2C34"/><text text-anchor="middle" pointer-events="none" font-family="sans-serif" dy="1.5625" font-size="25" fill="#2A2C34"/><text text-anchor="middle" pointer-events="none" x="0" y="-5" font-size="10px" fill="#2A2C34" font-family="sans-serif"> The</text><text text-anchor="middle" pointer-events="none" x="0" y="5" font-size="10px" fill="#2A2C34" font-family="sans-serif"> Matrix</text><text text-anchor="middle" pointer-events="none" x="0" y="15" font-size="10px" fill="#2A2C34" font-family="sans-serif"> Revol…</text></g><g class="node" transform="translate(179.28663708301588,73.10848460083471)"><circle class="outline" cx="0" cy="0" r="25" fill="#57C7E3" stroke="#23b3d7" stroke-width="2px"/><text text-anchor="middle" pointer-events="none" font-family="sans-serif" dy="1.5625" font-size="25" fill="#2A2C34"/><text text-anchor="middle" pointer-events="none" font-family="sans-serif" dy="1.5625" font-size="25" fill="#2A2C34"/><text text-anchor="middle" pointer-events="none" font-family="sans-serif" dy="1.5625" font-size="25" fill="#2A2C34"/><text text-anchor="middle" pointer-events="none" x="0" y="-5" font-size="10px" fill="#2A2C34" font-family="sans-serif"> The</text><text text-anchor="middle" pointer-events="none" x="0" y="5" font-size="10px" fill="#2A2C34" font-family="sans-serif"> Matrix</text><text text-anchor="middle" pointer-events="none" x="0" y="15" font-size="10px" fill="#2A2C34" font-family="sans-serif"> Reloa…</text></g><g class="node" transform="translate(-35.715994639065165,93.5316014265901)"><circle class="outline" cx="0" cy="0" r="25" fill="#57C7E3" stroke="#23b3d7" stroke-width="2px"/><text text-anchor="middle" pointer-events="none" font-family="sans-serif" dy="1.5625" font-size="25" fill="#2A2C34"/><text text-anchor="middle" pointer-events="none" font-family="sans-serif" dy="1.5625" font-size="25" fill="#2A2C34"/><text text-anchor="middle" pointer-events="none" x="0" y="0" font-size="10px" fill="#2A2C34" font-family="sans-serif"> The</text><text text-anchor="middle" pointer-events="none" x="0" y="10" font-size="10px" fill="#2A2C34" font-family="sans-serif"> Matrix</text></g></g></svg>