<svg xmlns="http://www.w3.org/2000/svg" width="342.7049560546875" height="344.8985595703125" viewBox="-66.1253890991211 -87.86579895019531 342.7049560546875 344.8985595703125"><title>Neo4j Graph Visualization</title><desc>Created using Neo4j (http://www.neo4j.com/)</desc><g class="layer relationships"><g class="relationship" transform="translate(247.57955845542247 9.629798342488023) rotate(503.5034262128653)"><path class="outline" fill="#A5ABB6" stroke="none" d="M 25 0.5 L 30.630192180217257 0.5 L 30.630192180217257 -0.5 L 25 -0.5 Z M 65.07550468021725 0.5 L 70.70569686043451 0.5 L 70.70569686043451 3.5 L 77.70569686043451 0 L 70.70569686043451 -3.5 L 70.70569686043451 -0.5 L 65.07550468021725 -0.5 Z"/><text text-anchor="middle" pointer-events="none" font-size="8px" fill="#000000" x="47.85284843021726" y="3" transform="rotate(180 47.85284843021726 0)" font-family="sans-serif">ORIGIN</text></g><g class="relationship" transform="translate(247.57955845542247 9.629798342488023) rotate(203.96226761005397)"><path class="outline" fill="#A5ABB6" stroke="none" d="M 25 0.5 L 25.543957045950002 0.5 L 25.543957045950002 -0.5 L 25 -0.5 Z M 78.50880079595001 0.5 L 79.0527578419 0.5 L 79.0527578419 3.5 L 86.0527578419 0 L 79.0527578419 -3.5 L 79.0527578419 -0.5 L 78.50880079595001 -0.5 Z"/><text text-anchor="middle" pointer-events="none" font-size="8px" fill="#000000" x="52.02637892095" y="3" transform="rotate(180 52.02637892095 0)" font-family="sans-serif">DESTINAT…</text></g><g class="relationship" transform="translate(59.91931243865934 30.018852829309715) rotate(322.76702584111024)"><path class="outline" fill="#A5ABB6" stroke="none" d="M 5.987513214418485,-24.277555179777966 L 6.953439040707552,-24.018736134675446 A 46.92231078322747 46.92231078322747 0 0 1 22.350240672520652,-48.01432163756537 L 21.712448763227776,-48.78453036280843 A 47.92231078322747 47.92231078322747 0 0 0 5.987513214418485,-24.277555179777966 Z M 78.09309492362723,-52.24850493741062 L 77.55438584123311,-51.40601308311998 A 46.92231078322747 46.92231078322747 0 0 1 95.77283100604224,-29.475717145929686 L 92.99189890202055,-28.3503653641203 L 98.86214051426775,-23.174434200180663 L 99.48074047807114,-30.976186188342197 L 96.69980837404945,-29.85083440653281 A 47.92231078322747 47.92231078322747 0 0 0 78.09309492362723,-52.24850493741062"/><text text-anchor="middle" pointer-events="none" font-size="8px" fill="#000000" x="49.36881161019515" y="-56.20740793386833" font-family="sans-serif">CONNECTION</text></g><g class="relationship" transform="translate(2.0970123329905013 124.69181699311486) rotate(301.41484590972857)"><path class="outline" fill="#A5ABB6" stroke="none" d="M 5.987513214418485,24.277555179777966 L 6.953439040707552,24.018736134675446 A 48.36321512806668 48.36321512806668 0 0 0 23.57599468607554,49.362062180235164 L 22.953771312184458,50.14490192947098 A 49.36321512806668 49.36321512806668 0 0 1 5.987513214418485,24.277555179777966 Z M 79.54515713880839,53.53874223869462 L 79.02095223245468,52.687150073304 A 48.36321512806668 48.36321512806668 0 0 0 98.55320418702809,29.512062914504106 L 95.76899185791237,28.394851338122965 L 101.62406658677003,23.20176940929762 L 102.2654872925157,31.001678349678958 L 99.48127496339998,29.884466773297817 A 49.36321512806668 49.36321512806668 0 0 1 79.54515713880839,53.53874223869462"/><text text-anchor="middle" pointer-events="none" font-size="8px" fill="#000000" x="50.74359855967676" y="63.27699771478049" font-family="sans-serif">CONNECTION</text></g><g class="relationship" transform="translate(-37.12539033947121 222.52846626608485) rotate(291.84569289043463)"><path class="outline" fill="#A5ABB6" stroke="none" d="M 25 0.5 L 31.980301001853697 0.5 L 31.980301001853697 -0.5 L 25 -0.5 Z M 66.42561350185369 0.5 L 73.4059145037074 0.5 L 73.4059145037074 3.5 L 80.4059145037074 0 L 73.4059145037074 -3.5 L 73.4059145037074 -0.5 L 66.42561350185369 -0.5 Z"/><text text-anchor="middle" pointer-events="none" font-size="8px" fill="#000000" x="49.2029572518537" y="3" font-family="sans-serif">ORIGIN</text></g><g class="relationship" transform="translate(-37.12539033947121 222.52846626608485) rotate(357.95131576574374)"><path class="outline" fill="#A5ABB6" stroke="none" d="M 25 0.5 L 27.054123912415157 0.5 L 27.054123912415157 -0.5 L 25 -0.5 Z M 70.39006141241515 0.5 L 72.44418532483031 0.5 L 72.44418532483031 3.5 L 79.44418532483031 0 L 72.44418532483031 -3.5 L 72.44418532483031 -0.5 L 70.39006141241515 -0.5 Z"/><text text-anchor="middle" pointer-events="none" font-size="8px" fill="#000000" x="48.72209266241516" y="3" font-family="sans-serif">DESTIN…</text></g><g class="relationship" transform="translate(165.01522635401616 70.71655003412862) rotate(259.89897231342877)"><path class="outline" fill="#A5ABB6" stroke="none" d="M 21.40063509461097,-12.933012701892217 L 21.90063509461097,-12.06698729810778 A 60.3605223877012 60.3605223877012 0 0 1 21.99398332908058,-12.12077090920792 L 21.495529840455514,-12.987687352515756 A 61.3605223877012 61.3605223877012 0 0 0 21.40063509461097,-12.933012701892217 Z M 79.34313388419757,-14.764907944417828 L 78.89883783626821,-13.869027917966541 A 60.3605223877012 60.3605223877012 0 0 1 78.9953116330029,-13.821076106268109 L 77.65762861039745,-11.13581929712803 L 85.48385802476399,-11.147358521712075 L 80.77888899647682,-17.40141851845488 L 79.44120597387138,-14.7161617093148 A 61.3605223877012 61.3605223877012 0 0 0 79.34313388419757,-14.764907944417828"/><text text-anchor="middle" pointer-events="none" font-size="8px" fill="#000000" x="50.21199323116202" y="-17.625062035525836" transform="rotate(180 50.21199323116202 -20.625062035525836)" font-family="sans-serif">CONNECTION</text></g><g class="relationship" transform="translate(165.01522635401616 70.71655003412862) rotate(259.89897231342877)"><path class="outline" fill="#A5ABB6" stroke="none" d="M 25 0.5 L 26.096514675465656 0.5 L 26.096514675465656 -0.5 L 25 -0.5 Z M 74.76448342546566 0.5 L 75.86099810093131 0.5 L 75.86099810093131 3.5 L 82.86099810093131 0 L 75.86099810093131 -3.5 L 75.86099810093131 -0.5 L 74.76448342546566 -0.5 Z"/><text text-anchor="middle" pointer-events="none" font-size="8px" fill="#000000" x="50.430499050465656" y="3" transform="rotate(180 50.430499050465656 0)" font-family="sans-serif">CONNEC…</text></g><g class="relationship" transform="translate(165.01522635401616 70.71655003412862) rotate(259.89897231342877)"><path class="outline" fill="#A5ABB6" stroke="none" d="M 21.40063509461097,12.933012701892217 L 21.90063509461097,12.06698729810778 A 60.3605223877012 60.3605223877012 0 0 0 21.993983329080592,12.120770909207927 L 21.495529840455525,12.987687352515763 A 61.3605223877012 61.3605223877012 0 0 1 21.40063509461097,12.933012701892217 Z M 79.34313388419757,14.764907944417821 L 78.89883783626821,13.869027917966534 A 60.3605223877012 60.3605223877012 0 0 0 78.9953116330029,13.821076106268109 L 77.65762861039745,11.13581929712803 L 85.48385802476399,11.147358521712075 L 80.77888899647682,17.40141851845488 L 79.44120597387138,14.7161617093148 A 61.3605223877012 61.3605223877012 0 0 1 79.34313388419757,14.764907944417821"/><text text-anchor="middle" pointer-events="none" font-size="8px" fill="#000000" x="50.211993231162026" y="23.625062035525836" transform="rotate(180 50.211993231162026 20.625062035525836)" font-family="sans-serif">CONNECTION</text></g><g class="relationship" transform="translate(59.91931243865934 30.018852829309715) rotate(381.16856483427176)"><path class="outline" fill="#A5ABB6" stroke="none" d="M 5.987513214418485,24.277555179777966 L 6.953439040707552,24.018736134675446 A 49.30683890948916 49.30683890948916 0 0 0 24.38560948293278,50.23733316875618 L 23.773228333766998,51.027895834296615 A 50.30683890948916 50.30683890948916 0 0 1 5.987513214418485,24.277555179777966 Z M 80.4928130745358,54.376949588109724 L 79.97772157842532,53.51981438836896 A 49.30683890948916 49.30683890948916 0 0 0 100.3742024588318,29.534840666108636 L 97.58793495625456,28.422764497817102 L 103.43342476860825,23.218895854810327 L 104.08922579560145,31.017608890497346 L 101.3029582930242,29.905532722205812 A 50.30683890948916 50.30683890948916 0 0 1 80.4928130745358,54.376949588109724"/><text text-anchor="middle" pointer-events="none" font-size="8px" fill="#000000" x="51.64441626645865" y="63.97742898032503" font-family="sans-serif">CONNECTION</text></g><g class="relationship" transform="translate(59.91931243865934 30.018852829309715) rotate(381.16856483427176)"><path class="outline" fill="#A5ABB6" stroke="none" d="M 17.324116139070416,18.03122292025696 L 18.031222920256962,17.324116139070412 A 51.6880423271726 51.6880423271726 0 0 0 24.768551219297734,22.999788530682792 L 24.191790413615447,23.816701606247577 A 52.6880423271726 52.6880423271726 0 0 1 17.324116139070416,18.03122292025696 Z M 81.24594219002168,26.217062901666623 L 80.73983581642786,25.35459183629243 A 51.6880423271726 51.6880423271726 0 0 0 87.93008160348008,20.26487522063055 L 85.99443699715167,17.972871739395902 L 93.60069716074898,16.13037171940337 L 90.51094107858461,23.320879862276744 L 88.5752964722562,21.028876381042096 A 52.6880423271726 52.6880423271726 0 0 1 81.24594219002168,26.217062901666623"/><text text-anchor="middle" pointer-events="none" font-size="8px" fill="#000000" x="52.38649261479096" y="35.91706745622112" font-family="sans-serif">CONNECTION</text></g><g class="relationship" transform="translate(59.91931243865934 30.018852829309715) rotate(381.16856483427176)"><path class="outline" fill="#A5ABB6" stroke="none" d="M 24.018736134675446,6.953439040707552 L 24.277555179777966,5.987513214418485 A 117.08038318539072 117.08038318539072 0 0 0 25.34722442832686,6.268721877667431 L 25.09754157854115,7.237049546652926 A 118.08038318539072 118.08038318539072 0 0 1 24.018736134675446,6.953439040707552 Z M 80.58195562955908,8.078511997427157 L 80.36175167381244,7.103058145175012 A 117.08038318539072 117.08038318539072 0 0 0 81.43945650424708,6.854416008691011 L 80.75123015195562,3.934425514183949 L 88.36747205014547,5.735219602428794 L 82.35709164063569,10.74773666803376 L 81.66886528834424,7.827746173526698 A 118.08038318539072 118.08038318539072 0 0 1 80.58195562955908,8.078511997427157"/><text text-anchor="middle" pointer-events="none" font-size="8px" fill="#000000" x="52.79719913072366" y="13.463411128480928" font-family="sans-serif">CONNECTI…</text></g><g class="relationship" transform="translate(59.91931243865934 30.018852829309715) rotate(381.16856483427176)"><path class="outline" fill="#A5ABB6" stroke="none" d="M 24.018736134675446,-6.953439040707552 L 24.277555179777966,-5.987513214418485 A 117.08038318539072 117.08038318539072 0 0 1 25.34722442832689,-6.268721877667446 L 25.09754157854118,-7.2370495466529405 A 118.08038318539072 118.08038318539072 0 0 0 24.018736134675446,-6.953439040707552 Z M 80.58195562955908,-8.078511997427157 L 80.36175167381245,-7.103058145175012 A 117.08038318539072 117.08038318539072 0 0 1 81.43945650424708,-6.854416008691011 L 80.75123015195562,-3.934425514183949 L 88.36747205014547,-5.735219602428794 L 82.35709164063569,-10.74773666803376 L 81.66886528834424,-7.827746173526698 A 118.08038318539072 118.08038318539072 0 0 0 80.58195562955908,-8.078511997427157"/><text text-anchor="middle" pointer-events="none" font-size="8px" fill="#000000" x="52.79719913072368" y="-7.463411128480928" font-family="sans-serif">CONNECTI…</text></g><g class="relationship" transform="translate(59.91931243865934 30.018852829309715) rotate(322.76702584111024)"><path class="outline" fill="#A5ABB6" stroke="none" d="M 17.324116139070416,-18.03122292025696 L 18.031222920256962,-17.324116139070412 A 48.43071633066036 48.43071633066036 0 0 1 22.7926259467629,-21.499922549263616 L 22.183832867855656,-22.293251602730486 A 49.43071633066036 49.43071633066036 0 0 0 17.324116139070416,-18.03122292025696 Z M 78.83196336400175,-24.770452659786436 L 78.29474572930319,-23.92700899660028 A 48.43071633066036 48.43071633066036 0 0 1 83.40248902143176,-20.182776576204066 L 81.47444125396537,-17.884378915578772 L 89.08675819080185,-16.067064728886677 L 85.97321937805363,-23.247306790371127 L 84.04517161058723,-20.948909129745832 A 49.43071633066036 49.43071633066036 0 0 0 78.83196336400175,-24.770452659786436"/><text text-anchor="middle" pointer-events="none" font-size="8px" fill="#000000" x="50.139232308068046" y="-28.962426926013876" font-family="sans-serif">CONNECTION</text></g><g class="relationship" transform="translate(59.91931243865934 30.018852829309715) rotate(381.16856483427176)"><path class="outline" fill="#A5ABB6" stroke="none" d="M 17.324116139070416,-18.03122292025696 L 18.031222920256962,-17.324116139070412 A 51.6880423271726 51.6880423271726 0 0 1 24.768551219297724,-22.999788530682785 L 24.191790413615436,-23.81670160624757 A 52.6880423271726 52.6880423271726 0 0 0 17.324116139070416,-18.03122292025696 Z M 81.24594219002171,-26.217062901666615 L 80.73983581642787,-25.35459183629242 A 51.6880423271726 51.6880423271726 0 0 1 87.93008160348008,-20.26487522063055 L 85.99443699715167,-17.972871739395902 L 93.60069716074898,-16.13037171940337 L 90.51094107858461,-23.320879862276744 L 88.5752964722562,-21.028876381042096 A 52.6880423271726 52.6880423271726 0 0 0 81.24594219002171,-26.217062901666615"/><text text-anchor="middle" pointer-events="none" font-size="8px" fill="#000000" x="52.38649261479096" y="-29.91706745622112" font-family="sans-serif">CONNECTION</text></g><g class="relationship" transform="translate(59.91931243865934 30.018852829309715) rotate(322.76702584111024)"><path class="outline" fill="#A5ABB6" stroke="none" d="M 24.018736134675446,-6.953439040707552 L 24.277555179777966,-5.987513214418485 A 108.18120306610437 108.18120306610437 0 0 1 26.59819782837665,-6.581868618169025 L 26.360830223846303,-7.553288517244354 A 109.18120306610437 109.18120306610437 0 0 0 24.018736134675446,-6.953439040707552 Z M 74.83919836999348,-8.317016245378042 L 74.63254844417298,-7.338601298559269 A 108.18120306610437 108.18120306610437 0 0 1 76.97076175789086,-6.817641465160337 L 76.28597040220369,-3.8968434921440345 L 83.90008892087675,-5.706594630726345 L 77.88381689880707,-10.712038762515407 L 77.1990255431199,-7.7912407894991045 A 109.18120306610437 109.18120306610437 0 0 0 74.83919836999348,-8.317016245378042"/><text text-anchor="middle" pointer-events="none" font-size="8px" fill="#000000" x="50.56496069627109" y="-7.160214133688783" font-family="sans-serif">CONNEC…</text></g><g class="relationship" transform="translate(59.91931243865934 30.018852829309715) rotate(322.76702584111024)"><path class="outline" fill="#A5ABB6" stroke="none" d="M 24.018736134675446,6.953439040707552 L 24.277555179777966,5.987513214418485 A 108.18120306610437 108.18120306610437 0 0 0 26.598197828376634,6.581868618169025 L 26.360830223846285,7.553288517244354 A 109.18120306610437 109.18120306610437 0 0 1 24.018736134675446,6.953439040707552 Z M 74.83919836999351,8.317016245378042 L 74.632548444173,7.338601298559269 A 108.18120306610437 108.18120306610437 0 0 0 76.97076175789086,6.817641465160337 L 76.28597040220369,3.8968434921440345 L 83.90008892087675,5.706594630726345 L 77.88381689880707,10.712038762515407 L 77.1990255431199,7.7912407894991045 A 109.18120306610437 109.18120306610437 0 0 1 74.83919836999351,8.317016245378042"/><text text-anchor="middle" pointer-events="none" font-size="8px" fill="#000000" x="50.5649606962711" y="13.160214133688783" font-family="sans-serif">CONNEC…</text></g><g class="relationship" transform="translate(59.91931243865934 30.018852829309715) rotate(322.76702584111024)"><path class="outline" fill="#A5ABB6" stroke="none" d="M 17.324116139070416,18.03122292025696 L 18.031222920256962,17.324116139070412 A 48.43071633066036 48.43071633066036 0 0 0 22.792625946762893,21.499922549263616 L 22.18383286785565,22.293251602730486 A 49.43071633066036 49.43071633066036 0 0 1 17.324116139070416,18.03122292025696 Z M 78.83196336400175,24.770452659786443 L 78.29474572930319,23.927008996600286 A 48.43071633066036 48.43071633066036 0 0 0 83.40248902143176,20.182776576204066 L 81.47444125396537,17.884378915578772 L 89.08675819080185,16.067064728886677 L 85.97321937805363,23.247306790371127 L 84.04517161058723,20.948909129745832 A 49.43071633066036 49.43071633066036 0 0 1 78.83196336400175,24.770452659786443"/><text text-anchor="middle" pointer-events="none" font-size="8px" fill="#000000" x="50.139232308068046" y="34.96242692601387" font-family="sans-serif">CONNECTION</text></g><g class="relationship" transform="translate(59.91931243865934 30.018852829309715) rotate(381.16856483427176)"><path class="outline" fill="#A5ABB6" stroke="none" d="M 5.987513214418485,-24.277555179777966 L 6.953439040707552,-24.018736134675446 A 49.30683890948916 49.30683890948916 0 0 1 24.38560948293278,-50.23733316875618 L 23.773228333766998,-51.027895834296615 A 50.30683890948916 50.30683890948916 0 0 0 5.987513214418485,-24.277555179777966 Z M 80.49281307453579,-54.37694958810974 L 79.9777215784253,-53.51981438836896 A 49.30683890948916 49.30683890948916 0 0 1 100.3742024588318,-29.534840666108636 L 97.58793495625456,-28.422764497817102 L 103.43342476860825,-23.218895854810327 L 104.08922579560145,-31.017608890497346 L 101.3029582930242,-29.905532722205812 A 50.30683890948916 50.30683890948916 0 0 0 80.49281307453579,-54.37694958810974"/><text text-anchor="middle" pointer-events="none" font-size="8px" fill="#000000" x="51.64441626645864" y="-57.97742898032503" font-family="sans-serif">CONNECTION</text></g><g class="relationship" transform="translate(59.91931243865934 30.018852829309715) rotate(322.76702584111024)"><path class="outline" fill="#A5ABB6" stroke="none" d="M 5.987513214418485,24.277555179777966 L 6.953439040707552,24.018736134675446 A 46.92231078322747 46.92231078322747 0 0 0 22.35024067252065,48.01432163756537 L 21.712448763227773,48.78453036280843 A 47.92231078322747 47.92231078322747 0 0 1 5.987513214418485,24.277555179777966 Z M 78.09309492362723,52.24850493741063 L 77.55438584123311,51.40601308311999 A 46.92231078322747 46.92231078322747 0 0 0 95.77283100604224,29.475717145929686 L 92.99189890202055,28.3503653641203 L 98.86214051426775,23.174434200180663 L 99.48074047807114,30.976186188342197 L 96.69980837404945,29.85083440653281 A 47.92231078322747 47.92231078322747 0 0 1 78.09309492362723,52.24850493741063"/><text text-anchor="middle" pointer-events="none" font-size="8px" fill="#000000" x="49.368811610195145" y="62.20740793386833" font-family="sans-serif">CONNECTION</text></g><g class="relationship" transform="translate(2.0970123329905013 124.69181699311486) rotate(415.30202490623395)"><path class="outline" fill="#A5ABB6" stroke="none" d="M 5.987513214418485,-24.277555179777966 L 6.953439040707552,-24.018736134675446 A 50.24437572992724 50.24437572992724 0 0 1 25.19497784863855,-51.10149834012265 L 24.59210835538032,-51.899338157440994 A 51.24437572992724 51.24437572992724 0 0 0 5.987513214418485,-24.277555179777966 Z M 81.43202757961672,-55.20478527393528 L 80.92570375332316,-54.34244184876903 A 50.24437572992724 50.24437572992724 0 0 1 102.1835830800266,-29.556713832643098 L 99.39534241322919,-28.449594153467824 L 105.23156910923512,-23.235338889978365 L 105.90123730242313,-31.0328734048768 L 103.11299663562572,-29.925753725701526 A 51.24437572992724 51.24437572992724 0 0 0 81.43202757961672,-55.20478527393528"/><text text-anchor="middle" pointer-events="none" font-size="8px" fill="#000000" x="52.53978723082649" y="-58.673322766771406" font-family="sans-serif">CONNECTION</text></g><g class="relationship" transform="translate(2.0970123329905013 124.69181699311486) rotate(415.30202490623395)"><path class="outline" fill="#A5ABB6" stroke="none" d="M 10.396609043987748,-22.74116356711926 L 11.29757791189017,-22.307279828001697 A 49.045203276559526 49.045203276559526 0 0 1 25.536124213699562,-39.86613462923673 L 24.92547010342023,-40.658032070575544 A 50.045203276559526 50.045203276559526 0 0 0 10.396609043987748,-22.74116356711926 Z M 81.62819265306068,-43.70167194601943 L 81.10581664582226,-42.84895669046126 A 49.045203276559526 49.045203276559526 0 0 1 97.14215204591152,-26.915170898771102 L 94.59411247757693,-25.33166391798406 L 101.26167492913704,-21.233663069454906 L 100.53953813702431,-29.026513539820492 L 97.99149856868972,-27.44300655903345 A 50.045203276559526 50.045203276559526 0 0 0 81.62819265306068,-43.70167194601943"/><text text-anchor="middle" pointer-events="none" font-size="8px" fill="#000000" x="52.83015744349368" y="-47.501345098346135" font-family="sans-serif">CONNECTION</text></g><g class="relationship" transform="translate(2.0970123329905013 124.69181699311486) rotate(415.30202490623395)"><path class="outline" fill="#A5ABB6" stroke="none" d="M 14.44320574945421,-20.411854586953456 L 15.247803529220876,-19.818034401379958 A 50.01005057019182 50.01005057019182 0 0 1 25.652720414810542,-30.258243669923857 L 25.05617915102331,-31.060826077280964 A 51.01005057019182 51.01005057019182 0 0 0 14.44320574945421,-20.411854586953456 Z M 81.89931689105335,-33.75991898654654 L 81.38150643190292,-32.904423616369456 A 50.01005057019182 50.01005057019182 0 0 1 92.7288481970352,-23.497080748571825 L 90.49471314287764,-21.494921773918616 L 97.77290831358562,-18.617792117979718 L 95.70769493591196,-26.16662604810944 L 93.4735598817544,-24.16446707345623 A 51.01005057019182 51.01005057019182 0 0 0 81.89931689105335,-33.75991898654654"/><text text-anchor="middle" pointer-events="none" font-size="8px" fill="#000000" x="53.090100579843266" y="-37.574262266416085" font-family="sans-serif">CONNECTION</text></g><g class="relationship" transform="translate(2.0970123329905013 124.69181699311486) rotate(415.30202490623395)"><path class="outline" fill="#A5ABB6" stroke="none" d="M 17.9862104268602,-17.370844380187897 L 18.666383164631117,-16.637792508358068 A 54.1324195674916 54.1324195674916 0 0 1 25.50914958147913,-22.030531674987316 L 24.95538476102505,-22.863204794300934 A 55.1324195674916 55.1324195674916 0 0 0 17.9862104268602,-17.370844380187897 Z M 82.26990024564996,-25.14507484223438 L 81.78408588684343,-24.271012825683265 A 54.1324195674916 54.1324195674916 0 0 1 89.0339179486513,-19.43934406319316 L 87.17469168280105,-17.084927427936655 L 94.83742780855819,-15.493552215418681 L 91.5128863031183,-22.57856624353517 L 89.65366003726805,-20.224149608278665 A 55.1324195674916 55.1324195674916 0 0 0 82.26990024564996,-25.14507484223438"/><text text-anchor="middle" pointer-events="none" font-size="8px" fill="#000000" x="53.31241356239957" y="-28.54509347595019" font-family="sans-serif">CONNECTION</text></g><g class="relationship" transform="translate(2.0970123329905013 124.69181699311486) rotate(301.41484590972857)"><path class="outline" fill="#A5ABB6" stroke="none" d="M 13.473521019338785,21.06452542407343 L 14.30499063164133,20.50895519105383 A 47.3423518565306 47.3423518565306 0 0 0 24.07062918968692,31.156262841926324 L 23.445436582541195,31.936733343592042 A 48.3423518565306 48.3423518565306 0 0 1 13.473521019338785,21.06452542407343 Z M 79.92190815859418,34.79947727684129 L 79.37884002940538,33.9597886398696 A 47.3423518565306 47.3423518565306 0 0 0 90.1710632356401,24.354541379880718 L 87.85797500307969,22.444142775298282 L 95.01417468509253,19.275735271336814 L 93.25518087905401,26.901739519323968 L 90.94209264649359,24.99134091474153 A 48.3423518565306 48.3423518565306 0 0 1 79.92190815859418,34.79947727684129"/><text text-anchor="middle" pointer-events="none" font-size="8px" fill="#000000" x="51.24673927589274" y="44.987960972276596" font-family="sans-serif">CONNECTION</text></g><g class="relationship" transform="translate(2.0970123329905013 124.69181699311486) rotate(415.30202490623395)"><path class="outline" fill="#A5ABB6" stroke="none" d="M 20.90208894244944,-13.724164012497553 L 21.434121018964774,-12.87743981326927 A 64.00301723926154 64.00301723926154 0 0 1 25.122046923734132,-15.026616295191303 L 24.64763597296952,-15.90691979387492 A 65.00301723926154 65.00301723926154 0 0 0 20.90208894244944,-13.724164012497553 Z M 82.72786886825739,-17.703692504034912 L 82.3087792499406,-16.79574763135866 A 64.00301723926154 64.00301723926154 0 0 1 86.12249982884704,-14.878642424141002 L 84.68647124927388,-12.244667876304767 L 92.50777853706045,-11.966904829776334 L 88.03720460161126,-18.39060848792265 L 86.6011760220381,-15.756633940086413 A 65.00301723926154 65.00301723926154 0 0 0 82.72786886825739,-17.703692504034912"/><text text-anchor="middle" pointer-events="none" font-size="8px" fill="#000000" x="53.491265112597205" y="-20.15670972160565" font-family="sans-serif">CONNECTION</text></g><g class="relationship" transform="translate(2.0970123329905013 124.69181699311486) rotate(415.30202490623395)"><path class="outline" fill="#A5ABB6" stroke="none" d="M 23.08917320392191,-9.598962483481976 L 23.454514228288303,-8.668088734837774 A 87.67497439215583 87.67497439215583 0 0 1 24.591374157277546,-9.1051848787085 L 24.238999888098377,-10.041044042482852 A 88.67497439215583 88.67497439215583 0 0 0 23.08917320392191,-9.598962483481976 Z M 83.19750253790781,-11.287428503439571 L 82.88499358547959,-10.33751368902081 A 87.67497439215583 87.67497439215583 0 0 1 84.03931003623417,-9.948853080461868 L 83.0622855985251,-7.11240754985155 L 90.82052034727643,-8.141870314242386 L 85.34200928651295,-13.730780454608958 L 84.36498484880387,-10.89433492399864 A 88.67497439215583 88.67497439215583 0 0 0 83.19750253790781,-11.287428503439571"/><text text-anchor="middle" pointer-events="none" font-size="8px" fill="#000000" x="53.62217403742834" y="-12.209034919088666" font-family="sans-serif">CONNECTION</text></g><g class="relationship" transform="translate(2.0970123329905013 124.69181699311486) rotate(415.30202490623395)"><path class="outline" fill="#A5ABB6" stroke="none" d="M 24.471206027250748,-5.139073415689509 L 24.657117634413662,-4.15650694245622 A 165.82429693368798 165.82429693368798 0 0 1 26.059145009188903,-4.415546756410009 L 25.881688299171344,-5.399675363894687 A 166.82429693368798 166.82429693368798 0 0 0 24.471206027250748,-5.139073415689509 Z M 81.56172152349849,-5.996870185570117 L 81.40541370252295,-5.009161794848495 A 165.82429693368798 165.82429693368798 0 0 1 82.81267455877945,-4.7802529324587315 L 82.31829172321058,-1.821269050803597 L 89.7993674219029,-4.119856963073898 L 83.47185167287127,-8.725564774665578 L 82.9774688373024,-5.766580893010444 A 166.82429693368798 166.82429693368798 0 0 0 81.56172152349849,-5.996870185570117"/><text text-anchor="middle" pointer-events="none" font-size="8px" fill="#000000" x="53.70197464135693" y="-4.5378434609241936" font-family="sans-serif">CONNECTI…</text></g><g class="relationship" transform="translate(2.0970123329905013 124.69181699311486) rotate(415.30202490623395)"><path class="outline" fill="#A5ABB6" stroke="none" d="M 25 0.5 L 25.84011134284787 0.5 L 25.84011134284787 -0.5 L 25 -0.5 Z M 81.61745509284788 0.5 L 82.45756643569574 0.5 L 82.45756643569574 3.5 L 89.45756643569574 0 L 82.45756643569574 -3.5 L 82.45756643569574 -0.5 L 81.61745509284788 -0.5 Z"/><text text-anchor="middle" pointer-events="none" font-size="8px" fill="#000000" x="53.72878321784787" y="3" font-family="sans-serif">CONNECTI…</text></g><g class="relationship" transform="translate(2.0970123329905013 124.69181699311486) rotate(301.41484590972857)"><path class="outline" fill="#A5ABB6" stroke="none" d="M 19.529452792776517,15.615712395363635 L 20.13821422178524,14.822359055072399 A 55.079874899590465 55.079874899590465 0 0 0 23.74551660643191,17.36733589468946 L 23.20224738108601,18.20689443868271 A 56.079874899590465 56.079874899590465 0 0 1 19.529452792776517,15.615712395363635 Z M 80.61364269205893,20.307107893396342 L 80.13316863313813,19.43009895461398 A 55.079874899590465 55.079874899590465 0 0 0 83.91678005773686,17.155495209758474 L 82.26927835928909,14.648357767652097 L 90.0413510390597,13.729180820398073 L 86.11344898900056,20.49834513256698 L 84.46594729055279,17.9912076904606 A 56.079874899590465 56.079874899590465 0 0 1 80.61364269205893,20.307107893396342"/><text text-anchor="middle" pointer-events="none" font-size="8px" fill="#000000" x="51.636863563752485" y="29.667279184504572" font-family="sans-serif">CONNECTION</text></g><g class="relationship" transform="translate(2.0970123329905013 124.69181699311486) rotate(415.30202490623395)"><path class="outline" fill="#A5ABB6" stroke="none" d="M 24.471206027250748,5.139073415689509 L 24.657117634413662,4.15650694245622 A 165.82429693368798 165.82429693368798 0 0 0 26.059145009188875,4.415546756410009 L 25.881688299171316,5.399675363894687 A 166.82429693368798 166.82429693368798 0 0 1 24.471206027250748,5.139073415689509 Z M 81.56172152349848,5.996870185570117 L 81.40541370252294,5.009161794848495 A 165.82429693368798 165.82429693368798 0 0 0 82.81267455877945,4.7802529324587315 L 82.31829172321058,1.821269050803597 L 89.7993674219029,4.119856963073898 L 83.47185167287127,8.725564774665578 L 82.9774688373024,5.766580893010444 A 166.82429693368798 166.82429693368798 0 0 1 81.56172152349848,5.996870185570117"/><text text-anchor="middle" pointer-events="none" font-size="8px" fill="#000000" x="53.701974641356905" y="10.537843460924194" font-family="sans-serif">CONNECTI…</text></g><g class="relationship" transform="translate(2.0970123329905013 124.69181699311486) rotate(301.41484590972857)"><path class="outline" fill="#A5ABB6" stroke="none" d="M 23.51253350472606,8.509451697326591 L 23.833972970029226,7.562521567831486 A 92.81605971162881 92.81605971162881 0 0 0 24.648195406986268,7.834719831369796 L 24.33552837222462,8.78458262428957 A 93.81605971162881 93.81605971162881 0 0 1 23.51253350472606,8.509451697326591 Z M 79.57056239497827,9.841746726009163 L 79.29447059471173,8.880615456189275 A 92.81605971162881 92.81605971162881 0 0 0 80.11851231973777,8.639772546944203 L 79.2636022483568,5.764163260227493 L 86.97075233397359,7.1242505948413966 L 81.2583924149124,12.473918262566484 L 80.40348234353142,9.598308975849774 A 93.81605971162881 93.81605971162881 0 0 1 79.57056239497827,9.841746726009163"/><text text-anchor="middle" pointer-events="none" font-size="8px" fill="#000000" x="51.883033424734826" y="15.971170961691655" font-family="sans-serif">CONNECTI…</text></g><g class="relationship" transform="translate(2.0970123329905013 124.69181699311486) rotate(301.41484590972857)"><path class="outline" fill="#A5ABB6" stroke="none" d="M 25 0.5 L 25.189737778306416 0.5 L 25.189737778306416 -0.5 L 25 -0.5 Z M 78.74442527830641 0.5 L 78.93416305661283 0.5 L 78.93416305661283 3.5 L 85.93416305661283 0 L 78.93416305661283 -3.5 L 78.93416305661283 -0.5 L 78.74442527830641 -0.5 Z"/><text text-anchor="middle" pointer-events="none" font-size="8px" fill="#000000" x="51.967081528306416" y="3" font-family="sans-serif">CONNECT…</text></g><g class="relationship" transform="translate(2.0970123329905013 124.69181699311486) rotate(415.30202490623395)"><path class="outline" fill="#A5ABB6" stroke="none" d="M 23.08917320392191,9.598962483481976 L 23.454514228288303,8.668088734837774 A 87.67497439215583 87.67497439215583 0 0 0 24.591374157277535,9.105184878708485 L 24.238999888098366,10.041044042482838 A 88.67497439215583 88.67497439215583 0 0 1 23.08917320392191,9.598962483481976 Z M 83.19750253790782,11.287428503439571 L 82.8849935854796,10.33751368902081 A 87.67497439215583 87.67497439215583 0 0 0 84.03931003623417,9.948853080461868 L 83.0622855985251,7.11240754985155 L 90.82052034727643,8.141870314242386 L 85.34200928651295,13.730780454608958 L 84.36498484880387,10.89433492399864 A 88.67497439215583 88.67497439215583 0 0 1 83.19750253790782,11.287428503439571"/><text text-anchor="middle" pointer-events="none" font-size="8px" fill="#000000" x="53.622174037428344" y="18.209034919088666" font-family="sans-serif">CONNECTION</text></g><g class="relationship" transform="translate(2.0970123329905013 124.69181699311486) rotate(415.30202490623395)"><path class="outline" fill="#A5ABB6" stroke="none" d="M 20.90208894244944,13.724164012497553 L 21.434121018964774,12.87743981326927 A 64.00301723926154 64.00301723926154 0 0 0 25.122046923734146,15.02661629519131 L 24.647635972969535,15.906919793874927 A 65.00301723926154 65.00301723926154 0 0 1 20.90208894244944,13.724164012497553 Z M 82.72786886825742,17.70369250403489 L 82.30877924994063,16.795747631358637 A 64.00301723926154 64.00301723926154 0 0 0 86.12249982884704,14.878642424141002 L 84.68647124927388,12.244667876304767 L 92.50777853706045,11.966904829776334 L 88.03720460161126,18.39060848792265 L 86.6011760220381,15.756633940086413 A 65.00301723926154 65.00301723926154 0 0 1 82.72786886825742,17.70369250403489"/><text text-anchor="middle" pointer-events="none" font-size="8px" fill="#000000" x="53.49126511259723" y="26.15670972160565" font-family="sans-serif">CONNECTION</text></g><g class="relationship" transform="translate(2.0970123329905013 124.69181699311486) rotate(301.41484590972857)"><path class="outline" fill="#A5ABB6" stroke="none" d="M 23.51253350472606,-8.509451697326591 L 23.833972970029226,-7.562521567831486 A 92.81605971162881 92.81605971162881 0 0 1 24.648195406986268,-7.834719831369796 L 24.33552837222462,-8.78458262428957 A 93.81605971162881 93.81605971162881 0 0 0 23.51253350472606,-8.509451697326591 Z M 79.57056239497827,-9.841746726009163 L 79.29447059471173,-8.880615456189275 A 92.81605971162881 92.81605971162881 0 0 1 80.11851231973777,-8.639772546944203 L 79.2636022483568,-5.764163260227493 L 86.97075233397359,-7.1242505948413966 L 81.2583924149124,-12.473918262566484 L 80.40348234353142,-9.598308975849774 A 93.81605971162881 93.81605971162881 0 0 0 79.57056239497827,-9.841746726009163"/><text text-anchor="middle" pointer-events="none" font-size="8px" fill="#000000" x="51.883033424734826" y="-9.971170961691655" font-family="sans-serif">CONNECTI…</text></g><g class="relationship" transform="translate(2.0970123329905013 124.69181699311486) rotate(301.41484590972857)"><path class="outline" fill="#A5ABB6" stroke="none" d="M 19.529452792776517,-15.615712395363635 L 20.13821422178524,-14.822359055072399 A 55.079874899590465 55.079874899590465 0 0 1 23.745516606431902,-17.36733589468946 L 23.202247381086003,-18.20689443868271 A 56.079874899590465 56.079874899590465 0 0 0 19.529452792776517,-15.615712395363635 Z M 80.61364269205893,-20.307107893396335 L 80.13316863313813,-19.430098954613975 A 55.079874899590465 55.079874899590465 0 0 1 83.91678005773686,-17.155495209758474 L 82.26927835928909,-14.648357767652097 L 90.0413510390597,-13.729180820398073 L 86.11344898900056,-20.49834513256698 L 84.46594729055279,-17.9912076904606 A 56.079874899590465 56.079874899590465 0 0 0 80.61364269205893,-20.307107893396335"/><text text-anchor="middle" pointer-events="none" font-size="8px" fill="#000000" x="51.636863563752485" y="-23.667279184504572" font-family="sans-serif">CONNECTION</text></g><g class="relationship" transform="translate(2.0970123329905013 124.69181699311486) rotate(415.30202490623395)"><path class="outline" fill="#A5ABB6" stroke="none" d="M 17.9862104268602,17.370844380187897 L 18.666383164631117,16.637792508358068 A 54.1324195674916 54.1324195674916 0 0 0 25.509149581479136,22.030531674987323 L 24.955384761025055,22.863204794300934 A 55.1324195674916 55.1324195674916 0 0 1 17.9862104268602,17.370844380187897 Z M 82.26990024564996,25.14507484223438 L 81.78408588684343,24.271012825683265 A 54.1324195674916 54.1324195674916 0 0 0 89.0339179486513,19.43934406319316 L 87.17469168280105,17.084927427936655 L 94.83742780855819,15.493552215418681 L 91.5128863031183,22.57856624353517 L 89.65366003726805,20.224149608278665 A 55.1324195674916 55.1324195674916 0 0 1 82.26990024564996,25.14507484223438"/><text text-anchor="middle" pointer-events="none" font-size="8px" fill="#000000" x="53.31241356239957" y="34.54509347595019" font-family="sans-serif">CONNECTION</text></g><g class="relationship" transform="translate(2.0970123329905013 124.69181699311486) rotate(301.41484590972857)"><path class="outline" fill="#A5ABB6" stroke="none" d="M 13.473521019338785,-21.06452542407343 L 14.30499063164133,-20.50895519105383 A 47.3423518565306 47.3423518565306 0 0 1 24.070629189686912,-31.156262841926324 L 23.445436582541188,-31.936733343592042 A 48.3423518565306 48.3423518565306 0 0 0 13.473521019338785,-21.06452542407343 Z M 79.92190815859419,-34.79947727684127 L 79.3788400294054,-33.959788639869586 A 47.3423518565306 47.3423518565306 0 0 1 90.1710632356401,-24.354541379880718 L 87.85797500307969,-22.444142775298282 L 95.01417468509253,-19.275735271336814 L 93.25518087905401,-26.901739519323968 L 90.94209264649359,-24.99134091474153 A 48.3423518565306 48.3423518565306 0 0 0 79.92190815859419,-34.79947727684127"/><text text-anchor="middle" pointer-events="none" font-size="8px" fill="#000000" x="51.24673927589275" y="-38.987960972276596" font-family="sans-serif">CONNECTION</text></g><g class="relationship" transform="translate(2.0970123329905013 124.69181699311486) rotate(415.30202490623395)"><path class="outline" fill="#A5ABB6" stroke="none" d="M 14.44320574945421,20.411854586953456 L 15.247803529220876,19.818034401379958 A 50.01005057019182 50.01005057019182 0 0 0 25.652720414810553,30.258243669923864 L 25.056179151023326,31.06082607728097 A 51.01005057019182 51.01005057019182 0 0 1 14.44320574945421,20.411854586953456 Z M 81.89931689105335,33.75991898654654 L 81.38150643190292,32.904423616369456 A 50.01005057019182 50.01005057019182 0 0 0 92.7288481970352,23.497080748571825 L 90.49471314287764,21.494921773918616 L 97.77290831358562,18.617792117979718 L 95.70769493591196,26.16662604810944 L 93.4735598817544,24.16446707345623 A 51.01005057019182 51.01005057019182 0 0 1 81.89931689105335,33.75991898654654"/><text text-anchor="middle" pointer-events="none" font-size="8px" fill="#000000" x="53.090100579843266" y="43.574262266416085" font-family="sans-serif">CONNECTION</text></g><g class="relationship" transform="translate(2.0970123329905013 124.69181699311486) rotate(415.30202490623395)"><path class="outline" fill="#A5ABB6" stroke="none" d="M 10.396609043987748,22.74116356711926 L 11.29757791189017,22.307279828001697 A 49.045203276559526 49.045203276559526 0 0 0 25.53612421369955,39.866134629236726 L 24.92547010342022,40.65803207057554 A 50.045203276559526 50.045203276559526 0 0 1 10.396609043987748,22.74116356711926 Z M 81.62819265306068,43.70167194601943 L 81.10581664582224,42.84895669046126 A 49.045203276559526 49.045203276559526 0 0 0 97.14215204591152,26.915170898771102 L 94.59411247757693,25.33166391798406 L 101.26167492913704,21.233663069454906 L 100.53953813702431,29.026513539820492 L 97.99149856868972,27.44300655903345 A 50.045203276559526 50.045203276559526 0 0 1 81.62819265306068,43.70167194601943"/><text text-anchor="middle" pointer-events="none" font-size="8px" fill="#000000" x="52.83015744349367" y="53.501345098346135" font-family="sans-serif">CONNECTION</text></g><g class="relationship" transform="translate(2.0970123329905013 124.69181699311486) rotate(415.30202490623395)"><path class="outline" fill="#A5ABB6" stroke="none" d="M 5.987513214418485,24.277555179777966 L 6.953439040707552,24.018736134675446 A 50.24437572992724 50.24437572992724 0 0 0 25.19497784863856,51.10149834012267 L 24.592108355380326,51.89933815744101 A 51.24437572992724 51.24437572992724 0 0 1 5.987513214418485,24.277555179777966 Z M 81.43202757961673,55.20478527393527 L 80.92570375332318,54.34244184876902 A 50.24437572992724 50.24437572992724 0 0 0 102.1835830800266,29.556713832643098 L 99.39534241322919,28.449594153467824 L 105.23156910923512,23.235338889978365 L 105.90123730242313,31.0328734048768 L 103.11299663562572,29.925753725701526 A 51.24437572992724 51.24437572992724 0 0 1 81.43202757961673,55.20478527393527"/><text text-anchor="middle" pointer-events="none" font-size="8px" fill="#000000" x="52.53978723082651" y="64.6733227667714" font-family="sans-serif">CONNECTION</text></g><g class="relationship" transform="translate(2.0970123329905013 124.69181699311486) rotate(301.41484590972857)"><path class="outline" fill="#A5ABB6" stroke="none" d="M 5.987513214418485,-24.277555179777966 L 6.953439040707552,-24.018736134675446 A 48.36321512806668 48.36321512806668 0 0 1 23.57599468607554,-49.362062180235164 L 22.953771312184458,-50.14490192947098 A 49.36321512806668 49.36321512806668 0 0 0 5.987513214418485,-24.277555179777966 Z M 79.54515713880839,-53.53874223869462 L 79.02095223245466,-52.687150073304004 A 48.36321512806668 48.36321512806668 0 0 1 98.55320418702809,-29.512062914504106 L 95.76899185791237,-28.394851338122965 L 101.62406658677003,-23.20176940929762 L 102.2654872925157,-31.001678349678958 L 99.48127496339998,-29.884466773297817 A 49.36321512806668 49.36321512806668 0 0 0 79.54515713880839,-53.53874223869462"/><text text-anchor="middle" pointer-events="none" font-size="8px" fill="#000000" x="50.743598559676755" y="-57.2769977147805" font-family="sans-serif">CONNECTION</text></g></g><g class="layer nodes"><g class="node" transform="translate(165.01522635401616,70.71655003412862)"><circle class="outline" cx="0" cy="0" r="25" fill="#ECB5C9" stroke="#da7298" stroke-width="2px"/><text text-anchor="middle" pointer-events="none" font-family="sans-serif" dy="1.5625" font-size="25" fill="#2A2C34"/><text text-anchor="middle" pointer-events="none" x="0" y="5" font-size="10px" fill="#2A2C34" font-family="sans-serif"> LAX</text></g><g class="node" transform="translate(67.25203552991712,218.794725909841)"><circle class="outline" cx="0" cy="0" r="25" fill="#ECB5C9" stroke="#da7298" stroke-width="2px"/><text text-anchor="middle" pointer-events="none" font-family="sans-serif" dy="1.5625" font-size="25" fill="#2A2C34"/><text text-anchor="middle" pointer-events="none" x="0" y="5" font-size="10px" fill="#2A2C34" font-family="sans-serif"> DAY</text></g><g class="node" transform="translate(247.57955845542247,9.629798342488023)"><circle class="outline" cx="0" cy="0" r="25" fill="#4C8EDA" stroke="#2870c2" stroke-width="2px"/><text text-anchor="middle" pointer-events="none" font-family="sans-serif" dy="1.5625" font-size="25" fill="#FFFFFF"/><text text-anchor="middle" pointer-events="none" x="0" y="5" font-size="10px" fill="#FFFFFF" font-family="sans-serif"> 11/29/20…</text></g><g class="node" transform="translate(146.09809157767285,-35.47260630107715)"><circle class="outline" cx="0" cy="0" r="25" fill="#ECB5C9" stroke="#da7298" stroke-width="2px"/><text text-anchor="middle" pointer-events="none" font-family="sans-serif" dy="1.5625" font-size="25" fill="#2A2C34"/><text text-anchor="middle" pointer-events="none" x="0" y="5" font-size="10px" fill="#2A2C34" font-family="sans-serif"> LAS</text></g><g class="node" transform="translate(59.91931243865934,30.018852829309715)"><circle class="outline" cx="0" cy="0" r="25" fill="#ECB5C9" stroke="#da7298" stroke-width="2px"/><text text-anchor="middle" pointer-events="none" font-family="sans-serif" dy="1.5625" font-size="25" fill="#2A2C34"/><text text-anchor="middle" pointer-events="none" x="0" y="5" font-size="10px" fill="#2A2C34" font-family="sans-serif"> ORD</text></g><g class="node" transform="translate(2.0970123329905013,124.69181699311486)"><circle class="outline" cx="0" cy="0" r="25" fill="#ECB5C9" stroke="#da7298" stroke-width="2px"/><text text-anchor="middle" pointer-events="none" font-family="sans-serif" dy="1.5625" font-size="25" fill="#2A2C34"/><text text-anchor="middle" pointer-events="none" x="0" y="5" font-size="10px" fill="#2A2C34" font-family="sans-serif"> MSP</text></g><g class="node" transform="translate(-37.12539033947121,222.52846626608485)"><circle class="outline" cx="0" cy="0" r="25" fill="#4C8EDA" stroke="#2870c2" stroke-width="2px"/><text text-anchor="middle" pointer-events="none" font-family="sans-serif" dy="1.5625" font-size="25" fill="#FFFFFF"/><text text-anchor="middle" pointer-events="none" x="0" y="5" font-size="10px" fill="#FFFFFF" font-family="sans-serif"> 11/23/20…</text></g></g></svg>