<svg xmlns="http://www.w3.org/2000/svg" width="342.5349426269531" height="333.79620361328125" viewBox="-61.541954040527344 -54.9490852355957 342.5349426269531 333.79620361328125"><title>Neo4j Graph Visualization</title><desc>Created using Neo4j (http://www.neo4j.com/)</desc><g class="layer relationships"><g class="relationship" transform="translate(234.87797241580392 36.64371255713924) rotate(440.8945651805251)"><path class="outline" fill="#A5ABB6" stroke="none" d="M 25 0.5 L 26.239377165118036 0.5 L 26.239377165118036 -0.5 L 25 -0.5 Z M 74.91125216511804 0.5 L 76.15062933023607 0.5 L 76.15062933023607 3.5 L 83.15062933023607 0 L 76.15062933023607 -3.5 L 76.15062933023607 -0.5 L 74.91125216511804 -0.5 Z"/><text text-anchor="middle" pointer-events="none" font-size="8px" fill="#000000" x="50.575314665118036" y="3" font-family="sans-serif">DESTINA…</text></g><g class="relationship" transform="translate(234.87797241580392 36.64371255713924) rotate(215.32620966939226)"><path class="outline" fill="#A5ABB6" stroke="none" d="M 25 0.5 L 33.401741064406195 0.5 L 33.401741064406195 -0.5 L 25 -0.5 Z M 67.8470535644062 0.5 L 76.24879462881239 0.5 L 76.24879462881239 3.5 L 83.24879462881239 0 L 76.24879462881239 -3.5 L 76.24879462881239 -0.5 L 67.8470535644062 -0.5 Z"/><text text-anchor="middle" pointer-events="none" font-size="8px" fill="#000000" x="50.624397314406195" y="3" transform="rotate(180 50.624397314406195 0)" font-family="sans-serif">ORIGIN</text></g><g class="relationship" transform="translate(37.54885138274495 -19.59629710446263) rotate(356.66479550772397)"><path class="outline" fill="#A5ABB6" stroke="none" d="M 25 0.5 L 26.762455133422826 0.5 L 26.762455133422826 -0.5 L 25 -0.5 Z M 75.43433013342283 0.5 L 77.19678526684565 0.5 L 77.19678526684565 3.5 L 84.19678526684565 0 L 77.19678526684565 -3.5 L 77.19678526684565 -0.5 L 75.43433013342283 -0.5 Z"/><text text-anchor="middle" pointer-events="none" font-size="8px" fill="#000000" x="51.098392633422826" y="3" font-family="sans-serif">DESTINA…</text></g><g class="relationship" transform="translate(37.54885138274495 -19.59629710446263) rotate(490.0435107495615)"><path class="outline" fill="#A5ABB6" stroke="none" d="M 25 0.5 L 33.74902825178933 0.5 L 33.74902825178933 -0.5 L 25 -0.5 Z M 68.19434075178933 0.5 L 76.94336900357867 0.5 L 76.94336900357867 3.5 L 83.94336900357867 0 L 76.94336900357867 -3.5 L 76.94336900357867 -0.5 L 68.19434075178933 -0.5 Z"/><text text-anchor="middle" pointer-events="none" font-size="8px" fill="#000000" x="50.97168450178933" y="3" transform="rotate(180 50.97168450178933 0)" font-family="sans-serif">ORIGIN</text></g><g class="relationship" transform="translate(-27.497315925788314 172.1151934240662) rotate(267.33330520675304)"><path class="outline" fill="#A5ABB6" stroke="none" d="M 25 0.5 L 33.490667682293164 0.5 L 33.490667682293164 -0.5 L 25 -0.5 Z M 67.93598018229316 0.5 L 76.42664786458633 0.5 L 76.42664786458633 3.5 L 83.42664786458633 0 L 76.42664786458633 -3.5 L 76.42664786458633 -0.5 L 67.93598018229316 -0.5 Z"/><text text-anchor="middle" pointer-events="none" font-size="8px" fill="#000000" x="50.713323932293164" y="3" transform="rotate(180 50.713323932293164 0)" font-family="sans-serif">ORIGIN</text></g><g class="relationship" transform="translate(-27.497315925788314 172.1151934240662) rotate(406.1869603649618)"><path class="outline" fill="#A5ABB6" stroke="none" d="M 25 0.5 L 26.024659700045028 0.5 L 26.024659700045028 -0.5 L 25 -0.5 Z M 74.69653470004502 0.5 L 75.72119440009006 0.5 L 75.72119440009006 3.5 L 82.72119440009006 0 L 75.72119440009006 -3.5 L 75.72119440009006 -0.5 L 74.69653470004502 -0.5 Z"/><text text-anchor="middle" pointer-events="none" font-size="8px" fill="#000000" x="50.36059720004503" y="3" font-family="sans-serif">DESTINA…</text></g></g><g class="layer nodes"><g class="node" transform="translate(251.9929964096985,143.43151419297465)"><circle class="outline" cx="0" cy="0" r="25" fill="#ECB5C9" stroke="#da7298" stroke-width="2px"/><text text-anchor="middle" pointer-events="none" font-family="sans-serif" dy="1.5625" font-size="25" fill="#2A2C34"/><text text-anchor="middle" pointer-events="none" x="0" y="5" font-size="10px" fill="#2A2C34" font-family="sans-serif"> LAX</text></g><g class="node" transform="translate(47.07886597198693,249.84709689060904)"><circle class="outline" cx="0" cy="0" r="25" fill="#ECB5C9" stroke="#da7298" stroke-width="2px"/><text text-anchor="middle" pointer-events="none" font-family="sans-serif" dy="1.5625" font-size="25" fill="#2A2C34"/><text text-anchor="middle" pointer-events="none" x="0" y="5" font-size="10px" fill="#2A2C34" font-family="sans-serif"> DAY</text></g><g class="node" transform="translate(234.87797241580392,36.64371255713924)"><circle class="outline" cx="0" cy="0" r="25" fill="#4C8EDA" stroke="#2870c2" stroke-width="2px"/><text text-anchor="middle" pointer-events="none" font-family="sans-serif" dy="1.5625" font-size="25" fill="#FFFFFF"/><text text-anchor="middle" pointer-events="none" x="0" y="5" font-size="10px" fill="#FFFFFF" font-family="sans-serif"> 11/30/20…</text></g><g class="node" transform="translate(146.56068556113323,-25.949085600640984)"><circle class="outline" cx="0" cy="0" r="25" fill="#ECB5C9" stroke="#da7298" stroke-width="2px"/><text text-anchor="middle" pointer-events="none" font-family="sans-serif" dy="1.5625" font-size="25" fill="#2A2C34"/><text text-anchor="middle" pointer-events="none" x="0" y="5" font-size="10px" fill="#2A2C34" font-family="sans-serif"> ORD</text></g><g class="node" transform="translate(37.54885138274495,-19.59629710446263)"><circle class="outline" cx="0" cy="0" r="25" fill="#4C8EDA" stroke="#2870c2" stroke-width="2px"/><text text-anchor="middle" pointer-events="none" font-family="sans-serif" dy="1.5625" font-size="25" fill="#FFFFFF"/><text text-anchor="middle" pointer-events="none" x="0" y="5" font-size="10px" fill="#FFFFFF" font-family="sans-serif"> 11/29/20…</text></g><g class="node" transform="translate(-32.54195273740084,63.80596202346062)"><circle class="outline" cx="0" cy="0" r="25" fill="#ECB5C9" stroke="#da7298" stroke-width="2px"/><text text-anchor="middle" pointer-events="none" font-family="sans-serif" dy="1.5625" font-size="25" fill="#2A2C34"/><text text-anchor="middle" pointer-events="none" x="0" y="5" font-size="10px" fill="#2A2C34" font-family="sans-serif"> MSP</text></g><g class="node" transform="translate(-27.497315925788314,172.1151934240662)"><circle class="outline" cx="0" cy="0" r="25" fill="#4C8EDA" stroke="#2870c2" stroke-width="2px"/><text text-anchor="middle" pointer-events="none" font-family="sans-serif" dy="1.5625" font-size="25" fill="#FFFFFF"/><text text-anchor="middle" pointer-events="none" x="0" y="5" font-size="10px" fill="#FFFFFF" font-family="sans-serif"> 11/25/20…</text></g></g></svg>