<svg xmlns="http://www.w3.org/2000/svg" width="388.04766845703125" height="347.95892333984375" viewBox="-80.77757263183594 -81.31108093261719 388.04766845703125 347.95892333984375"><title>Neo4j Graph Visualization</title><desc>Created using Neo4j (http://www.neo4j.com/)</desc><g class="layer relationships"><g class="relationship" transform="translate(41.111636230792584 17.46909978924686) rotate(369.7065579127884)"><path class="outline" fill="#A5ABB6" stroke="none" d="M 24.018736134675446,-6.953439040707552 L 24.277555179777966,-5.987513214418485 A 117.43758155434669 117.43758155434669 0 0 1 41.96017333955829,-9.29902042812995 L 41.85192464787877,-10.29314427391057 A 118.43758155434669 118.43758155434669 0 0 0 24.018736134675446,-6.953439040707552 Z M 63.92236274023657,-10.627357347590632 L 63.844264853383244,-9.630411651943646 A 117.43758155434669 117.43758155434669 0 0 1 81.61904467681201,-6.855836506144716 L 80.93068564156948,-3.935877287491145 L 88.5470093595441,-5.736325293687743 L 82.53685672380206,-10.749115464349478 L 81.84849768855953,-7.8291562456959065 A 118.43758155434669 118.43758155434669 0 0 0 63.92236274023657,-10.627357347590632"/><text text-anchor="middle" pointer-events="none" font-size="8px" fill="#000000" x="52.886911535090114" y="-7.47558189898308" font-family="sans-serif">road</text></g><g class="relationship" transform="translate(152.37566903006626 36.50091652543253) rotate(372.3192031179153)"><path class="outline" fill="#A5ABB6" stroke="none" d="M 21.40063509461097,-12.933012701892217 L 21.90063509461097,-12.06698729810778 A 81.96399204423294 81.96399204423294 0 0 1 38.06130811375145,-19.199374052046068 L 37.75847607270615,-20.152417993801294 A 82.96399204423294 82.96399204423294 0 0 0 21.40063509461097,-12.933012701892217 Z M 83.87359946032598,-21.348670616893358 L 83.62058646244122,-20.381207737553083 A 81.96399204423294 81.96399204423294 0 0 1 100.12931217859901,-14.096283834433788 L 98.76603007875555,-11.423932451055022 L 106.59201242312336,-11.36068416536217 L 101.94702164505695,-17.65941901227214 L 100.58373954521349,-14.987067628893374 A 82.96399204423294 82.96399204423294 0 0 0 83.87359946032598,-21.348670616893358"/><text text-anchor="middle" pointer-events="none" font-size="8px" fill="#000000" x="60.74418746531969" y="-20.52034847642973" font-family="sans-serif">twowheeler</text></g><g class="relationship" transform="translate(278.27012451185584 63.99455053255394) rotate(218.60361150547482)"><path class="outline" fill="#A5ABB6" stroke="none" d="M 21.40063509461097,12.933012701892217 L 21.90063509461097,12.06698729810778 A 49.487344010638935 49.487344010638935 0 0 0 22.980215627072813,12.67240978414052 L 22.502030912456277,13.550669073136149 A 50.487344010638935 50.487344010638935 0 0 1 21.40063509461097,12.933012701892217 Z M 67.73438859885898,15.081036042117184 L 67.31665853378595,14.172464860131932 A 49.487344010638935 49.487344010638935 0 0 0 68.43469052290497,13.641395199944874 L 67.11372348424415,10.947875925320758 L 74.93973000347138,11.008058655506948 L 70.19597990778608,17.23275423277703 L 68.87501286912526,14.539234958152914 A 50.487344010638935 50.487344010638935 0 0 1 67.73438859885898,15.081036042117184"/><text text-anchor="middle" pointer-events="none" font-size="8px" fill="#000000" x="44.95402966779259" y="22.16844844463884" transform="rotate(180 44.95402966779259 19.16844844463884)" font-family="sans-serif">twowheeler</text></g><g class="relationship" transform="translate(202.1650173413007 3.2327871158043355) rotate(466.22628070944404)"><path class="outline" fill="#A5ABB6" stroke="none" d="M 25 0.5 L 62.83429289957036 0.5 L 62.83429289957036 -0.5 L 25 -0.5 Z M 82.17023039957036 0.5 L 120.00452329914071 0.5 L 120.00452329914071 3.5 L 127.00452329914071 0 L 120.00452329914071 -3.5 L 120.00452329914071 -0.5 L 82.17023039957036 -0.5 Z"/><text text-anchor="middle" pointer-events="none" font-size="8px" fill="#000000" x="72.50226164957036" y="3" transform="rotate(180 72.50226164957036 0)" font-family="sans-serif">trek</text></g><g class="relationship" transform="translate(41.111636230792584 17.46909978924686) rotate(369.7065579127884)"><path class="outline" fill="#A5ABB6" stroke="none" d="M 24.018736134675446,6.953439040707552 L 24.277555179777966,5.987513214418485 A 117.43758155434669 117.43758155434669 0 0 0 43.28535316863279,9.435716356537384 L 43.18838859751787,10.431004190256104 A 118.43758155434669 118.43758155434669 0 0 1 24.018736134675446,6.953439040707552 Z M 62.582337308363435,10.724687133128413 L 62.5155536126164,9.726919656216907 A 117.43758155434669 117.43758155434669 0 0 0 81.61904467681201,6.855836506144716 L 80.93068564156948,3.935877287491145 L 88.5470093595441,5.736325293687743 L 82.53685672380206,10.749115464349478 L 81.84849768855953,7.8291562456959065 A 118.43758155434669 118.43758155434669 0 0 1 62.582337308363435,10.724687133128413"/><text text-anchor="middle" pointer-events="none" font-size="8px" fill="#000000" x="52.886911535090135" y="13.47558189898308" font-family="sans-serif">trek</text></g><g class="relationship" transform="translate(152.37566903006626 36.50091652543253) rotate(372.3192031179153)"><path class="outline" fill="#A5ABB6" stroke="none" d="M 25 0.5 L 49.92494426730653 0.5 L 49.92494426730653 -0.5 L 25 -0.5 Z M 71.93666301730653 0.5 L 96.86160728461306 0.5 L 96.86160728461306 3.5 L 103.86160728461306 0 L 96.86160728461306 -3.5 L 96.86160728461306 -0.5 L 71.93666301730653 -0.5 Z"/><text text-anchor="middle" pointer-events="none" font-size="8px" fill="#000000" x="60.93080364230653" y="3" font-family="sans-serif">road</text></g><g class="relationship" transform="translate(152.37566903006626 36.50091652543253) rotate(372.3192031179153)"><path class="outline" fill="#A5ABB6" stroke="none" d="M 21.40063509461097,12.933012701892217 L 21.90063509461097,12.06698729810778 A 81.96399204423294 81.96399204423294 0 0 0 51.18761673993134,22.209439335391593 L 51.044931957441925,23.199207516758293 A 82.96399204423294 82.96399204423294 0 0 1 21.40063509461097,12.933012701892217 Z M 70.44704819241747,23.702509486581448 L 70.35587108185055,22.706674794220973 A 81.96399204423294 81.96399204423294 0 0 0 100.12931217859901,14.096283834433788 L 98.76603007875555,11.423932451055022 L 106.59201242312336,11.36068416536217 L 101.94702164505695,17.65941901227214 L 100.58373954521349,14.987067628893374 A 82.96399204423294 82.96399204423294 0 0 1 70.44704819241747,23.702509486581448"/><text text-anchor="middle" pointer-events="none" font-size="8px" fill="#000000" x="60.7441874653197" y="26.52034847642973" font-family="sans-serif">trek</text></g><g class="relationship" transform="translate(278.27012451185584 63.99455053255394) rotate(218.60361150547482)"><path class="outline" fill="#A5ABB6" stroke="none" d="M 25 0.5 L 34.18700260433618 0.5 L 34.18700260433618 -0.5 L 25 -0.5 Z M 56.19872135433618 0.5 L 65.38572395867236 0.5 L 65.38572395867236 3.5 L 72.38572395867236 0 L 65.38572395867236 -3.5 L 65.38572395867236 -0.5 L 56.19872135433618 -0.5 Z"/><text text-anchor="middle" pointer-events="none" font-size="8px" fill="#000000" x="45.19286197933618" y="3" transform="rotate(180 45.19286197933618 0)" font-family="sans-serif">road</text></g><g class="relationship" transform="translate(278.27012451185584 63.99455053255394) rotate(218.60361150547482)"><path class="outline" fill="#A5ABB6" stroke="none" d="M 21.40063509461097,-12.933012701892217 L 21.90063509461097,-12.06698729810778 A 49.487344010638935 49.487344010638935 0 0 1 35.49587195932478,-17.424932737836727 L 35.27059344896042,-18.399227145481568 A 50.487344010638935 50.487344010638935 0 0 0 21.40063509461097,-12.933012701892217 Z M 54.66731323812574,-19.055485204761176 L 54.508402004124115,-18.068192330428495 A 49.487344010638935 49.487344010638935 0 0 1 68.43469052290497,-13.641395199944874 L 67.11372348424415,-10.947875925320758 L 74.93973000347138,-11.008058655506948 L 70.19597990778608,-17.23275423277703 L 68.87501286912526,-14.539234958152914 A 50.487344010638935 50.487344010638935 0 0 0 54.66731323812574,-19.055485204761176"/><text text-anchor="middle" pointer-events="none" font-size="8px" fill="#000000" x="44.95402966779258" y="-16.16844844463884" transform="rotate(180 44.95402966779258 -19.16844844463884)" font-family="sans-serif">trek</text></g><g class="relationship" transform="translate(41.111636230792584 17.46909978924686) rotate(303.42802442694835)"><path class="outline" fill="#A5ABB6" stroke="none" d="M 21.40063509461097,12.933012701892217 L 21.90063509461097,12.06698729810778 A 35.037930965218095 35.037930965218095 0 0 0 28.695707670692183,15.0797285254381 L 28.38964242622403,16.03173906431288 A 36.037930965218095 36.037930965218095 0 0 1 21.40063509461097,12.933012701892217 Z M 47.74192285809109,16.7870682320549 L 47.51099055820674,15.814098410904144 A 35.037930965218095 35.037930965218095 0 0 0 54.52021153998628,13.34014565354432 L 53.227274667279104,10.633059721551358 L 61.052234860087715,10.774473939226418 L 56.244127370262504,16.94959356286827 L 54.95119049755533,14.242507630875307 A 36.037930965218095 36.037930965218095 0 0 1 47.74192285809109,16.7870682320549"/><text text-anchor="middle" pointer-events="none" font-size="8px" fill="#000000" x="38.03359269425843" y="20.23414195491881" font-family="sans-serif">trek</text></g><g class="relationship" transform="translate(87.17217417548942 -52.311081533465504) rotate(385.78148208009594)"><path class="outline" fill="#A5ABB6" stroke="none" d="M 25 0.5 L 50.6843517322742 0.5 L 50.6843517322742 -0.5 L 25 -0.5 Z M 70.0202892322742 0.5 L 95.7046409645484 0.5 L 95.7046409645484 3.5 L 102.7046409645484 0 L 95.7046409645484 -3.5 L 95.7046409645484 -0.5 L 70.0202892322742 -0.5 Z"/><text text-anchor="middle" pointer-events="none" font-size="8px" fill="#000000" x="60.3523204822742" y="3" font-family="sans-serif">trek</text></g><g class="relationship" transform="translate(41.111636230792584 17.46909978924686) rotate(303.42802442694835)"><path class="outline" fill="#A5ABB6" stroke="none" d="M 25 0.5 L 27.2997827716812 0.5 L 27.2997827716812 -0.5 L 25 -0.5 Z M 49.3115015216812 0.5 L 51.6112842933624 0.5 L 51.6112842933624 3.5 L 58.6112842933624 0 L 51.6112842933624 -3.5 L 51.6112842933624 -0.5 L 49.3115015216812 -0.5 Z"/><text text-anchor="middle" pointer-events="none" font-size="8px" fill="#000000" x="38.3056421466812" y="3" font-family="sans-serif">road</text></g><g class="relationship" transform="translate(41.111636230792584 17.46909978924686) rotate(303.42802442694835)"><path class="outline" fill="#A5ABB6" stroke="none" d="M 21.40063509461097,-12.933012701892217 L 21.90063509461097,-12.06698729810778 A 35.037930965218095 35.037930965218095 0 0 1 23.045392143413604,-12.699722389230072 L 22.578064079719976,-13.58380636764183 A 36.037930965218095 36.037930965218095 0 0 0 21.40063509461097,-12.933012701892217 Z M 53.72661906811426,-14.799550021139552 L 53.3296201808945,-13.881730930279993 A 35.037930965218095 35.037930965218095 0 0 1 54.52021153998628,-13.34014565354432 L 53.227274667279104,-10.633059721551358 L 61.052234860087715,-10.774473939226418 L 56.244127370262504,-16.94959356286827 L 54.95119049755533,-14.242507630875307 A 36.037930965218095 36.037930965218095 0 0 0 53.72661906811426,-14.799550021139552"/><text text-anchor="middle" pointer-events="none" font-size="8px" fill="#000000" x="38.03359269425843" y="-14.234141954918812" font-family="sans-serif">Publi…</text></g><g class="relationship" transform="translate(87.17217417548942 -52.311081533465504) rotate(494.50735931369127)"><path class="outline" fill="#A5ABB6" stroke="none" d="M 24.018736134675446,-6.953439040707552 L 24.277555179777966,-5.987513214418485 A 187.02065079174912 187.02065079174912 0 0 1 47.40077687937041,-10.643458307740644 L 47.26559777243355,-11.634279486888403 A 188.02065079174912 188.02065079174912 0 0 0 24.018736134675446,-6.953439040707552 Z M 93.73205942044368,-12.178037258084657 L 93.6201036437795,-11.18432406803862 A 187.02065079174912 187.02065079174912 0 0 1 116.84594747078151,-7.070762958215869 L 116.13751416379112,-4.1556090601263245 L 123.76604545082219,-5.903610891586558 L 117.79052521343537,-10.957634822335262 L 117.08209190644499,-8.042480924245716 A 188.02065079174912 188.02065079174912 0 0 0 93.73205942044368,-12.178037258084657"/><text text-anchor="middle" pointer-events="none" font-size="8px" fill="#000000" x="70.48781580623795" y="-9.847249094502018" transform="rotate(180 70.48781580623795 -12.847249094502018)" font-family="sans-serif">twowheeler</text></g><g class="relationship" transform="translate(-16.617310064756357 53.278732575524344) rotate(418.30254407234065)"><path class="outline" fill="#A5ABB6" stroke="none" d="M 24.018736134675446,-6.953439040707552 L 24.277555179777966,-5.987513214418485 A 121.44613140273425 121.44613140273425 0 0 1 30.93951110637456,-7.572701269571084 L 30.735547295025878,-8.551679698169025 A 122.44613140273425 122.44613140273425 0 0 0 24.018736134675446,-6.953439040707552 Z M 77.10404495580453,-9.242219970494858 L 76.92932389463347,-8.257601998495943 A 121.44613140273425 121.44613140273425 0 0 1 83.6355296147234,-6.871498547108861 L 82.94570765782738,-3.9518845884177183 L 90.56293251115206,-5.748516307466707 L 84.55529222391807,-10.764317158697052 L 83.86547026702206,-7.844703200005909 A 122.44613140273425 122.44613140273425 0 0 0 77.10404495580453,-9.242219970494858"/><text text-anchor="middle" pointer-events="none" font-size="8px" fill="#000000" x="53.89425231736722" y="-7.612169136069596" font-family="sans-serif">twowheeler</text></g><g class="relationship" transform="translate(43.751389503307315 151.03369553258275) rotate(359.0851384904952)"><path class="outline" fill="#A5ABB6" stroke="none" d="M 24.018736134675446,6.953439040707552 L 24.277555179777966,5.987513214418485 A 123.5562209291372 123.5562209291372 0 0 0 31.462931146127307,7.68446264326586 L 31.262266809159396,8.664122698524437 A 124.5562209291372 124.5562209291372 0 0 1 24.018736134675446,6.953439040707552 Z M 77.6371160907344,9.34878910933024 L 77.46545980866266,8.363632207702224 A 123.5562209291372 123.5562209291372 0 0 0 84.69779982672775,6.8795422491925535 L 84.0072265480442,3.9601059086007173 L 91.62491350122264,5.754777322362911 L 85.61856419830582,10.772124036648336 L 84.92799091962227,7.852687696056499 A 124.5562209291372 124.5562209291372 0 0 1 77.6371160907344,9.34878910933024"/><text text-anchor="middle" pointer-events="none" font-size="8px" fill="#000000" x="54.42492356383685" y="13.684071407256411" font-family="sans-serif">twowheeler</text></g><g class="relationship" transform="translate(87.17217417548942 -52.311081533465504) rotate(494.50735931369127)"><path class="outline" fill="#A5ABB6" stroke="none" d="M 24.018736134675446,6.953439040707552 L 24.277555179777966,5.987513214418485 A 187.02065079174912 187.02065079174912 0 0 0 60.859314928350585,11.98601833863006 L 60.79609866611565,12.984018190428145 A 188.02065079174912 188.02065079174912 0 0 1 24.018736134675446,6.953439040707552 Z M 80.17367838536705,13.210777646294105 L 80.13383373574123,12.21157175965402 A 187.02065079174912 187.02065079174912 0 0 0 116.84594747078151,7.070762958215869 L 116.13751416379112,4.1556090601263245 L 123.76604545082219,5.903610891586558 L 117.79052521343537,10.957634822335262 L 117.08209190644499,8.042480924245716 A 188.02065079174912 188.02065079174912 0 0 1 80.17367838536705,13.210777646294105"/><text text-anchor="middle" pointer-events="none" font-size="8px" fill="#000000" x="70.48781580623798" y="15.847249094502018" transform="rotate(180 70.48781580623798 12.847249094502018)" font-family="sans-serif">trek</text></g><g class="relationship" transform="translate(-16.617310064756357 53.278732575524344) rotate(418.30254407234065)"><path class="outline" fill="#A5ABB6" stroke="none" d="M 24.018736134675446,6.953439040707552 L 24.277555179777966,5.987513214418485 A 121.44613140273425 121.44613140273425 0 0 0 44.29019927842063,9.587573363301345 L 44.196166413556966,10.583142456998772 A 122.44613140273425 122.44613140273425 0 0 1 24.018736134675446,6.953439040707552 Z M 63.588901761723186,10.871947689517498 L 63.524556937345025,9.874019964892241 A 121.44613140273425 121.44613140273425 0 0 0 83.6355296147234,6.871498547108861 L 82.94570765782738,3.9518845884177183 L 90.56293251115206,5.748516307466707 L 84.55529222391807,10.764317158697052 L 83.86547026702206,7.844703200005909 A 122.44613140273425 122.44613140273425 0 0 1 63.588901761723186,10.871947689517498"/><text text-anchor="middle" pointer-events="none" font-size="8px" fill="#000000" x="53.89425231736727" y="13.612169136069596" font-family="sans-serif">trek</text></g><g class="relationship" transform="translate(43.751389503307315 151.03369553258275) rotate(359.0851384904952)"><path class="outline" fill="#A5ABB6" stroke="none" d="M 24.018736134675446,-6.953439040707552 L 24.277555179777966,-5.987513214418485 A 123.5562209291372 123.5562209291372 0 0 1 44.81963002222886,-9.667151343995343 L 44.727067881780556,-10.662858253761286 A 124.5562209291372 124.5562209291372 0 0 0 24.018736134675446,-6.953439040707552 Z M 64.1191787546597,-10.949158417642508 L 64.05605127376094,-9.951152946136787 A 123.5562209291372 123.5562209291372 0 0 1 84.69779982672775,-6.8795422491925535 L 84.0072265480442,-3.9601059086007173 L 91.62491350122264,-5.754777322362911 L 85.61856419830582,-10.772124036648336 L 84.92799091962227,-7.852687696056499 A 124.5562209291372 124.5562209291372 0 0 0 64.1191787546597,-10.949158417642508"/><text text-anchor="middle" pointer-events="none" font-size="8px" fill="#000000" x="54.42492356383681" y="-7.684071407256411" font-family="sans-serif">trek</text></g><g class="relationship" transform="translate(87.17217417548942 -52.311081533465504) rotate(413.71483790471694)"><path class="outline" fill="#A5ABB6" stroke="none" d="M 25 0.5 L 41.92074774545063 0.5 L 41.92074774545063 -0.5 L 25 -0.5 Z M 61.25668524545063 0.5 L 78.17743299090127 0.5 L 78.17743299090127 3.5 L 85.17743299090127 0 L 78.17743299090127 -3.5 L 78.17743299090127 -0.5 L 61.25668524545063 -0.5 Z"/><text text-anchor="middle" pointer-events="none" font-size="8px" fill="#000000" x="51.58871649545063" y="3" font-family="sans-serif">trek</text></g><g class="relationship" transform="translate(-16.617310064756357 53.278732575524344) rotate(465.89371916673315)"><path class="outline" fill="#A5ABB6" stroke="none" d="M 24.018736134675446,-6.953439040707552 L 24.277555179777966,-5.987513214418485 A 148.22676496941614 148.22676496941614 0 0 1 37.62063848748407,-8.911186172879553 L 37.45183748541486,-9.896836324657784 A 149.22676496941614 149.22676496941614 0 0 0 24.018736134675446,-6.953439040707552 Z M 83.8793485041691,-10.51920371481964 L 83.73702897080172,-9.529382948002706 A 148.22676496941614 148.22676496941614 0 0 1 97.15368811449623,-6.964428144046087 L 96.45518626483731,-4.0468786301520945 L 104.0777206218587,-5.820848747157614 L 98.08502391404146,-10.85449416257141 L 97.38652206438253,-7.936944648677418 A 149.22676496941614 149.22676496941614 0 0 0 83.8793485041691,-10.51920371481964"/><text text-anchor="middle" pointer-events="none" font-size="8px" fill="#000000" x="60.64794061290564" y="-8.524856614152952" transform="rotate(180 60.64794061290564 -11.524856614152952)" font-family="sans-serif">twowheeler</text></g><g class="relationship" transform="translate(-51.777571550505165 176.76116337204067) rotate(344.926964122845)"><path class="outline" fill="#A5ABB6" stroke="none" d="M 21.40063509461097,12.933012701892217 L 21.90063509461097,12.06698729810778 A 51.09841601221595 51.09841601221595 0 0 0 23.691678376858867,13.053799217268548 L 23.22672923404825,13.939136607532667 A 52.09841601221595 52.09841601221595 0 0 1 21.40063509461097,12.933012701892217 Z M 68.54746818434843,15.449901177899513 L 68.14251105323945,14.535565505422511 A 51.09841601221595 51.09841601221595 0 0 0 69.99529589693914,13.670220414929847 L 68.67164707047667,10.978018010911061 L 76.49770964406005,11.030406887187219 L 71.76016099888909,17.25982362028823 L 70.43651217242662,14.567621216269444 A 52.09841601221595 52.09841601221595 0 0 1 68.54746818434843,15.449901177899513"/><text text-anchor="middle" pointer-events="none" font-size="8px" fill="#000000" x="45.730767348429524" y="22.384232253831144" font-family="sans-serif">twowheeler</text></g><g class="relationship" transform="translate(-16.617310064756357 53.278732575524344) rotate(465.89371916673315)"><path class="outline" fill="#A5ABB6" stroke="none" d="M 24.018736134675446,6.953439040707552 L 24.277555179777966,5.987513214418485 A 148.22676496941614 148.22676496941614 0 0 0 51.0310221741316,10.582801399540188 L 50.95269325171289,11.579728969583613 A 149.22676496941614 149.22676496941614 0 0 1 24.018736134675446,6.953439040707552 Z M 70.33823329098162,11.83959489167114 L 70.28665562430258,10.840925905319835 A 148.22676496941614 148.22676496941614 0 0 0 97.15368811449623,6.964428144046087 L 96.45518626483731,4.0468786301520945 L 104.0777206218587,5.820848747157614 L 98.08502391404146,10.85449416257141 L 97.38652206438253,7.936944648677418 A 149.22676496941614 149.22676496941614 0 0 1 70.33823329098162,11.83959489167114"/><text text-anchor="middle" pointer-events="none" font-size="8px" fill="#000000" x="60.6479406129057" y="14.524856614152952" transform="rotate(180 60.6479406129057 11.524856614152952)" font-family="sans-serif">trek</text></g><g class="relationship" transform="translate(-51.777571550505165 176.76116337204067) rotate(344.926964122845)"><path class="outline" fill="#A5ABB6" stroke="none" d="M 25 0.5 L 34.96050546377495 0.5 L 34.96050546377495 -0.5 L 25 -0.5 Z M 56.97222421377495 0.5 L 66.9327296775499 0.5 L 66.9327296775499 3.5 L 73.9327296775499 0 L 66.9327296775499 -3.5 L 66.9327296775499 -0.5 L 56.97222421377495 -0.5 Z"/><text text-anchor="middle" pointer-events="none" font-size="8px" fill="#000000" x="45.96636483877495" y="3" font-family="sans-serif">road</text></g><g class="relationship" transform="translate(-51.777571550505165 176.76116337204067) rotate(344.926964122845)"><path class="outline" fill="#A5ABB6" stroke="none" d="M 21.40063509461097,-12.933012701892217 L 21.90063509461097,-12.06698729810778 A 51.09841601221595 51.09841601221595 0 0 1 36.264144982889384,-17.6735451314796 L 36.04523999540101,-18.64929131079711 A 52.09841601221595 52.09841601221595 0 0 0 21.40063509461097,-12.933012701892217 Z M 55.44373716412898,-19.29593924548798 L 55.290298831924495,-18.307781020196956 A 51.09841601221595 51.09841601221595 0 0 1 69.99529589693914,-13.670220414929847 L 68.67164707047667,-10.978018010911061 L 76.49770964406005,-11.030406887187219 L 71.76016099888909,-17.25982362028823 L 70.43651217242662,-14.567621216269444 A 52.09841601221595 52.09841601221595 0 0 0 55.44373716412898,-19.29593924548798"/><text text-anchor="middle" pointer-events="none" font-size="8px" fill="#000000" x="45.730767348429524" y="-16.384232253831144" font-family="sans-serif">trek</text></g><g class="relationship" transform="translate(-51.777571550505165 176.76116337204067) rotate(388.0948775537656)"><path class="outline" fill="#A5ABB6" stroke="none" d="M 25 0.5 L 51.476784696452114 0.5 L 51.476784696452114 -0.5 L 25 -0.5 Z M 70.81272219645211 0.5 L 97.28950689290423 0.5 L 97.28950689290423 3.5 L 104.28950689290423 0 L 97.28950689290423 -3.5 L 97.28950689290423 -0.5 L 70.81272219645211 -0.5 Z"/><text text-anchor="middle" pointer-events="none" font-size="8px" fill="#000000" x="61.144753446452114" y="3" font-family="sans-serif">trek</text></g><g class="relationship" transform="translate(62.277619916745756 237.64786053964093) rotate(317.7557250818951)"><path class="outline" fill="#A5ABB6" stroke="none" d="M 25 0.5 L 52.62594680188383 0.5 L 52.62594680188383 -0.5 L 25 -0.5 Z M 71.96188430188383 0.5 L 99.58783110376766 0.5 L 99.58783110376766 3.5 L 106.58783110376766 0 L 99.58783110376766 -3.5 L 99.58783110376766 -0.5 L 71.96188430188383 -0.5 Z"/><text text-anchor="middle" pointer-events="none" font-size="8px" fill="#000000" x="62.29391555188383" y="3" font-family="sans-serif">trek</text></g></g><g class="layer nodes"><g class="node" transform="translate(41.111636230792584,17.46909978924686)"><circle class="outline" cx="0" cy="0" r="25" fill="#F16667" stroke="#eb2728" stroke-width="2px"/><text text-anchor="middle" pointer-events="none" font-family="sans-serif" dy="1.5625" font-size="25" fill="#FFFFFF"/><text text-anchor="middle" pointer-events="none" x="0" y="5" font-size="10px" fill="#FFFFFF" font-family="sans-serif"> Darjeeling</text></g><g class="node" transform="translate(159.69015795640755,149.1823038112445)"><circle class="outline" cx="0" cy="0" r="25" fill="#D9C8AE" stroke="#c0a378" stroke-width="2px"/><text text-anchor="middle" pointer-events="none" font-family="sans-serif" dy="1.5625" font-size="25" fill="#2A2C34"/><text text-anchor="middle" pointer-events="none" x="0" y="5" font-size="10px" fill="#2A2C34" font-family="sans-serif"> Sandak…</text></g><g class="node" transform="translate(152.37566903006626,36.50091652543253)"><circle class="outline" cx="0" cy="0" r="25" fill="#8DCC93" stroke="#5db665" stroke-width="2px"/><text text-anchor="middle" pointer-events="none" font-family="sans-serif" dy="1.5625" font-size="25" fill="#2A2C34"/><text text-anchor="middle" pointer-events="none" x="0" y="5" font-size="10px" fill="#2A2C34" font-family="sans-serif"> Tumbling</text></g><g class="node" transform="translate(278.27012451185584,63.99455053255394)"><circle class="outline" cx="0" cy="0" r="25" fill="#8DCC93" stroke="#5db665" stroke-width="2px"/><text text-anchor="middle" pointer-events="none" font-family="sans-serif" dy="1.5625" font-size="25" fill="#2A2C34"/><text text-anchor="middle" pointer-events="none" x="0" y="5" font-size="10px" fill="#2A2C34" font-family="sans-serif"> Gairibus</text></g><g class="node" transform="translate(202.1650173413007,3.2327871158043355)"><circle class="outline" cx="0" cy="0" r="25" fill="#8DCC93" stroke="#5db665" stroke-width="2px"/><text text-anchor="middle" pointer-events="none" font-family="sans-serif" dy="1.5625" font-size="25" fill="#2A2C34"/><text text-anchor="middle" pointer-events="none" x="0" y="5" font-size="10px" fill="#2A2C34" font-family="sans-serif"> BhikeBh…</text></g><g class="node" transform="translate(87.17217417548942,-52.311081533465504)"><circle class="outline" cx="0" cy="0" r="25" fill="#F16667" stroke="#eb2728" stroke-width="2px"/><text text-anchor="middle" pointer-events="none" font-family="sans-serif" dy="1.5625" font-size="25" fill="#FFFFFF"/><text text-anchor="middle" pointer-events="none" x="0" y="5" font-size="10px" fill="#FFFFFF" font-family="sans-serif"> Rimbik</text></g><g class="node" transform="translate(-16.617310064756357,53.278732575524344)"><circle class="outline" cx="0" cy="0" r="25" fill="#8DCC93" stroke="#5db665" stroke-width="2px"/><text text-anchor="middle" pointer-events="none" font-family="sans-serif" dy="1.5625" font-size="25" fill="#2A2C34"/><text text-anchor="middle" pointer-events="none" x="0" y="5" font-size="10px" fill="#2A2C34" font-family="sans-serif"> Sirikhola</text></g><g class="node" transform="translate(43.751389503307315,151.03369553258275)"><circle class="outline" cx="0" cy="0" r="25" fill="#8DCC93" stroke="#5db665" stroke-width="2px"/><text text-anchor="middle" pointer-events="none" font-family="sans-serif" dy="1.5625" font-size="25" fill="#2A2C34"/><text text-anchor="middle" pointer-events="none" x="0" y="5" font-size="10px" fill="#2A2C34" font-family="sans-serif"> Gurdum</text></g><g class="node" transform="translate(-51.777571550505165,176.76116337204067)"><circle class="outline" cx="0" cy="0" r="25" fill="#8DCC93" stroke="#5db665" stroke-width="2px"/><text text-anchor="middle" pointer-events="none" font-family="sans-serif" dy="1.5625" font-size="25" fill="#2A2C34"/><text text-anchor="middle" pointer-events="none" x="0" y="5" font-size="10px" fill="#2A2C34" font-family="sans-serif"> Rammam</text></g><g class="node" transform="translate(62.277619916745756,237.64786053964093)"><circle class="outline" cx="0" cy="0" r="25" fill="#D9C8AE" stroke="#c0a378" stroke-width="2px"/><text text-anchor="middle" pointer-events="none" font-family="sans-serif" dy="1.5625" font-size="25" fill="#2A2C34"/><text text-anchor="middle" pointer-events="none" x="0" y="5" font-size="10px" fill="#2A2C34" font-family="sans-serif"> Sabargr…</text></g></g></svg>