<svg xmlns="http://www.w3.org/2000/svg" width="498.93365478515625" height="444.941162109375" viewBox="-147.146240234375 -86.492431640625 498.93365478515625 444.941162109375"><title>Neo4j Graph Visualization</title><desc>Created using Neo4j (http://www.neo4j.com/)</desc><g class="layer relationships"><g class="relationship" transform="translate(322.78740531006207 230.24967133268456) rotate(487.03014951172736)"><path class="outline" fill="#A5ABB6" stroke="none" d="M 25 0.5 L 29.03621412114827 0.5 L 29.03621412114827 -0.5 L 25 -0.5 Z M 88.22371412114828 0.5 L 92.25992824229654 0.5 L 92.25992824229654 3.5 L 99.25992824229654 0 L 92.25992824229654 -3.5 L 92.25992824229654 -0.5 L 88.22371412114828 -0.5 Z"/><text text-anchor="middle" pointer-events="none" font-size="8px" fill="#000000" x="58.62996412114827" y="3" transform="rotate(180 58.62996412114827 0)" font-family="sans-serif">DESTINATION</text></g><g class="relationship" transform="translate(322.78740531006207 230.24967133268456) rotate(253.43774235126506)"><path class="outline" fill="#A5ABB6" stroke="none" d="M 25 0.5 L 41.12583511521817 0.5 L 41.12583511521817 -0.5 L 25 -0.5 Z M 75.57114761521817 0.5 L 91.69698273043635 0.5 L 91.69698273043635 3.5 L 98.69698273043635 0 L 91.69698273043635 -3.5 L 91.69698273043635 -0.5 L 75.57114761521817 -0.5 Z"/><text text-anchor="middle" pointer-events="none" font-size="8px" fill="#000000" x="58.34849136521817" y="3" transform="rotate(180 58.34849136521817 0)" font-family="sans-serif">ORIGIN</text></g><g class="relationship" transform="translate(222.9680501779095 -7.310502474915994) rotate(421.5187906406886)"><path class="outline" fill="#A5ABB6" stroke="none" d="M 25 0.5 L 34.59617617824681 0.5 L 34.59617617824681 -0.5 L 25 -0.5 Z M 93.78367617824681 0.5 L 103.37985235649361 0.5 L 103.37985235649361 3.5 L 110.37985235649361 0 L 103.37985235649361 -3.5 L 103.37985235649361 -0.5 L 93.78367617824681 -0.5 Z"/><text text-anchor="middle" pointer-events="none" font-size="8px" fill="#000000" x="64.18992617824681" y="3" font-family="sans-serif">DESTINATION</text></g><g class="relationship" transform="translate(222.9680501779095 -7.310502474915994) rotate(533.5405766870543)"><path class="outline" fill="#A5ABB6" stroke="none" d="M 25 0.5 L 48.63071653686622 0.5 L 48.63071653686622 -0.5 L 25 -0.5 Z M 83.07602903686622 0.5 L 106.70674557373243 0.5 L 106.70674557373243 3.5 L 113.70674557373243 0 L 106.70674557373243 -3.5 L 106.70674557373243 -0.5 L 83.07602903686622 -0.5 Z"/><text text-anchor="middle" pointer-events="none" font-size="8px" fill="#000000" x="65.85337278686622" y="3" transform="rotate(180 65.85337278686622 0)" font-family="sans-serif">ORIGIN</text></g><g class="relationship" transform="translate(-6.726639389290224 -57.492432273429664) rotate(395.60618421626884)"><path class="outline" fill="#A5ABB6" stroke="none" d="M 25 0.5 L 35.77439178338976 0.5 L 35.77439178338976 -0.5 L 25 -0.5 Z M 70.21970428338976 0.5 L 80.99409606677952 0.5 L 80.99409606677952 3.5 L 87.99409606677952 0 L 80.99409606677952 -3.5 L 80.99409606677952 -0.5 L 70.21970428338976 -0.5 Z"/><text text-anchor="middle" pointer-events="none" font-size="8px" fill="#000000" x="52.99704803338976" y="3" font-family="sans-serif">ORIGIN</text></g><g class="relationship" transform="translate(-6.726639389290224 -57.492432273429664) rotate(494.79065299470454)"><path class="outline" fill="#A5ABB6" stroke="none" d="M 25 0.5 L 45.98125124792897 0.5 L 45.98125124792897 -0.5 L 25 -0.5 Z M 105.16875124792897 0.5 L 126.15000249585793 0.5 L 126.15000249585793 3.5 L 133.15000249585793 0 L 126.15000249585793 -3.5 L 126.15000249585793 -0.5 L 105.16875124792897 -0.5 Z"/><text text-anchor="middle" pointer-events="none" font-size="8px" fill="#000000" x="75.57500124792897" y="3" transform="rotate(180 75.57500124792897 0)" font-family="sans-serif">DESTINATION</text></g><g class="relationship" transform="translate(-22.72426562730825 8.150023455719449) rotate(360.07644627811567)"><path class="outline" fill="#A5ABB6" stroke="none" d="M 25 0.5 L 33.2104475710651 0.5 L 33.2104475710651 -0.5 L 25 -0.5 Z M 67.6557600710651 0.5 L 75.8662076421302 0.5 L 75.8662076421302 3.5 L 82.8662076421302 0 L 75.8662076421302 -3.5 L 75.8662076421302 -0.5 L 67.6557600710651 -0.5 Z"/><text text-anchor="middle" pointer-events="none" font-size="8px" fill="#000000" x="50.4331038210651" y="3" font-family="sans-serif">ORIGIN</text></g><g class="relationship" transform="translate(-22.72426562730825 8.150023455719449) rotate(513.9738451936541)"><path class="outline" fill="#A5ABB6" stroke="none" d="M 25 0.5 L 25.259222413100176 0.5 L 25.259222413100176 -0.5 L 25 -0.5 Z M 73.93109741310018 0.5 L 74.19031982620035 0.5 L 74.19031982620035 3.5 L 81.19031982620035 0 L 74.19031982620035 -3.5 L 74.19031982620035 -0.5 L 73.93109741310018 -0.5 Z"/><text text-anchor="middle" pointer-events="none" font-size="8px" fill="#000000" x="49.595159913100176" y="3" transform="rotate(180 49.595159913100176 0)" font-family="sans-serif">DESTINA…</text></g><g class="relationship" transform="translate(-62.63683250517906 -36.51199546396865) rotate(376.86710571199535)"><path class="outline" fill="#A5ABB6" stroke="none" d="M 25 0.5 L 56.48827225143799 0.5 L 56.48827225143799 -0.5 L 25 -0.5 Z M 90.93358475143799 0.5 L 122.42185700287598 0.5 L 122.42185700287598 3.5 L 129.42185700287598 0 L 122.42185700287598 -3.5 L 122.42185700287598 -0.5 L 90.93358475143799 -0.5 Z"/><text text-anchor="middle" pointer-events="none" font-size="8px" fill="#000000" x="73.71092850143799" y="3" font-family="sans-serif">ORIGIN</text></g><g class="relationship" transform="translate(-62.63683250517906 -36.51199546396865) rotate(481.3113059435534)"><path class="outline" fill="#A5ABB6" stroke="none" d="M 25 0.5 L 25.570559943965037 0.5 L 25.570559943965037 -0.5 L 25 -0.5 Z M 74.24243494396504 0.5 L 74.81299488793007 0.5 L 74.81299488793007 3.5 L 81.81299488793007 0 L 74.81299488793007 -3.5 L 74.81299488793007 -0.5 L 74.24243494396504 -0.5 Z"/><text text-anchor="middle" pointer-events="none" font-size="8px" fill="#000000" x="49.90649744396504" y="3" transform="rotate(180 49.90649744396504 0)" font-family="sans-serif">DESTINA…</text></g><g class="relationship" transform="translate(-6.779346232334256 126.79476918643178) rotate(307.80076346791)"><path class="outline" fill="#A5ABB6" stroke="none" d="M 25 0.5 L 54.26392830048938 0.5 L 54.26392830048938 -0.5 L 25 -0.5 Z M 88.70924080048938 0.5 L 117.97316910097877 0.5 L 117.97316910097877 3.5 L 124.97316910097877 0 L 117.97316910097877 -3.5 L 117.97316910097877 -0.5 L 88.70924080048938 -0.5 Z"/><text text-anchor="middle" pointer-events="none" font-size="8px" fill="#000000" x="71.48658455048938" y="3" font-family="sans-serif">ORIGIN</text></g><g class="relationship" transform="translate(-6.779346232334256 126.79476918643178) rotate(212.90142878933898)"><path class="outline" fill="#A5ABB6" stroke="none" d="M 25 0.5 L 33.2271460609 0.5 L 33.2271460609 -0.5 L 25 -0.5 Z M 92.4146460609 0.5 L 100.6417921218 0.5 L 100.6417921218 3.5 L 107.6417921218 0 L 100.6417921218 -3.5 L 100.6417921218 -0.5 L 92.4146460609 -0.5 Z"/><text text-anchor="middle" pointer-events="none" font-size="8px" fill="#000000" x="62.8208960609" y="3" transform="rotate(180 62.8208960609 0)" font-family="sans-serif">DESTINATION</text></g><g class="relationship" transform="translate(195.23894950898375 45.80867325612176) rotate(395.5197108692844)"><path class="outline" fill="#A5ABB6" stroke="none" d="M 25 0.5 L 25.59993551708878 0.5 L 25.59993551708878 -0.5 L 25 -0.5 Z M 80.78743551708878 0.5 L 81.38737103417756 0.5 L 81.38737103417756 3.5 L 88.38737103417756 0 L 81.38737103417756 -3.5 L 81.38737103417756 -0.5 L 80.78743551708878 -0.5 Z"/><text text-anchor="middle" pointer-events="none" font-size="8px" fill="#000000" x="53.19368551708878" y="3" font-family="sans-serif">DESTINATI…</text></g><g class="relationship" transform="translate(195.23894950898375 45.80867325612176) rotate(198.81614361676947)"><path class="outline" fill="#A5ABB6" stroke="none" d="M 25 0.5 L 37.43387220103166 0.5 L 37.43387220103166 -0.5 L 25 -0.5 Z M 71.87918470103166 0.5 L 84.31305690206332 0.5 L 84.31305690206332 3.5 L 91.31305690206332 0 L 84.31305690206332 -3.5 L 84.31305690206332 -0.5 L 71.87918470103166 -0.5 Z"/><text text-anchor="middle" pointer-events="none" font-size="8px" fill="#000000" x="54.65652845103166" y="3" transform="rotate(180 54.65652845103166 0)" font-family="sans-serif">ORIGIN</text></g><g class="relationship" transform="translate(163.46110866115924 105.39672331646808) rotate(362.9014702867265)"><path class="outline" fill="#A5ABB6" stroke="none" d="M 25 0.5 L 29.018675478751135 0.5 L 29.018675478751135 -0.5 L 25 -0.5 Z M 88.20617547875113 0.5 L 92.22485095750227 0.5 L 92.22485095750227 3.5 L 99.22485095750227 0 L 92.22485095750227 -3.5 L 92.22485095750227 -0.5 L 88.20617547875113 -0.5 Z"/><text text-anchor="middle" pointer-events="none" font-size="8px" fill="#000000" x="58.612425478751135" y="3" font-family="sans-serif">DESTINATION</text></g><g class="relationship" transform="translate(163.46110866115924 105.39672331646808) rotate(231.11172517084674)"><path class="outline" fill="#A5ABB6" stroke="none" d="M 25 0.5 L 41.6529337244714 0.5 L 41.6529337244714 -0.5 L 25 -0.5 Z M 76.09824622447141 0.5 L 92.7511799489428 0.5 L 92.7511799489428 3.5 L 99.7511799489428 0 L 92.7511799489428 -3.5 L 92.7511799489428 -0.5 L 76.09824622447141 -0.5 Z"/><text text-anchor="middle" pointer-events="none" font-size="8px" fill="#000000" x="58.8755899744714" y="3" transform="rotate(180 58.8755899744714 0)" font-family="sans-serif">ORIGIN</text></g><g class="relationship" transform="translate(-12.28718701420596 67.30326251630976) rotate(328.7981929088649)"><path class="outline" fill="#A5ABB6" stroke="none" d="M 25 0.5 L 36.230210875027964 0.5 L 36.230210875027964 -0.5 L 25 -0.5 Z M 70.67552337502796 0.5 L 81.90573425005593 0.5 L 81.90573425005593 3.5 L 88.90573425005593 0 L 81.90573425005593 -3.5 L 81.90573425005593 -0.5 L 70.67552337502796 -0.5 Z"/><text text-anchor="middle" pointer-events="none" font-size="8px" fill="#000000" x="53.452867125027964" y="3" font-family="sans-serif">ORIGIN</text></g><g class="relationship" transform="translate(-12.28718701420596 67.30326251630976) rotate(186.7658306477332)"><path class="outline" fill="#A5ABB6" stroke="none" d="M 25 0.5 L 25.46477468311054 0.5 L 25.46477468311054 -0.5 L 25 -0.5 Z M 74.13664968311053 0.5 L 74.60142436622108 0.5 L 74.60142436622108 3.5 L 81.60142436622108 0 L 74.60142436622108 -3.5 L 74.60142436622108 -0.5 L 74.13664968311053 -0.5 Z"/><text text-anchor="middle" pointer-events="none" font-size="8px" fill="#000000" x="49.80071218311054" y="3" transform="rotate(180 49.80071218311054 0)" font-family="sans-serif">DESTINA…</text></g><g class="relationship" transform="translate(236.6431966468481 223.2688539445474) rotate(443.91965790651903)"><path class="outline" fill="#A5ABB6" stroke="none" d="M 25 0.5 L 25.554339910017596 0.5 L 25.554339910017596 -0.5 L 25 -0.5 Z M 74.2262149100176 0.5 L 74.78055482003519 0.5 L 74.78055482003519 3.5 L 81.78055482003519 0 L 74.78055482003519 -3.5 L 74.78055482003519 -0.5 L 74.2262149100176 -0.5 Z"/><text text-anchor="middle" pointer-events="none" font-size="8px" fill="#000000" x="49.890277410017596" y="3" font-family="sans-serif">DESTINA…</text></g><g class="relationship" transform="translate(236.6431966468481 223.2688539445474) rotate(294.5134911411853)"><path class="outline" fill="#A5ABB6" stroke="none" d="M 25 0.5 L 40.5964505360358 0.5 L 40.5964505360358 -0.5 L 25 -0.5 Z M 75.0417630360358 0.5 L 90.6382135720716 0.5 L 90.6382135720716 3.5 L 97.6382135720716 0 L 90.6382135720716 -3.5 L 90.6382135720716 -0.5 L 75.0417630360358 -0.5 Z"/><text text-anchor="middle" pointer-events="none" font-size="8px" fill="#000000" x="57.8191067860358" y="3" font-family="sans-serif">ORIGIN</text></g></g><g class="layer nodes"><g class="node" transform="translate(247.95370401387373,329.4486981277774)"><circle class="outline" cx="0" cy="0" r="25" fill="#ECB5C9" stroke="#da7298" stroke-width="2px"/><text text-anchor="middle" pointer-events="none" font-family="sans-serif" dy="1.5625" font-size="25" fill="#2A2C34"/><text text-anchor="middle" pointer-events="none" x="0" y="5" font-size="10px" fill="#2A2C34" font-family="sans-serif"> LAX</text></g><g class="node" transform="translate(-118.14623307316305,54.74435952302432)"><circle class="outline" cx="0" cy="0" r="25" fill="#ECB5C9" stroke="#da7298" stroke-width="2px"/><text text-anchor="middle" pointer-events="none" font-family="sans-serif" dy="1.5625" font-size="25" fill="#2A2C34"/><text text-anchor="middle" pointer-events="none" x="0" y="5" font-size="10px" fill="#2A2C34" font-family="sans-serif"> DAY</text></g><g class="node" transform="translate(322.78740531006207,230.24967133268456)"><circle class="outline" cx="0" cy="0" r="25" fill="#4C8EDA" stroke="#2870c2" stroke-width="2px"/><text text-anchor="middle" pointer-events="none" font-family="sans-serif" dy="1.5625" font-size="25" fill="#FFFFFF"/><text text-anchor="middle" pointer-events="none" x="0" y="5" font-size="10px" fill="#FFFFFF" font-family="sans-serif"> 11/30/20…</text></g><g class="node" transform="translate(287.52671063589406,111.68480744920107)"><circle class="outline" cx="0" cy="0" r="25" fill="#ECB5C9" stroke="#da7298" stroke-width="2px"/><text text-anchor="middle" pointer-events="none" font-family="sans-serif" dy="1.5625" font-size="25" fill="#2A2C34"/><text text-anchor="middle" pointer-events="none" x="0" y="5" font-size="10px" fill="#2A2C34" font-family="sans-serif"> ORD</text></g><g class="node" transform="translate(222.9680501779095,-7.310502474915994)"><circle class="outline" cx="0" cy="0" r="25" fill="#4C8EDA" stroke="#2870c2" stroke-width="2px"/><text text-anchor="middle" pointer-events="none" font-family="sans-serif" dy="1.5625" font-size="25" fill="#FFFFFF"/><text text-anchor="middle" pointer-events="none" x="0" y="5" font-size="10px" fill="#FFFFFF" font-family="sans-serif"> 11/29/20…</text></g><g class="node" transform="translate(85.14184600342752,8.29394274143647)"><circle class="outline" cx="0" cy="0" r="25" fill="#ECB5C9" stroke="#da7298" stroke-width="2px"/><text text-anchor="middle" pointer-events="none" font-family="sans-serif" dy="1.5625" font-size="25" fill="#2A2C34"/><text text-anchor="middle" pointer-events="none" x="0" y="5" font-size="10px" fill="#2A2C34" font-family="sans-serif"> MSP</text></g><g class="node" transform="translate(-6.726639389290224,-57.492432273429664)"><circle class="outline" cx="0" cy="0" r="25" fill="#4C8EDA" stroke="#2870c2" stroke-width="2px"/><text text-anchor="middle" pointer-events="none" font-family="sans-serif" dy="1.5625" font-size="25" fill="#FFFFFF"/><text text-anchor="middle" pointer-events="none" x="0" y="5" font-size="10px" fill="#FFFFFF" font-family="sans-serif"> 11/25/20…</text></g><g class="node" transform="translate(-22.72426562730825,8.150023455719449)"><circle class="outline" cx="0" cy="0" r="25" fill="#4C8EDA" stroke="#2870c2" stroke-width="2px"/><text text-anchor="middle" pointer-events="none" font-family="sans-serif" dy="1.5625" font-size="25" fill="#FFFFFF"/><text text-anchor="middle" pointer-events="none" x="0" y="5" font-size="10px" fill="#FFFFFF" font-family="sans-serif"> 11/23/20…</text></g><g class="node" transform="translate(-62.63683250517906,-36.51199546396865)"><circle class="outline" cx="0" cy="0" r="25" fill="#4C8EDA" stroke="#2870c2" stroke-width="2px"/><text text-anchor="middle" pointer-events="none" font-family="sans-serif" dy="1.5625" font-size="25" fill="#FFFFFF"/><text text-anchor="middle" pointer-events="none" x="0" y="5" font-size="10px" fill="#FFFFFF" font-family="sans-serif"> 11/20/20…</text></g><g class="node" transform="translate(-6.779346232334256,126.79476918643178)"><circle class="outline" cx="0" cy="0" r="25" fill="#4C8EDA" stroke="#2870c2" stroke-width="2px"/><text text-anchor="middle" pointer-events="none" font-family="sans-serif" dy="1.5625" font-size="25" fill="#FFFFFF"/><text text-anchor="middle" pointer-events="none" x="0" y="5" font-size="10px" fill="#FFFFFF" font-family="sans-serif"> 11/11/20…</text></g><g class="node" transform="translate(195.23894950898375,45.80867325612176)"><circle class="outline" cx="0" cy="0" r="25" fill="#4C8EDA" stroke="#2870c2" stroke-width="2px"/><text text-anchor="middle" pointer-events="none" font-family="sans-serif" dy="1.5625" font-size="25" fill="#FFFFFF"/><text text-anchor="middle" pointer-events="none" x="0" y="5" font-size="10px" fill="#FFFFFF" font-family="sans-serif"> 11/29/20…</text></g><g class="node" transform="translate(163.46110866115924,105.39672331646808)"><circle class="outline" cx="0" cy="0" r="25" fill="#4C8EDA" stroke="#2870c2" stroke-width="2px"/><text text-anchor="middle" pointer-events="none" font-family="sans-serif" dy="1.5625" font-size="25" fill="#FFFFFF"/><text text-anchor="middle" pointer-events="none" x="0" y="5" font-size="10px" fill="#FFFFFF" font-family="sans-serif"> 11/30/20…</text></g><g class="node" transform="translate(-12.28718701420596,67.30326251630976)"><circle class="outline" cx="0" cy="0" r="25" fill="#4C8EDA" stroke="#2870c2" stroke-width="2px"/><text text-anchor="middle" pointer-events="none" font-family="sans-serif" dy="1.5625" font-size="25" fill="#FFFFFF"/><text text-anchor="middle" pointer-events="none" x="0" y="5" font-size="10px" fill="#FFFFFF" font-family="sans-serif"> 11/16/20…</text></g><g class="node" transform="translate(236.6431966468481,223.2688539445474)"><circle class="outline" cx="0" cy="0" r="25" fill="#4C8EDA" stroke="#2870c2" stroke-width="2px"/><text text-anchor="middle" pointer-events="none" font-family="sans-serif" dy="1.5625" font-size="25" fill="#FFFFFF"/><text text-anchor="middle" pointer-events="none" x="0" y="5" font-size="10px" fill="#FFFFFF" font-family="sans-serif"> 11/29/20…</text></g></g></svg>